G04 EAGLE Gerber RS-274X export*
G75*
%MOMM*%
%FSLAX34Y34*%
%LPD*%
%INBottom Copper*%
%IPPOS*%
%AMOC8*
5,1,8,0,0,1.08239X$1,22.5*%
G01*
%ADD10P,2.336880X8X22.500000*%
%ADD11P,1.732040X8X22.500000*%
%ADD12C,1.600200*%
%ADD13P,1.732040X8X112.500000*%
%ADD14P,1.732040X8X202.500000*%
%ADD15R,1.300000X1.500000*%
%ADD16R,2.540000X2.540000*%
%ADD17C,2.540000*%
%ADD18R,2.200000X0.600000*%
%ADD19R,3.416000X3.416000*%
%ADD20C,3.416000*%
%ADD21C,1.778000*%
%ADD22R,1.778000X1.778000*%
%ADD23C,0.756400*%
%ADD24C,0.254000*%
%ADD25C,0.508000*%

G36*
X399987Y10172D02*
X399987Y10172D01*
X400059Y10174D01*
X400108Y10192D01*
X400159Y10200D01*
X400222Y10234D01*
X400290Y10259D01*
X400330Y10291D01*
X400376Y10316D01*
X400426Y10368D01*
X400482Y10412D01*
X400510Y10456D01*
X400546Y10494D01*
X400576Y10559D01*
X400615Y10619D01*
X400627Y10670D01*
X400649Y10717D01*
X400657Y10788D01*
X400675Y10858D01*
X400671Y10910D01*
X400676Y10961D01*
X400661Y11032D01*
X400656Y11103D01*
X400635Y11151D01*
X400624Y11202D01*
X400587Y11263D01*
X400559Y11329D01*
X400515Y11385D01*
X400498Y11413D01*
X400480Y11428D01*
X400455Y11460D01*
X337819Y74095D01*
X337819Y124580D01*
X337805Y124670D01*
X337797Y124761D01*
X337785Y124791D01*
X337780Y124823D01*
X337737Y124904D01*
X337701Y124987D01*
X337675Y125020D01*
X337664Y125040D01*
X337641Y125062D01*
X337596Y125118D01*
X315844Y146870D01*
X315771Y146923D01*
X315701Y146983D01*
X315671Y146995D01*
X315645Y147014D01*
X315558Y147041D01*
X315473Y147075D01*
X315432Y147079D01*
X315410Y147086D01*
X315377Y147085D01*
X315306Y147093D01*
X315302Y147093D01*
X312193Y150202D01*
X312193Y154598D01*
X312196Y154601D01*
X312249Y154675D01*
X312309Y154745D01*
X312321Y154775D01*
X312340Y154801D01*
X312367Y154888D01*
X312401Y154973D01*
X312405Y155014D01*
X312412Y155036D01*
X312411Y155068D01*
X312419Y155139D01*
X312419Y175380D01*
X312418Y175388D01*
X312418Y175391D01*
X312415Y175407D01*
X312405Y175470D01*
X312397Y175561D01*
X312385Y175591D01*
X312380Y175623D01*
X312337Y175704D01*
X312301Y175787D01*
X312275Y175820D01*
X312264Y175840D01*
X312241Y175862D01*
X312196Y175918D01*
X301648Y186466D01*
X301575Y186519D01*
X301505Y186579D01*
X301475Y186591D01*
X301449Y186610D01*
X301362Y186637D01*
X301277Y186671D01*
X301236Y186675D01*
X301214Y186682D01*
X301181Y186681D01*
X301110Y186689D01*
X291283Y186689D01*
X291213Y186678D01*
X291141Y186676D01*
X291092Y186658D01*
X291041Y186650D01*
X290977Y186616D01*
X290910Y186591D01*
X290869Y186559D01*
X290823Y186534D01*
X290774Y186482D01*
X290718Y186438D01*
X290690Y186394D01*
X290654Y186356D01*
X290624Y186291D01*
X290585Y186231D01*
X290572Y186180D01*
X290550Y186133D01*
X290542Y186062D01*
X290525Y185992D01*
X290529Y185940D01*
X290523Y185889D01*
X290538Y185818D01*
X290544Y185747D01*
X290564Y185699D01*
X290575Y185648D01*
X290612Y185587D01*
X290640Y185521D01*
X290685Y185465D01*
X290702Y185437D01*
X290719Y185422D01*
X290745Y185390D01*
X292327Y183808D01*
X292327Y181603D01*
X292338Y181532D01*
X292340Y181461D01*
X292358Y181412D01*
X292366Y181360D01*
X292400Y181297D01*
X292425Y181230D01*
X292457Y181189D01*
X292482Y181143D01*
X292534Y181094D01*
X292578Y181038D01*
X292622Y181010D01*
X292660Y180974D01*
X292725Y180944D01*
X292785Y180905D01*
X292836Y180892D01*
X292883Y180870D01*
X292954Y180862D01*
X293024Y180845D01*
X293076Y180849D01*
X293127Y180843D01*
X293198Y180858D01*
X293269Y180864D01*
X293317Y180884D01*
X293368Y180895D01*
X293429Y180932D01*
X293495Y180960D01*
X293551Y181005D01*
X293579Y181021D01*
X293594Y181039D01*
X293626Y181065D01*
X296595Y184034D01*
X300991Y184034D01*
X304100Y180925D01*
X304100Y179125D01*
X304115Y179035D01*
X304122Y178944D01*
X304134Y178914D01*
X304140Y178882D01*
X304182Y178801D01*
X304218Y178717D01*
X304244Y178685D01*
X304255Y178665D01*
X304278Y178642D01*
X304323Y178586D01*
X307567Y175342D01*
X307567Y136746D01*
X297856Y127034D01*
X297803Y126961D01*
X297743Y126891D01*
X297731Y126861D01*
X297712Y126835D01*
X297685Y126748D01*
X297651Y126663D01*
X297647Y126622D01*
X297640Y126600D01*
X297641Y126567D01*
X297633Y126496D01*
X297633Y124696D01*
X294524Y121587D01*
X290322Y121587D01*
X290302Y121584D01*
X290283Y121586D01*
X290181Y121564D01*
X290079Y121548D01*
X290062Y121538D01*
X290042Y121534D01*
X289953Y121481D01*
X289862Y121432D01*
X289848Y121418D01*
X289831Y121408D01*
X289764Y121329D01*
X289692Y121254D01*
X289684Y121236D01*
X289671Y121221D01*
X289632Y121125D01*
X289589Y121031D01*
X289587Y121011D01*
X289579Y120993D01*
X289561Y120826D01*
X289561Y59044D01*
X289575Y58954D01*
X289583Y58863D01*
X289595Y58833D01*
X289600Y58801D01*
X289643Y58720D01*
X289679Y58636D01*
X289705Y58604D01*
X289716Y58584D01*
X289739Y58561D01*
X289784Y58506D01*
X310227Y38063D01*
X310243Y38051D01*
X310255Y38035D01*
X310342Y37979D01*
X310426Y37919D01*
X310445Y37913D01*
X310462Y37902D01*
X310563Y37877D01*
X310661Y37847D01*
X310681Y37847D01*
X310701Y37842D01*
X310804Y37850D01*
X310907Y37853D01*
X310926Y37860D01*
X310946Y37862D01*
X311041Y37902D01*
X311138Y37938D01*
X311154Y37950D01*
X311172Y37958D01*
X311303Y38063D01*
X311976Y38736D01*
X313872Y38736D01*
X313942Y38747D01*
X314014Y38749D01*
X314063Y38767D01*
X314114Y38775D01*
X314178Y38809D01*
X314245Y38834D01*
X314286Y38866D01*
X314332Y38891D01*
X314381Y38943D01*
X314437Y38987D01*
X314465Y39031D01*
X314501Y39069D01*
X314531Y39134D01*
X314570Y39194D01*
X314583Y39245D01*
X314605Y39292D01*
X314613Y39363D01*
X314630Y39433D01*
X314626Y39485D01*
X314632Y39536D01*
X314617Y39607D01*
X314611Y39678D01*
X314591Y39726D01*
X314580Y39777D01*
X314543Y39838D01*
X314515Y39904D01*
X314470Y39960D01*
X314453Y39988D01*
X314436Y40003D01*
X314410Y40035D01*
X312193Y42252D01*
X312193Y46648D01*
X314736Y49191D01*
X314789Y49265D01*
X314849Y49335D01*
X314861Y49365D01*
X314880Y49391D01*
X314907Y49478D01*
X314941Y49563D01*
X314945Y49604D01*
X314952Y49626D01*
X314951Y49658D01*
X314959Y49729D01*
X314959Y122991D01*
X314945Y123081D01*
X314937Y123172D01*
X314925Y123201D01*
X314920Y123233D01*
X314877Y123314D01*
X314841Y123398D01*
X314815Y123430D01*
X314804Y123451D01*
X314781Y123473D01*
X314736Y123529D01*
X313463Y124802D01*
X313463Y129198D01*
X316572Y132307D01*
X320968Y132307D01*
X324077Y129198D01*
X324077Y124802D01*
X322804Y123529D01*
X322751Y123455D01*
X322691Y123385D01*
X322679Y123355D01*
X322660Y123329D01*
X322633Y123242D01*
X322599Y123157D01*
X322595Y123116D01*
X322588Y123094D01*
X322589Y123062D01*
X322581Y122991D01*
X322581Y47189D01*
X322595Y47099D01*
X322603Y47008D01*
X322615Y46979D01*
X322620Y46947D01*
X322663Y46866D01*
X322699Y46782D01*
X322725Y46750D01*
X322736Y46729D01*
X322759Y46707D01*
X322804Y46651D01*
X322807Y46648D01*
X322807Y42252D01*
X320590Y40035D01*
X320548Y39977D01*
X320499Y39925D01*
X320477Y39878D01*
X320447Y39836D01*
X320425Y39767D01*
X320395Y39702D01*
X320390Y39650D01*
X320374Y39600D01*
X320376Y39529D01*
X320368Y39458D01*
X320379Y39407D01*
X320381Y39355D01*
X320405Y39287D01*
X320420Y39217D01*
X320447Y39172D01*
X320465Y39124D01*
X320510Y39068D01*
X320547Y39006D01*
X320586Y38972D01*
X320619Y38932D01*
X320679Y38893D01*
X320734Y38846D01*
X320782Y38827D01*
X320826Y38799D01*
X320895Y38781D01*
X320962Y38754D01*
X321033Y38746D01*
X321064Y38738D01*
X321087Y38740D01*
X321128Y38736D01*
X323024Y38736D01*
X330836Y30924D01*
X330836Y19876D01*
X323024Y12064D01*
X311976Y12064D01*
X304164Y19876D01*
X304164Y30924D01*
X304837Y31597D01*
X304849Y31613D01*
X304865Y31626D01*
X304921Y31713D01*
X304981Y31797D01*
X304987Y31816D01*
X304998Y31832D01*
X305023Y31933D01*
X305053Y32032D01*
X305053Y32052D01*
X305058Y32071D01*
X305050Y32174D01*
X305047Y32278D01*
X305040Y32296D01*
X305038Y32316D01*
X304998Y32411D01*
X304962Y32509D01*
X304950Y32524D01*
X304942Y32542D01*
X304837Y32673D01*
X284394Y53116D01*
X281939Y55572D01*
X281939Y178871D01*
X281925Y178961D01*
X281917Y179052D01*
X281905Y179081D01*
X281900Y179113D01*
X281857Y179194D01*
X281821Y179278D01*
X281795Y179310D01*
X281784Y179331D01*
X281761Y179353D01*
X281716Y179409D01*
X281713Y179412D01*
X281713Y183808D01*
X283295Y185390D01*
X283337Y185448D01*
X283386Y185500D01*
X283408Y185547D01*
X283438Y185589D01*
X283460Y185658D01*
X283490Y185723D01*
X283495Y185775D01*
X283511Y185825D01*
X283509Y185896D01*
X283517Y185967D01*
X283506Y186018D01*
X283504Y186070D01*
X283480Y186138D01*
X283465Y186208D01*
X283438Y186253D01*
X283420Y186301D01*
X283375Y186357D01*
X283338Y186419D01*
X283299Y186453D01*
X283266Y186493D01*
X283206Y186532D01*
X283151Y186579D01*
X283103Y186598D01*
X283059Y186626D01*
X282990Y186644D01*
X282923Y186671D01*
X282852Y186679D01*
X282821Y186687D01*
X282798Y186685D01*
X282757Y186689D01*
X217133Y186689D01*
X214678Y189144D01*
X214678Y189145D01*
X213735Y190088D01*
X213734Y190088D01*
X211251Y192572D01*
X211240Y192641D01*
X211230Y192658D01*
X211226Y192678D01*
X211173Y192767D01*
X211124Y192858D01*
X211110Y192872D01*
X211100Y192889D01*
X211021Y192956D01*
X210946Y193028D01*
X210928Y193036D01*
X210913Y193049D01*
X210817Y193088D01*
X210723Y193131D01*
X210703Y193133D01*
X210685Y193141D01*
X210518Y193159D01*
X198848Y193159D01*
X197359Y194648D01*
X197359Y211752D01*
X198848Y213241D01*
X210518Y213241D01*
X210538Y213244D01*
X210557Y213242D01*
X210659Y213264D01*
X210761Y213280D01*
X210778Y213290D01*
X210798Y213294D01*
X210887Y213347D01*
X210978Y213396D01*
X210992Y213410D01*
X211009Y213420D01*
X211076Y213499D01*
X211148Y213574D01*
X211156Y213592D01*
X211169Y213607D01*
X211208Y213703D01*
X211251Y213797D01*
X211253Y213817D01*
X211261Y213835D01*
X211261Y213838D01*
X215743Y218321D01*
X225316Y218321D01*
X225406Y218335D01*
X225497Y218343D01*
X225527Y218355D01*
X225559Y218360D01*
X225640Y218403D01*
X225724Y218439D01*
X225756Y218465D01*
X225776Y218476D01*
X225799Y218499D01*
X225854Y218544D01*
X241302Y233992D01*
X241355Y234065D01*
X241415Y234135D01*
X241427Y234165D01*
X241446Y234191D01*
X241473Y234278D01*
X241507Y234363D01*
X241511Y234404D01*
X241518Y234426D01*
X241517Y234454D01*
X241518Y234457D01*
X241518Y234464D01*
X241525Y234530D01*
X241525Y234560D01*
X241514Y234631D01*
X241512Y234703D01*
X241494Y234752D01*
X241486Y234803D01*
X241452Y234866D01*
X241427Y234934D01*
X241395Y234974D01*
X241370Y235020D01*
X241318Y235070D01*
X241274Y235126D01*
X241230Y235154D01*
X241192Y235190D01*
X241127Y235220D01*
X241067Y235259D01*
X241016Y235271D01*
X240969Y235293D01*
X240898Y235301D01*
X240828Y235319D01*
X240776Y235315D01*
X240725Y235320D01*
X240654Y235305D01*
X240583Y235300D01*
X240535Y235279D01*
X240484Y235268D01*
X240423Y235231D01*
X240357Y235203D01*
X240301Y235158D01*
X240273Y235142D01*
X240258Y235124D01*
X240226Y235098D01*
X229457Y224329D01*
X201434Y224329D01*
X201344Y224315D01*
X201253Y224307D01*
X201223Y224295D01*
X201191Y224290D01*
X201110Y224247D01*
X201026Y224211D01*
X200994Y224185D01*
X200974Y224174D01*
X200951Y224151D01*
X200896Y224106D01*
X183864Y207075D01*
X183818Y207010D01*
X183799Y206991D01*
X183796Y206983D01*
X183751Y206931D01*
X183739Y206901D01*
X183720Y206875D01*
X183693Y206788D01*
X183659Y206703D01*
X183655Y206662D01*
X183648Y206640D01*
X183649Y206608D01*
X183641Y206536D01*
X183641Y194648D01*
X182152Y193159D01*
X167048Y193159D01*
X165638Y194569D01*
X165622Y194580D01*
X165610Y194596D01*
X165522Y194652D01*
X165439Y194712D01*
X165420Y194718D01*
X165403Y194729D01*
X165302Y194754D01*
X165203Y194784D01*
X165184Y194784D01*
X165164Y194789D01*
X165061Y194781D01*
X164958Y194778D01*
X164939Y194771D01*
X164919Y194770D01*
X164824Y194729D01*
X164727Y194694D01*
X164711Y194681D01*
X164693Y194673D01*
X164562Y194569D01*
X163152Y193159D01*
X148048Y193159D01*
X146559Y194648D01*
X146559Y198628D01*
X146556Y198648D01*
X146558Y198667D01*
X146536Y198769D01*
X146520Y198871D01*
X146510Y198888D01*
X146506Y198908D01*
X146453Y198997D01*
X146404Y199088D01*
X146390Y199102D01*
X146380Y199119D01*
X146301Y199186D01*
X146226Y199258D01*
X146208Y199266D01*
X146193Y199279D01*
X146097Y199318D01*
X146003Y199361D01*
X145983Y199363D01*
X145965Y199371D01*
X145798Y199389D01*
X134922Y199389D01*
X107289Y227022D01*
X107289Y243198D01*
X107286Y243218D01*
X107288Y243237D01*
X107266Y243339D01*
X107250Y243441D01*
X107240Y243458D01*
X107236Y243478D01*
X107183Y243567D01*
X107134Y243658D01*
X107120Y243672D01*
X107110Y243689D01*
X107031Y243756D01*
X106956Y243828D01*
X106938Y243836D01*
X106923Y243849D01*
X106827Y243888D01*
X106733Y243931D01*
X106713Y243933D01*
X106695Y243941D01*
X106528Y243959D01*
X103548Y243959D01*
X102042Y245464D01*
X101946Y245534D01*
X101850Y245604D01*
X101846Y245606D01*
X101843Y245608D01*
X101729Y245643D01*
X101616Y245679D01*
X101612Y245679D01*
X101608Y245680D01*
X101489Y245677D01*
X101370Y245675D01*
X101366Y245674D01*
X101362Y245674D01*
X101249Y245633D01*
X101138Y245594D01*
X101135Y245591D01*
X101131Y245590D01*
X101037Y245514D01*
X100944Y245442D01*
X100941Y245438D01*
X100939Y245436D01*
X100931Y245424D01*
X100845Y245307D01*
X100633Y244940D01*
X100160Y244467D01*
X99581Y244132D01*
X98934Y243959D01*
X93623Y243959D01*
X93623Y253238D01*
X93620Y253258D01*
X93622Y253277D01*
X93600Y253379D01*
X93583Y253481D01*
X93574Y253498D01*
X93570Y253518D01*
X93517Y253607D01*
X93468Y253698D01*
X93454Y253712D01*
X93444Y253729D01*
X93365Y253796D01*
X93290Y253867D01*
X93272Y253876D01*
X93257Y253889D01*
X93161Y253928D01*
X93067Y253971D01*
X93047Y253973D01*
X93029Y253981D01*
X92862Y253999D01*
X92099Y253999D01*
X92099Y254001D01*
X92862Y254001D01*
X92882Y254004D01*
X92901Y254002D01*
X93003Y254024D01*
X93105Y254041D01*
X93122Y254050D01*
X93142Y254054D01*
X93231Y254107D01*
X93322Y254156D01*
X93336Y254170D01*
X93353Y254180D01*
X93420Y254259D01*
X93491Y254334D01*
X93500Y254352D01*
X93513Y254367D01*
X93552Y254463D01*
X93595Y254557D01*
X93597Y254577D01*
X93605Y254595D01*
X93623Y254762D01*
X93623Y264041D01*
X98934Y264041D01*
X99581Y263868D01*
X100160Y263533D01*
X100633Y263060D01*
X100845Y262693D01*
X100921Y262600D01*
X100994Y262508D01*
X100998Y262506D01*
X101001Y262503D01*
X101102Y262439D01*
X101201Y262375D01*
X101205Y262374D01*
X101209Y262372D01*
X101325Y262344D01*
X101440Y262315D01*
X101444Y262316D01*
X101448Y262315D01*
X101567Y262325D01*
X101685Y262334D01*
X101689Y262336D01*
X101693Y262336D01*
X101803Y262384D01*
X101911Y262431D01*
X101915Y262434D01*
X101918Y262435D01*
X101929Y262445D01*
X102042Y262536D01*
X103548Y264041D01*
X106528Y264041D01*
X106548Y264044D01*
X106567Y264042D01*
X106669Y264064D01*
X106771Y264080D01*
X106788Y264090D01*
X106808Y264094D01*
X106897Y264147D01*
X106988Y264196D01*
X107002Y264210D01*
X107019Y264220D01*
X107086Y264299D01*
X107158Y264374D01*
X107166Y264392D01*
X107179Y264407D01*
X107218Y264503D01*
X107261Y264597D01*
X107263Y264617D01*
X107271Y264635D01*
X107289Y264802D01*
X107289Y268598D01*
X107286Y268618D01*
X107288Y268637D01*
X107266Y268739D01*
X107250Y268841D01*
X107240Y268858D01*
X107236Y268878D01*
X107183Y268967D01*
X107134Y269058D01*
X107120Y269072D01*
X107110Y269089D01*
X107031Y269156D01*
X106956Y269228D01*
X106938Y269236D01*
X106923Y269249D01*
X106827Y269288D01*
X106733Y269331D01*
X106713Y269333D01*
X106695Y269341D01*
X106528Y269359D01*
X103548Y269359D01*
X102138Y270769D01*
X102122Y270780D01*
X102110Y270796D01*
X102022Y270852D01*
X101939Y270912D01*
X101920Y270918D01*
X101903Y270929D01*
X101802Y270954D01*
X101703Y270984D01*
X101684Y270984D01*
X101664Y270989D01*
X101561Y270981D01*
X101458Y270978D01*
X101439Y270971D01*
X101419Y270970D01*
X101324Y270929D01*
X101227Y270894D01*
X101211Y270881D01*
X101193Y270873D01*
X101062Y270769D01*
X99652Y269359D01*
X84548Y269359D01*
X83059Y270848D01*
X83059Y287952D01*
X84548Y289441D01*
X96218Y289441D01*
X96238Y289444D01*
X96257Y289442D01*
X96359Y289464D01*
X96461Y289480D01*
X96478Y289490D01*
X96498Y289494D01*
X96587Y289547D01*
X96678Y289596D01*
X96692Y289610D01*
X96709Y289620D01*
X96776Y289699D01*
X96848Y289774D01*
X96856Y289792D01*
X96869Y289807D01*
X96908Y289903D01*
X96951Y289997D01*
X96953Y290017D01*
X96961Y290035D01*
X96961Y290038D01*
X101443Y294521D01*
X101516Y294521D01*
X101606Y294535D01*
X101697Y294543D01*
X101727Y294555D01*
X101759Y294560D01*
X101840Y294603D01*
X101924Y294639D01*
X101956Y294665D01*
X101976Y294676D01*
X101999Y294699D01*
X102054Y294744D01*
X103916Y296606D01*
X103969Y296679D01*
X104007Y296723D01*
X104008Y296724D01*
X104029Y296749D01*
X104041Y296779D01*
X104060Y296805D01*
X104087Y296892D01*
X104093Y296907D01*
X104111Y296947D01*
X104112Y296955D01*
X104121Y296977D01*
X104125Y297018D01*
X104132Y297040D01*
X104131Y297073D01*
X104139Y297144D01*
X104139Y326191D01*
X104125Y326281D01*
X104117Y326372D01*
X104105Y326401D01*
X104100Y326433D01*
X104057Y326514D01*
X104021Y326598D01*
X103995Y326630D01*
X103984Y326651D01*
X103961Y326673D01*
X103916Y326729D01*
X102643Y328002D01*
X102643Y332398D01*
X105752Y335507D01*
X110148Y335507D01*
X113257Y332398D01*
X113257Y328002D01*
X111984Y326729D01*
X111931Y326655D01*
X111871Y326585D01*
X111859Y326555D01*
X111840Y326529D01*
X111813Y326442D01*
X111779Y326357D01*
X111775Y326316D01*
X111768Y326294D01*
X111769Y326262D01*
X111761Y326191D01*
X111761Y293672D01*
X108829Y290740D01*
X108788Y290682D01*
X108738Y290630D01*
X108716Y290583D01*
X108686Y290541D01*
X108665Y290472D01*
X108635Y290407D01*
X108629Y290355D01*
X108614Y290305D01*
X108615Y290234D01*
X108608Y290163D01*
X108619Y290112D01*
X108620Y290060D01*
X108645Y289992D01*
X108660Y289922D01*
X108686Y289877D01*
X108704Y289829D01*
X108749Y289773D01*
X108786Y289711D01*
X108826Y289677D01*
X108858Y289637D01*
X108918Y289598D01*
X108973Y289551D01*
X109021Y289532D01*
X109065Y289504D01*
X109134Y289486D01*
X109201Y289459D01*
X109272Y289451D01*
X109304Y289443D01*
X109327Y289445D01*
X109368Y289441D01*
X118652Y289441D01*
X120141Y287952D01*
X120141Y270848D01*
X118652Y269359D01*
X115672Y269359D01*
X115652Y269356D01*
X115633Y269358D01*
X115531Y269336D01*
X115429Y269320D01*
X115412Y269310D01*
X115392Y269306D01*
X115303Y269253D01*
X115212Y269204D01*
X115198Y269190D01*
X115181Y269180D01*
X115114Y269101D01*
X115042Y269026D01*
X115034Y269008D01*
X115021Y268993D01*
X114982Y268897D01*
X114939Y268803D01*
X114937Y268783D01*
X114929Y268765D01*
X114911Y268598D01*
X114911Y264802D01*
X114914Y264782D01*
X114912Y264763D01*
X114934Y264661D01*
X114950Y264559D01*
X114960Y264542D01*
X114964Y264522D01*
X115017Y264433D01*
X115066Y264342D01*
X115080Y264328D01*
X115090Y264311D01*
X115169Y264244D01*
X115244Y264172D01*
X115262Y264164D01*
X115277Y264151D01*
X115373Y264112D01*
X115467Y264069D01*
X115487Y264067D01*
X115505Y264059D01*
X115672Y264041D01*
X118652Y264041D01*
X120141Y262552D01*
X120141Y245448D01*
X118652Y243959D01*
X115672Y243959D01*
X115652Y243956D01*
X115633Y243958D01*
X115531Y243936D01*
X115429Y243920D01*
X115412Y243910D01*
X115392Y243906D01*
X115303Y243853D01*
X115212Y243804D01*
X115198Y243790D01*
X115181Y243780D01*
X115114Y243701D01*
X115042Y243626D01*
X115034Y243608D01*
X115021Y243593D01*
X114982Y243497D01*
X114939Y243403D01*
X114937Y243383D01*
X114929Y243365D01*
X114911Y243198D01*
X114911Y230494D01*
X114925Y230404D01*
X114933Y230313D01*
X114945Y230283D01*
X114950Y230251D01*
X114993Y230170D01*
X115029Y230086D01*
X115055Y230054D01*
X115066Y230034D01*
X115089Y230011D01*
X115134Y229956D01*
X137856Y207234D01*
X137929Y207181D01*
X137999Y207121D01*
X138029Y207109D01*
X138055Y207090D01*
X138142Y207063D01*
X138227Y207029D01*
X138268Y207025D01*
X138290Y207018D01*
X138323Y207019D01*
X138394Y207011D01*
X145798Y207011D01*
X145818Y207014D01*
X145837Y207012D01*
X145939Y207034D01*
X146041Y207050D01*
X146058Y207060D01*
X146078Y207064D01*
X146167Y207117D01*
X146258Y207166D01*
X146272Y207180D01*
X146289Y207190D01*
X146356Y207269D01*
X146428Y207344D01*
X146436Y207362D01*
X146449Y207377D01*
X146488Y207473D01*
X146531Y207567D01*
X146533Y207587D01*
X146541Y207605D01*
X146559Y207772D01*
X146559Y211752D01*
X148048Y213241D01*
X163152Y213241D01*
X164562Y211831D01*
X164578Y211820D01*
X164590Y211804D01*
X164678Y211748D01*
X164761Y211688D01*
X164780Y211682D01*
X164797Y211671D01*
X164898Y211646D01*
X164997Y211616D01*
X165016Y211616D01*
X165036Y211611D01*
X165139Y211619D01*
X165242Y211622D01*
X165261Y211629D01*
X165281Y211630D01*
X165376Y211671D01*
X165473Y211706D01*
X165489Y211719D01*
X165507Y211727D01*
X165638Y211831D01*
X167048Y213241D01*
X178936Y213241D01*
X179026Y213255D01*
X179117Y213263D01*
X179147Y213275D01*
X179179Y213280D01*
X179260Y213323D01*
X179344Y213359D01*
X179376Y213385D01*
X179396Y213396D01*
X179419Y213419D01*
X179475Y213464D01*
X195506Y229495D01*
X195851Y229840D01*
X195892Y229898D01*
X195942Y229950D01*
X195964Y229997D01*
X195994Y230039D01*
X196015Y230108D01*
X196045Y230173D01*
X196051Y230225D01*
X196066Y230275D01*
X196065Y230346D01*
X196072Y230417D01*
X196061Y230468D01*
X196060Y230520D01*
X196035Y230588D01*
X196020Y230658D01*
X195993Y230703D01*
X195976Y230751D01*
X195931Y230807D01*
X195894Y230869D01*
X195854Y230903D01*
X195822Y230943D01*
X195762Y230982D01*
X195707Y231029D01*
X195659Y231048D01*
X195615Y231076D01*
X195546Y231094D01*
X195479Y231121D01*
X195408Y231129D01*
X195377Y231137D01*
X195353Y231135D01*
X195312Y231139D01*
X192072Y231139D01*
X189616Y233594D01*
X189616Y233595D01*
X179710Y243501D01*
X179652Y243542D01*
X179600Y243592D01*
X179553Y243614D01*
X179511Y243644D01*
X179442Y243665D01*
X179377Y243695D01*
X179325Y243701D01*
X179275Y243716D01*
X179204Y243715D01*
X179133Y243722D01*
X179082Y243711D01*
X179030Y243710D01*
X178962Y243685D01*
X178892Y243670D01*
X178848Y243644D01*
X178799Y243626D01*
X178743Y243581D01*
X178681Y243544D01*
X178647Y243504D01*
X178607Y243472D01*
X178568Y243412D01*
X178521Y243357D01*
X178502Y243309D01*
X178474Y243265D01*
X178456Y243196D01*
X178429Y243129D01*
X178421Y243058D01*
X178413Y243026D01*
X178415Y243003D01*
X178411Y242962D01*
X178411Y239402D01*
X178414Y239382D01*
X178412Y239363D01*
X178434Y239261D01*
X178450Y239159D01*
X178460Y239142D01*
X178464Y239122D01*
X178517Y239033D01*
X178566Y238942D01*
X178580Y238928D01*
X178590Y238911D01*
X178669Y238844D01*
X178744Y238772D01*
X178762Y238764D01*
X178777Y238751D01*
X178873Y238712D01*
X178967Y238669D01*
X178987Y238667D01*
X179005Y238659D01*
X179172Y238641D01*
X182152Y238641D01*
X183641Y237152D01*
X183641Y220048D01*
X182152Y218559D01*
X167048Y218559D01*
X165638Y219969D01*
X165622Y219980D01*
X165610Y219996D01*
X165522Y220052D01*
X165439Y220112D01*
X165420Y220118D01*
X165403Y220129D01*
X165302Y220154D01*
X165203Y220184D01*
X165184Y220184D01*
X165164Y220189D01*
X165061Y220181D01*
X164958Y220178D01*
X164939Y220171D01*
X164919Y220170D01*
X164824Y220129D01*
X164727Y220094D01*
X164711Y220081D01*
X164693Y220073D01*
X164562Y219969D01*
X163152Y218559D01*
X148048Y218559D01*
X146559Y220048D01*
X146559Y237152D01*
X146576Y237170D01*
X146588Y237186D01*
X146604Y237198D01*
X146660Y237286D01*
X146720Y237369D01*
X146726Y237388D01*
X146737Y237405D01*
X146762Y237506D01*
X146792Y237604D01*
X146792Y237624D01*
X146797Y237644D01*
X146789Y237747D01*
X146786Y237850D01*
X146779Y237869D01*
X146778Y237889D01*
X146737Y237984D01*
X146702Y238081D01*
X146689Y238097D01*
X146681Y238115D01*
X146576Y238246D01*
X141479Y243343D01*
X141479Y264657D01*
X146576Y269754D01*
X146588Y269770D01*
X146604Y269782D01*
X146660Y269870D01*
X146720Y269954D01*
X146726Y269973D01*
X146737Y269989D01*
X146762Y270090D01*
X146792Y270189D01*
X146792Y270209D01*
X146797Y270228D01*
X146789Y270331D01*
X146786Y270434D01*
X146779Y270453D01*
X146778Y270473D01*
X146737Y270568D01*
X146702Y270666D01*
X146689Y270681D01*
X146681Y270699D01*
X146576Y270830D01*
X146559Y270848D01*
X146559Y287952D01*
X148048Y289441D01*
X159718Y289441D01*
X159738Y289444D01*
X159757Y289442D01*
X159859Y289464D01*
X159961Y289480D01*
X159978Y289490D01*
X159998Y289494D01*
X160087Y289547D01*
X160178Y289596D01*
X160192Y289610D01*
X160209Y289620D01*
X160276Y289699D01*
X160348Y289774D01*
X160356Y289792D01*
X160369Y289807D01*
X160408Y289903D01*
X160451Y289997D01*
X160453Y290017D01*
X160461Y290035D01*
X160461Y290038D01*
X162488Y292065D01*
X162488Y292066D01*
X164943Y294521D01*
X247398Y294521D01*
X247418Y294524D01*
X247437Y294522D01*
X247539Y294544D01*
X247641Y294560D01*
X247658Y294570D01*
X247678Y294574D01*
X247767Y294627D01*
X247858Y294676D01*
X247872Y294690D01*
X247889Y294700D01*
X247956Y294779D01*
X248028Y294854D01*
X248036Y294872D01*
X248049Y294887D01*
X248088Y294983D01*
X248131Y295077D01*
X248133Y295097D01*
X248141Y295115D01*
X248159Y295282D01*
X248159Y300652D01*
X249648Y302141D01*
X264752Y302141D01*
X266162Y300731D01*
X266178Y300720D01*
X266190Y300704D01*
X266278Y300648D01*
X266361Y300588D01*
X266380Y300582D01*
X266397Y300571D01*
X266498Y300546D01*
X266597Y300516D01*
X266616Y300516D01*
X266636Y300511D01*
X266739Y300519D01*
X266842Y300522D01*
X266861Y300529D01*
X266881Y300530D01*
X266976Y300571D01*
X267073Y300606D01*
X267089Y300619D01*
X267107Y300627D01*
X267238Y300731D01*
X268648Y302141D01*
X283752Y302141D01*
X285241Y300652D01*
X285241Y283548D01*
X283949Y282255D01*
X283937Y282239D01*
X283921Y282227D01*
X283865Y282139D01*
X283805Y282056D01*
X283799Y282037D01*
X283788Y282020D01*
X283763Y281919D01*
X283733Y281821D01*
X283733Y281801D01*
X283728Y281781D01*
X283736Y281678D01*
X283739Y281575D01*
X283746Y281556D01*
X283747Y281536D01*
X283788Y281441D01*
X283823Y281344D01*
X283836Y281328D01*
X283844Y281310D01*
X283949Y281179D01*
X285921Y279207D01*
X285921Y254193D01*
X281428Y249701D01*
X281359Y249690D01*
X281342Y249680D01*
X281322Y249676D01*
X281233Y249623D01*
X281142Y249574D01*
X281128Y249560D01*
X281111Y249550D01*
X281044Y249471D01*
X280972Y249396D01*
X280964Y249378D01*
X280951Y249363D01*
X280912Y249267D01*
X280869Y249173D01*
X280867Y249153D01*
X280859Y249135D01*
X280841Y248968D01*
X280841Y243598D01*
X279352Y242109D01*
X270014Y242109D01*
X269924Y242095D01*
X269833Y242087D01*
X269803Y242075D01*
X269771Y242070D01*
X269691Y242027D01*
X269607Y241991D01*
X269574Y241965D01*
X269554Y241954D01*
X269532Y241931D01*
X269476Y241886D01*
X269380Y241790D01*
X269338Y241732D01*
X269288Y241680D01*
X269266Y241633D01*
X269236Y241591D01*
X269215Y241522D01*
X269185Y241457D01*
X269179Y241405D01*
X269164Y241356D01*
X269165Y241284D01*
X269158Y241213D01*
X269169Y241162D01*
X269170Y241110D01*
X269195Y241042D01*
X269210Y240972D01*
X269236Y240927D01*
X269254Y240879D01*
X269299Y240823D01*
X269336Y240761D01*
X269375Y240727D01*
X269408Y240687D01*
X269468Y240648D01*
X269523Y240601D01*
X269571Y240582D01*
X269615Y240554D01*
X269684Y240536D01*
X269751Y240509D01*
X269822Y240501D01*
X269853Y240493D01*
X269877Y240495D01*
X269918Y240491D01*
X278634Y240491D01*
X279281Y240318D01*
X279860Y239983D01*
X280333Y239510D01*
X280668Y238931D01*
X280841Y238284D01*
X280841Y236449D01*
X268038Y236449D01*
X268019Y236446D01*
X267999Y236448D01*
X267897Y236426D01*
X267795Y236410D01*
X267778Y236400D01*
X267758Y236396D01*
X267669Y236343D01*
X267578Y236294D01*
X267564Y236280D01*
X267547Y236270D01*
X267480Y236191D01*
X267409Y236116D01*
X267400Y236098D01*
X267387Y236083D01*
X267349Y235987D01*
X267305Y235893D01*
X267303Y235873D01*
X267295Y235855D01*
X267277Y235688D01*
X267277Y234973D01*
X266562Y234973D01*
X266542Y234970D01*
X266522Y234972D01*
X266421Y234950D01*
X266319Y234933D01*
X266302Y234924D01*
X266282Y234920D01*
X266193Y234867D01*
X266102Y234818D01*
X266088Y234804D01*
X266071Y234794D01*
X266004Y234715D01*
X265932Y234640D01*
X265924Y234622D01*
X265911Y234607D01*
X265872Y234510D01*
X265829Y234417D01*
X265827Y234397D01*
X265819Y234379D01*
X265801Y234212D01*
X265801Y229409D01*
X257062Y229409D01*
X257042Y229406D01*
X257023Y229408D01*
X256921Y229386D01*
X256819Y229370D01*
X256802Y229360D01*
X256782Y229356D01*
X256693Y229303D01*
X256602Y229254D01*
X256588Y229240D01*
X256571Y229230D01*
X256504Y229151D01*
X256432Y229076D01*
X256424Y229058D01*
X256411Y229043D01*
X256372Y228947D01*
X256329Y228853D01*
X256327Y228833D01*
X256319Y228815D01*
X256301Y228648D01*
X256301Y214002D01*
X256304Y213982D01*
X256302Y213963D01*
X256324Y213861D01*
X256340Y213759D01*
X256350Y213742D01*
X256354Y213722D01*
X256407Y213633D01*
X256456Y213542D01*
X256470Y213528D01*
X256480Y213511D01*
X256559Y213444D01*
X256634Y213372D01*
X256652Y213364D01*
X256667Y213351D01*
X256763Y213312D01*
X256857Y213269D01*
X256877Y213267D01*
X256895Y213259D01*
X257062Y213241D01*
X264752Y213241D01*
X266258Y211736D01*
X266353Y211667D01*
X266450Y211596D01*
X266454Y211594D01*
X266457Y211592D01*
X266570Y211557D01*
X266684Y211521D01*
X266688Y211521D01*
X266692Y211520D01*
X266811Y211523D01*
X266930Y211525D01*
X266934Y211526D01*
X266938Y211526D01*
X267050Y211567D01*
X267162Y211606D01*
X267165Y211609D01*
X267169Y211610D01*
X267263Y211685D01*
X267356Y211758D01*
X267359Y211762D01*
X267361Y211764D01*
X267369Y211776D01*
X267455Y211893D01*
X267667Y212260D01*
X268140Y212733D01*
X268719Y213068D01*
X269366Y213241D01*
X274677Y213241D01*
X274677Y203962D01*
X274680Y203942D01*
X274678Y203923D01*
X274700Y203821D01*
X274717Y203719D01*
X274726Y203702D01*
X274730Y203682D01*
X274783Y203593D01*
X274832Y203502D01*
X274846Y203488D01*
X274856Y203471D01*
X274935Y203404D01*
X275010Y203333D01*
X275028Y203324D01*
X275043Y203311D01*
X275139Y203272D01*
X275233Y203229D01*
X275253Y203227D01*
X275271Y203219D01*
X275438Y203201D01*
X276201Y203201D01*
X276201Y202438D01*
X276204Y202418D01*
X276202Y202399D01*
X276224Y202297D01*
X276241Y202195D01*
X276250Y202178D01*
X276254Y202158D01*
X276307Y202069D01*
X276356Y201978D01*
X276370Y201964D01*
X276380Y201947D01*
X276459Y201880D01*
X276534Y201809D01*
X276552Y201800D01*
X276567Y201787D01*
X276663Y201748D01*
X276757Y201705D01*
X276777Y201703D01*
X276795Y201695D01*
X276962Y201677D01*
X285241Y201677D01*
X285241Y195365D01*
X285215Y195269D01*
X285203Y195151D01*
X285190Y195033D01*
X285191Y195028D01*
X285190Y195024D01*
X285217Y194909D01*
X285242Y194792D01*
X285244Y194789D01*
X285245Y194785D01*
X285307Y194683D01*
X285368Y194581D01*
X285372Y194578D01*
X285374Y194575D01*
X285465Y194499D01*
X285555Y194421D01*
X285559Y194420D01*
X285562Y194417D01*
X285672Y194374D01*
X285783Y194329D01*
X285788Y194329D01*
X285791Y194327D01*
X285805Y194327D01*
X285950Y194311D01*
X298958Y194311D01*
X298978Y194314D01*
X298997Y194312D01*
X299099Y194334D01*
X299201Y194350D01*
X299218Y194360D01*
X299238Y194364D01*
X299327Y194417D01*
X299418Y194466D01*
X299432Y194480D01*
X299449Y194490D01*
X299516Y194569D01*
X299588Y194644D01*
X299596Y194662D01*
X299609Y194677D01*
X299648Y194773D01*
X299691Y194867D01*
X299693Y194887D01*
X299701Y194905D01*
X299719Y195072D01*
X299719Y215701D01*
X299716Y215719D01*
X299718Y215738D01*
X299703Y215807D01*
X299697Y215882D01*
X299685Y215911D01*
X299680Y215943D01*
X299669Y215962D01*
X299666Y215978D01*
X299633Y216034D01*
X299601Y216108D01*
X299575Y216140D01*
X299564Y216161D01*
X299547Y216177D01*
X299540Y216189D01*
X299528Y216199D01*
X299496Y216239D01*
X299493Y216242D01*
X299493Y220638D01*
X300766Y221911D01*
X300819Y221985D01*
X300879Y222055D01*
X300891Y222085D01*
X300910Y222111D01*
X300937Y222198D01*
X300971Y222283D01*
X300975Y222324D01*
X300982Y222346D01*
X300981Y222378D01*
X300989Y222449D01*
X300989Y225607D01*
X300987Y225621D01*
X300988Y225634D01*
X300978Y225683D01*
X300976Y225749D01*
X300958Y225798D01*
X300950Y225849D01*
X300916Y225913D01*
X300891Y225980D01*
X300859Y226021D01*
X300834Y226067D01*
X300782Y226116D01*
X300738Y226172D01*
X300694Y226200D01*
X300656Y226236D01*
X300591Y226266D01*
X300531Y226305D01*
X300480Y226318D01*
X300433Y226340D01*
X300362Y226348D01*
X300292Y226365D01*
X300240Y226361D01*
X300189Y226367D01*
X300118Y226352D01*
X300047Y226346D01*
X299999Y226326D01*
X299948Y226315D01*
X299887Y226278D01*
X299821Y226250D01*
X299767Y226207D01*
X299756Y226201D01*
X299753Y226198D01*
X299737Y226188D01*
X299722Y226171D01*
X299690Y226145D01*
X296838Y223293D01*
X292442Y223293D01*
X289333Y226402D01*
X289333Y230798D01*
X290606Y232071D01*
X290659Y232145D01*
X290719Y232215D01*
X290731Y232245D01*
X290750Y232271D01*
X290777Y232358D01*
X290811Y232443D01*
X290815Y232484D01*
X290822Y232506D01*
X290821Y232538D01*
X290829Y232609D01*
X290829Y244911D01*
X290815Y245001D01*
X290807Y245092D01*
X290795Y245121D01*
X290790Y245153D01*
X290747Y245234D01*
X290711Y245318D01*
X290685Y245350D01*
X290674Y245371D01*
X290651Y245393D01*
X290606Y245449D01*
X289333Y246722D01*
X289333Y251118D01*
X292442Y254227D01*
X296838Y254227D01*
X299520Y251545D01*
X299578Y251503D01*
X299630Y251454D01*
X299677Y251432D01*
X299719Y251402D01*
X299788Y251380D01*
X299853Y251350D01*
X299905Y251345D01*
X299955Y251329D01*
X300026Y251331D01*
X300097Y251323D01*
X300148Y251334D01*
X300200Y251336D01*
X300268Y251360D01*
X300338Y251375D01*
X300383Y251402D01*
X300431Y251420D01*
X300487Y251465D01*
X300549Y251502D01*
X300583Y251541D01*
X300623Y251574D01*
X300662Y251634D01*
X300709Y251689D01*
X300728Y251737D01*
X300756Y251781D01*
X300774Y251850D01*
X300801Y251917D01*
X300809Y251988D01*
X300817Y252019D01*
X300815Y252042D01*
X300819Y252083D01*
X300819Y322912D01*
X311029Y333122D01*
X323971Y333122D01*
X330667Y326426D01*
X333254Y323839D01*
X333270Y323827D01*
X333282Y323811D01*
X333370Y323755D01*
X333454Y323695D01*
X333473Y323689D01*
X333489Y323678D01*
X333590Y323653D01*
X333689Y323623D01*
X333709Y323623D01*
X333728Y323618D01*
X333831Y323626D01*
X333935Y323629D01*
X333953Y323636D01*
X333973Y323638D01*
X334068Y323678D01*
X334166Y323714D01*
X334181Y323726D01*
X334199Y323734D01*
X334330Y323839D01*
X338533Y328042D01*
X341377Y328042D01*
X341377Y318262D01*
X341380Y318242D01*
X341378Y318223D01*
X341400Y318121D01*
X341417Y318019D01*
X341426Y318002D01*
X341430Y317982D01*
X341483Y317893D01*
X341532Y317802D01*
X341546Y317788D01*
X341556Y317771D01*
X341635Y317704D01*
X341710Y317633D01*
X341728Y317624D01*
X341743Y317611D01*
X341839Y317573D01*
X341933Y317529D01*
X341953Y317527D01*
X341971Y317519D01*
X342138Y317501D01*
X342901Y317501D01*
X342901Y317499D01*
X342138Y317499D01*
X342118Y317496D01*
X342099Y317498D01*
X341997Y317476D01*
X341895Y317459D01*
X341878Y317450D01*
X341858Y317446D01*
X341769Y317393D01*
X341678Y317344D01*
X341664Y317330D01*
X341647Y317320D01*
X341580Y317241D01*
X341509Y317166D01*
X341500Y317148D01*
X341487Y317133D01*
X341448Y317037D01*
X341405Y316943D01*
X341403Y316923D01*
X341395Y316905D01*
X341377Y316738D01*
X341377Y306958D01*
X338533Y306958D01*
X334421Y311071D01*
X334363Y311112D01*
X334311Y311162D01*
X334264Y311184D01*
X334222Y311214D01*
X334153Y311235D01*
X334088Y311265D01*
X334036Y311271D01*
X333986Y311286D01*
X333915Y311285D01*
X333844Y311292D01*
X333793Y311281D01*
X333741Y311280D01*
X333673Y311255D01*
X333603Y311240D01*
X333558Y311213D01*
X333510Y311196D01*
X333454Y311151D01*
X333392Y311114D01*
X333358Y311074D01*
X333318Y311042D01*
X333279Y310982D01*
X333232Y310927D01*
X333213Y310879D01*
X333185Y310835D01*
X333167Y310766D01*
X333140Y310699D01*
X333132Y310628D01*
X333124Y310596D01*
X333126Y310573D01*
X333122Y310532D01*
X333122Y279352D01*
X333125Y279332D01*
X333123Y279313D01*
X333145Y279211D01*
X333161Y279109D01*
X333171Y279092D01*
X333175Y279072D01*
X333228Y278983D01*
X333277Y278892D01*
X333291Y278878D01*
X333301Y278861D01*
X333380Y278794D01*
X333455Y278722D01*
X333473Y278714D01*
X333488Y278701D01*
X333584Y278662D01*
X333678Y278619D01*
X333698Y278617D01*
X333716Y278609D01*
X333883Y278591D01*
X341652Y278591D01*
X343141Y277102D01*
X343141Y274168D01*
X343152Y274097D01*
X343154Y274025D01*
X343172Y273976D01*
X343180Y273925D01*
X343214Y273862D01*
X343239Y273794D01*
X343271Y273754D01*
X343296Y273708D01*
X343347Y273658D01*
X343392Y273602D01*
X343436Y273574D01*
X343474Y273538D01*
X343539Y273508D01*
X343599Y273469D01*
X343650Y273457D01*
X343697Y273435D01*
X343768Y273427D01*
X343838Y273409D01*
X343890Y273413D01*
X343941Y273408D01*
X344012Y273423D01*
X344083Y273428D01*
X344131Y273449D01*
X344182Y273460D01*
X344243Y273497D01*
X344309Y273525D01*
X344365Y273569D01*
X344393Y273586D01*
X344408Y273604D01*
X344440Y273629D01*
X364726Y293915D01*
X364726Y293916D01*
X367182Y296371D01*
X410718Y296371D01*
X413174Y293915D01*
X417425Y289664D01*
X417499Y289611D01*
X417569Y289551D01*
X417599Y289539D01*
X417625Y289520D01*
X417712Y289493D01*
X417797Y289459D01*
X417838Y289455D01*
X417860Y289448D01*
X417892Y289449D01*
X417964Y289441D01*
X429852Y289441D01*
X431262Y288031D01*
X431278Y288020D01*
X431290Y288004D01*
X431378Y287948D01*
X431461Y287888D01*
X431480Y287882D01*
X431497Y287871D01*
X431598Y287846D01*
X431697Y287816D01*
X431716Y287816D01*
X431736Y287811D01*
X431839Y287819D01*
X431942Y287822D01*
X431961Y287829D01*
X431981Y287830D01*
X432076Y287871D01*
X432173Y287906D01*
X432189Y287919D01*
X432207Y287927D01*
X432338Y288031D01*
X433748Y289441D01*
X448852Y289441D01*
X450341Y287952D01*
X450341Y283972D01*
X450344Y283952D01*
X450342Y283933D01*
X450364Y283831D01*
X450380Y283729D01*
X450390Y283712D01*
X450394Y283692D01*
X450447Y283603D01*
X450496Y283512D01*
X450510Y283498D01*
X450520Y283481D01*
X450599Y283414D01*
X450674Y283342D01*
X450692Y283334D01*
X450707Y283321D01*
X450803Y283282D01*
X450897Y283239D01*
X450917Y283237D01*
X450935Y283229D01*
X451102Y283211D01*
X463298Y283211D01*
X463318Y283214D01*
X463337Y283212D01*
X463439Y283234D01*
X463541Y283250D01*
X463558Y283260D01*
X463578Y283264D01*
X463667Y283317D01*
X463758Y283366D01*
X463772Y283380D01*
X463789Y283390D01*
X463856Y283469D01*
X463928Y283544D01*
X463936Y283562D01*
X463949Y283577D01*
X463988Y283673D01*
X464031Y283767D01*
X464033Y283787D01*
X464041Y283805D01*
X464059Y283972D01*
X464059Y287952D01*
X465548Y289441D01*
X474832Y289441D01*
X474903Y289452D01*
X474975Y289454D01*
X475024Y289472D01*
X475075Y289480D01*
X475138Y289514D01*
X475206Y289539D01*
X475246Y289571D01*
X475292Y289596D01*
X475342Y289648D01*
X475398Y289692D01*
X475426Y289736D01*
X475462Y289774D01*
X475492Y289839D01*
X475531Y289899D01*
X475543Y289950D01*
X475565Y289997D01*
X475573Y290068D01*
X475591Y290138D01*
X475587Y290190D01*
X475592Y290241D01*
X475577Y290312D01*
X475572Y290383D01*
X475551Y290431D01*
X475540Y290482D01*
X475503Y290543D01*
X475475Y290609D01*
X475431Y290665D01*
X475414Y290693D01*
X475396Y290708D01*
X475371Y290740D01*
X440689Y325422D01*
X440689Y326191D01*
X440675Y326281D01*
X440667Y326372D01*
X440655Y326401D01*
X440650Y326433D01*
X440607Y326514D01*
X440571Y326598D01*
X440545Y326630D01*
X440534Y326651D01*
X440511Y326673D01*
X440466Y326729D01*
X439193Y328002D01*
X439193Y332398D01*
X442302Y335507D01*
X446698Y335507D01*
X449807Y332398D01*
X449807Y327972D01*
X449802Y327965D01*
X449742Y327881D01*
X449736Y327862D01*
X449725Y327845D01*
X449700Y327745D01*
X449669Y327646D01*
X449670Y327626D01*
X449665Y327606D01*
X449673Y327503D01*
X449676Y327400D01*
X449683Y327381D01*
X449684Y327361D01*
X449725Y327266D01*
X449760Y327169D01*
X449773Y327153D01*
X449780Y327135D01*
X449885Y327004D01*
X482146Y294744D01*
X482219Y294691D01*
X482289Y294631D01*
X482319Y294619D01*
X482345Y294600D01*
X482432Y294573D01*
X482517Y294539D01*
X482558Y294535D01*
X482580Y294528D01*
X482613Y294529D01*
X482684Y294521D01*
X482757Y294521D01*
X487249Y290028D01*
X487260Y289959D01*
X487270Y289942D01*
X487274Y289922D01*
X487327Y289833D01*
X487376Y289742D01*
X487390Y289728D01*
X487400Y289711D01*
X487479Y289644D01*
X487554Y289572D01*
X487572Y289564D01*
X487587Y289551D01*
X487683Y289512D01*
X487777Y289469D01*
X487797Y289467D01*
X487815Y289459D01*
X487982Y289441D01*
X499652Y289441D01*
X501141Y287952D01*
X501141Y270848D01*
X499652Y269359D01*
X484548Y269359D01*
X483138Y270769D01*
X483122Y270780D01*
X483110Y270796D01*
X483022Y270852D01*
X482939Y270912D01*
X482920Y270918D01*
X482903Y270929D01*
X482802Y270954D01*
X482703Y270984D01*
X482684Y270984D01*
X482664Y270989D01*
X482561Y270981D01*
X482458Y270978D01*
X482439Y270971D01*
X482419Y270970D01*
X482324Y270929D01*
X482227Y270894D01*
X482211Y270881D01*
X482193Y270873D01*
X482062Y270769D01*
X480652Y269359D01*
X477672Y269359D01*
X477652Y269356D01*
X477633Y269358D01*
X477531Y269336D01*
X477429Y269320D01*
X477412Y269310D01*
X477392Y269306D01*
X477303Y269253D01*
X477212Y269204D01*
X477198Y269190D01*
X477181Y269180D01*
X477114Y269101D01*
X477042Y269026D01*
X477034Y269008D01*
X477021Y268993D01*
X476982Y268897D01*
X476939Y268803D01*
X476937Y268783D01*
X476929Y268765D01*
X476911Y268598D01*
X476911Y264802D01*
X476914Y264782D01*
X476912Y264763D01*
X476934Y264661D01*
X476950Y264559D01*
X476960Y264542D01*
X476964Y264522D01*
X477017Y264433D01*
X477066Y264342D01*
X477080Y264328D01*
X477090Y264311D01*
X477169Y264244D01*
X477244Y264172D01*
X477262Y264164D01*
X477277Y264151D01*
X477373Y264112D01*
X477467Y264069D01*
X477487Y264067D01*
X477505Y264059D01*
X477672Y264041D01*
X480652Y264041D01*
X482158Y262536D01*
X482253Y262467D01*
X482350Y262396D01*
X482354Y262394D01*
X482357Y262392D01*
X482470Y262357D01*
X482584Y262321D01*
X482588Y262321D01*
X482592Y262320D01*
X482711Y262323D01*
X482830Y262325D01*
X482834Y262326D01*
X482838Y262326D01*
X482950Y262367D01*
X483062Y262406D01*
X483065Y262409D01*
X483069Y262410D01*
X483163Y262485D01*
X483256Y262558D01*
X483259Y262562D01*
X483261Y262564D01*
X483269Y262576D01*
X483355Y262693D01*
X483567Y263060D01*
X484040Y263533D01*
X484619Y263868D01*
X485266Y264041D01*
X490577Y264041D01*
X490577Y254762D01*
X490580Y254742D01*
X490578Y254723D01*
X490600Y254621D01*
X490617Y254519D01*
X490626Y254502D01*
X490630Y254482D01*
X490683Y254393D01*
X490732Y254302D01*
X490746Y254288D01*
X490756Y254271D01*
X490835Y254204D01*
X490910Y254133D01*
X490928Y254124D01*
X490943Y254111D01*
X491039Y254072D01*
X491133Y254029D01*
X491153Y254027D01*
X491171Y254019D01*
X491338Y254001D01*
X492101Y254001D01*
X492101Y253999D01*
X491338Y253999D01*
X491318Y253996D01*
X491299Y253998D01*
X491197Y253976D01*
X491095Y253959D01*
X491078Y253950D01*
X491058Y253946D01*
X490969Y253893D01*
X490878Y253844D01*
X490864Y253830D01*
X490847Y253820D01*
X490780Y253741D01*
X490709Y253666D01*
X490700Y253648D01*
X490687Y253633D01*
X490648Y253537D01*
X490605Y253443D01*
X490603Y253423D01*
X490595Y253405D01*
X490577Y253238D01*
X490577Y243959D01*
X485266Y243959D01*
X484619Y244132D01*
X484040Y244467D01*
X483567Y244940D01*
X483355Y245307D01*
X483279Y245399D01*
X483206Y245492D01*
X483202Y245494D01*
X483199Y245497D01*
X483098Y245561D01*
X482999Y245625D01*
X482995Y245626D01*
X482991Y245628D01*
X482875Y245656D01*
X482760Y245685D01*
X482756Y245684D01*
X482752Y245685D01*
X482633Y245675D01*
X482515Y245666D01*
X482511Y245664D01*
X482507Y245664D01*
X482397Y245616D01*
X482289Y245569D01*
X482285Y245566D01*
X482282Y245565D01*
X482271Y245555D01*
X482158Y245464D01*
X480652Y243959D01*
X465548Y243959D01*
X464059Y245448D01*
X464059Y262552D01*
X465548Y264041D01*
X468528Y264041D01*
X468548Y264044D01*
X468567Y264042D01*
X468669Y264064D01*
X468771Y264080D01*
X468788Y264090D01*
X468808Y264094D01*
X468897Y264147D01*
X468988Y264196D01*
X469002Y264210D01*
X469019Y264220D01*
X469086Y264299D01*
X469158Y264374D01*
X469166Y264392D01*
X469179Y264407D01*
X469218Y264503D01*
X469261Y264597D01*
X469263Y264617D01*
X469271Y264635D01*
X469289Y264802D01*
X469289Y268598D01*
X469286Y268618D01*
X469288Y268637D01*
X469266Y268739D01*
X469250Y268841D01*
X469240Y268858D01*
X469236Y268878D01*
X469183Y268967D01*
X469134Y269058D01*
X469120Y269072D01*
X469110Y269089D01*
X469031Y269156D01*
X468956Y269228D01*
X468938Y269236D01*
X468923Y269249D01*
X468827Y269288D01*
X468733Y269331D01*
X468713Y269333D01*
X468695Y269341D01*
X468528Y269359D01*
X465548Y269359D01*
X464059Y270848D01*
X464059Y274828D01*
X464056Y274848D01*
X464058Y274867D01*
X464036Y274969D01*
X464020Y275071D01*
X464010Y275088D01*
X464006Y275108D01*
X463953Y275197D01*
X463904Y275288D01*
X463890Y275302D01*
X463880Y275319D01*
X463801Y275386D01*
X463726Y275458D01*
X463708Y275466D01*
X463693Y275479D01*
X463597Y275518D01*
X463503Y275561D01*
X463483Y275563D01*
X463465Y275571D01*
X463298Y275589D01*
X451102Y275589D01*
X451082Y275586D01*
X451063Y275588D01*
X450961Y275566D01*
X450859Y275550D01*
X450842Y275540D01*
X450822Y275536D01*
X450733Y275483D01*
X450642Y275434D01*
X450628Y275420D01*
X450611Y275410D01*
X450544Y275331D01*
X450472Y275256D01*
X450464Y275238D01*
X450451Y275223D01*
X450412Y275127D01*
X450369Y275033D01*
X450367Y275013D01*
X450359Y274995D01*
X450341Y274828D01*
X450341Y270848D01*
X448852Y269359D01*
X433556Y269359D01*
X433485Y269348D01*
X433413Y269346D01*
X433364Y269328D01*
X433313Y269320D01*
X433250Y269286D01*
X433182Y269261D01*
X433142Y269229D01*
X433096Y269204D01*
X433046Y269152D01*
X432990Y269108D01*
X432962Y269064D01*
X432926Y269026D01*
X432896Y268961D01*
X432857Y268901D01*
X432845Y268850D01*
X432823Y268803D01*
X432815Y268732D01*
X432797Y268662D01*
X432801Y268610D01*
X432796Y268559D01*
X432811Y268488D01*
X432816Y268417D01*
X432837Y268369D01*
X432848Y268318D01*
X432885Y268257D01*
X432913Y268191D01*
X432958Y268135D01*
X432974Y268107D01*
X432992Y268092D01*
X433018Y268060D01*
X436449Y264628D01*
X436460Y264559D01*
X436470Y264542D01*
X436474Y264522D01*
X436527Y264433D01*
X436576Y264342D01*
X436590Y264328D01*
X436600Y264311D01*
X436679Y264244D01*
X436754Y264172D01*
X436772Y264164D01*
X436787Y264151D01*
X436883Y264112D01*
X436977Y264069D01*
X436997Y264067D01*
X437015Y264059D01*
X437182Y264041D01*
X448852Y264041D01*
X450341Y262552D01*
X450341Y245448D01*
X448852Y243959D01*
X445872Y243959D01*
X445852Y243956D01*
X445833Y243958D01*
X445731Y243936D01*
X445629Y243920D01*
X445612Y243910D01*
X445592Y243906D01*
X445503Y243853D01*
X445412Y243804D01*
X445398Y243790D01*
X445381Y243780D01*
X445314Y243701D01*
X445242Y243626D01*
X445234Y243608D01*
X445221Y243593D01*
X445182Y243497D01*
X445139Y243403D01*
X445137Y243383D01*
X445129Y243365D01*
X445111Y243198D01*
X445111Y239402D01*
X445114Y239382D01*
X445112Y239363D01*
X445134Y239261D01*
X445150Y239159D01*
X445160Y239142D01*
X445164Y239122D01*
X445217Y239033D01*
X445266Y238942D01*
X445280Y238928D01*
X445290Y238911D01*
X445369Y238844D01*
X445444Y238772D01*
X445462Y238764D01*
X445477Y238751D01*
X445573Y238712D01*
X445667Y238669D01*
X445687Y238667D01*
X445705Y238659D01*
X445872Y238641D01*
X448852Y238641D01*
X450341Y237152D01*
X450341Y220048D01*
X448852Y218559D01*
X439568Y218559D01*
X439497Y218548D01*
X439425Y218546D01*
X439376Y218528D01*
X439325Y218520D01*
X439262Y218486D01*
X439194Y218461D01*
X439154Y218429D01*
X439108Y218404D01*
X439058Y218352D01*
X439002Y218308D01*
X438974Y218264D01*
X438938Y218226D01*
X438908Y218161D01*
X438869Y218101D01*
X438857Y218050D01*
X438835Y218003D01*
X438827Y217932D01*
X438809Y217862D01*
X438813Y217810D01*
X438808Y217759D01*
X438823Y217688D01*
X438828Y217617D01*
X438849Y217569D01*
X438860Y217518D01*
X438897Y217457D01*
X438925Y217391D01*
X438969Y217335D01*
X438986Y217307D01*
X439004Y217292D01*
X439029Y217260D01*
X442826Y213464D01*
X442900Y213411D01*
X442969Y213351D01*
X442999Y213339D01*
X443025Y213320D01*
X443112Y213293D01*
X443197Y213259D01*
X443238Y213255D01*
X443260Y213248D01*
X443293Y213249D01*
X443364Y213241D01*
X445636Y213241D01*
X445726Y213255D01*
X445817Y213263D01*
X445847Y213275D01*
X445879Y213280D01*
X445960Y213323D01*
X446044Y213359D01*
X446076Y213385D01*
X446096Y213396D01*
X446119Y213419D01*
X446174Y213464D01*
X463836Y231126D01*
X463889Y231199D01*
X463949Y231269D01*
X463961Y231299D01*
X463980Y231325D01*
X464007Y231412D01*
X464041Y231497D01*
X464045Y231538D01*
X464052Y231560D01*
X464051Y231593D01*
X464059Y231664D01*
X464059Y237152D01*
X465548Y238641D01*
X480652Y238641D01*
X482158Y237136D01*
X482253Y237067D01*
X482350Y236996D01*
X482354Y236994D01*
X482357Y236992D01*
X482470Y236957D01*
X482584Y236921D01*
X482588Y236921D01*
X482592Y236920D01*
X482711Y236923D01*
X482830Y236925D01*
X482834Y236926D01*
X482838Y236926D01*
X482950Y236967D01*
X483062Y237006D01*
X483065Y237009D01*
X483069Y237010D01*
X483163Y237085D01*
X483256Y237158D01*
X483259Y237162D01*
X483261Y237164D01*
X483269Y237176D01*
X483355Y237293D01*
X483567Y237660D01*
X484040Y238133D01*
X484619Y238468D01*
X485266Y238641D01*
X490577Y238641D01*
X490577Y229362D01*
X490580Y229342D01*
X490578Y229323D01*
X490600Y229221D01*
X490617Y229119D01*
X490626Y229102D01*
X490630Y229082D01*
X490683Y228993D01*
X490732Y228902D01*
X490746Y228888D01*
X490756Y228871D01*
X490835Y228804D01*
X490910Y228733D01*
X490928Y228724D01*
X490943Y228711D01*
X491039Y228672D01*
X491133Y228629D01*
X491153Y228627D01*
X491171Y228619D01*
X491338Y228601D01*
X492101Y228601D01*
X492101Y228599D01*
X491338Y228599D01*
X491318Y228596D01*
X491299Y228598D01*
X491197Y228576D01*
X491095Y228559D01*
X491078Y228550D01*
X491058Y228546D01*
X490969Y228493D01*
X490878Y228444D01*
X490864Y228430D01*
X490847Y228420D01*
X490780Y228341D01*
X490709Y228266D01*
X490700Y228248D01*
X490687Y228233D01*
X490648Y228137D01*
X490605Y228043D01*
X490603Y228023D01*
X490595Y228005D01*
X490577Y227838D01*
X490577Y218559D01*
X485266Y218559D01*
X484619Y218732D01*
X484040Y219067D01*
X483567Y219540D01*
X483355Y219907D01*
X483311Y219961D01*
X483290Y219995D01*
X483266Y220016D01*
X483206Y220092D01*
X483202Y220094D01*
X483199Y220097D01*
X483098Y220161D01*
X482999Y220225D01*
X482995Y220226D01*
X482991Y220228D01*
X482875Y220256D01*
X482760Y220285D01*
X482756Y220284D01*
X482752Y220285D01*
X482633Y220275D01*
X482515Y220266D01*
X482511Y220264D01*
X482507Y220264D01*
X482397Y220216D01*
X482289Y220169D01*
X482285Y220166D01*
X482282Y220165D01*
X482271Y220155D01*
X482219Y220113D01*
X482214Y220111D01*
X482209Y220106D01*
X482158Y220064D01*
X480652Y218559D01*
X465548Y218559D01*
X464336Y219771D01*
X464320Y219782D01*
X464308Y219798D01*
X464220Y219854D01*
X464137Y219914D01*
X464118Y219920D01*
X464101Y219931D01*
X464000Y219956D01*
X463902Y219986D01*
X463882Y219986D01*
X463862Y219991D01*
X463759Y219983D01*
X463656Y219980D01*
X463637Y219973D01*
X463617Y219972D01*
X463522Y219931D01*
X463425Y219896D01*
X463409Y219883D01*
X463391Y219875D01*
X463260Y219771D01*
X450564Y207074D01*
X450518Y207010D01*
X450500Y206991D01*
X450496Y206983D01*
X450451Y206931D01*
X450439Y206901D01*
X450420Y206875D01*
X450393Y206788D01*
X450359Y206703D01*
X450355Y206662D01*
X450348Y206640D01*
X450349Y206607D01*
X450341Y206536D01*
X450341Y194648D01*
X448852Y193159D01*
X433748Y193159D01*
X432338Y194569D01*
X432322Y194580D01*
X432310Y194596D01*
X432222Y194652D01*
X432139Y194712D01*
X432120Y194718D01*
X432103Y194729D01*
X432002Y194754D01*
X431903Y194784D01*
X431884Y194784D01*
X431864Y194789D01*
X431761Y194781D01*
X431658Y194778D01*
X431639Y194771D01*
X431619Y194770D01*
X431524Y194729D01*
X431427Y194694D01*
X431411Y194681D01*
X431393Y194673D01*
X431262Y194569D01*
X429852Y193159D01*
X426872Y193159D01*
X426852Y193156D01*
X426833Y193158D01*
X426731Y193136D01*
X426629Y193120D01*
X426612Y193110D01*
X426592Y193106D01*
X426503Y193053D01*
X426412Y193004D01*
X426398Y192990D01*
X426381Y192980D01*
X426314Y192901D01*
X426242Y192826D01*
X426234Y192808D01*
X426221Y192793D01*
X426182Y192697D01*
X426139Y192603D01*
X426137Y192583D01*
X426129Y192565D01*
X426111Y192398D01*
X426111Y67153D01*
X426122Y67083D01*
X426124Y67011D01*
X426142Y66962D01*
X426150Y66911D01*
X426184Y66847D01*
X426209Y66780D01*
X426241Y66739D01*
X426266Y66693D01*
X426318Y66644D01*
X426362Y66588D01*
X426406Y66560D01*
X426444Y66524D01*
X426509Y66494D01*
X426569Y66455D01*
X426620Y66442D01*
X426667Y66420D01*
X426738Y66412D01*
X426808Y66395D01*
X426860Y66399D01*
X426911Y66393D01*
X426982Y66408D01*
X427053Y66414D01*
X427101Y66434D01*
X427152Y66445D01*
X427213Y66482D01*
X427279Y66510D01*
X427335Y66555D01*
X427363Y66572D01*
X427378Y66589D01*
X427410Y66615D01*
X429602Y68807D01*
X433998Y68807D01*
X435271Y67534D01*
X435345Y67481D01*
X435415Y67421D01*
X435445Y67409D01*
X435471Y67390D01*
X435558Y67363D01*
X435643Y67329D01*
X435684Y67325D01*
X435706Y67318D01*
X435738Y67319D01*
X435809Y67311D01*
X442606Y67311D01*
X442696Y67325D01*
X442787Y67333D01*
X442817Y67345D01*
X442849Y67350D01*
X442930Y67393D01*
X443014Y67429D01*
X443046Y67455D01*
X443066Y67466D01*
X443089Y67489D01*
X443144Y67534D01*
X464370Y88760D01*
X464423Y88833D01*
X464483Y88903D01*
X464495Y88933D01*
X464514Y88959D01*
X464541Y89046D01*
X464575Y89131D01*
X464579Y89172D01*
X464586Y89194D01*
X464585Y89227D01*
X464593Y89298D01*
X464593Y91098D01*
X467702Y94207D01*
X472098Y94207D01*
X475207Y91098D01*
X475207Y86702D01*
X472098Y83593D01*
X470298Y83593D01*
X470208Y83579D01*
X470117Y83571D01*
X470087Y83559D01*
X470055Y83554D01*
X469974Y83511D01*
X469890Y83475D01*
X469858Y83449D01*
X469838Y83438D01*
X469815Y83415D01*
X469760Y83370D01*
X446078Y59689D01*
X435809Y59689D01*
X435719Y59675D01*
X435628Y59667D01*
X435599Y59655D01*
X435567Y59650D01*
X435486Y59607D01*
X435402Y59571D01*
X435370Y59545D01*
X435349Y59534D01*
X435327Y59511D01*
X435271Y59466D01*
X433998Y58193D01*
X429602Y58193D01*
X427410Y60385D01*
X427352Y60427D01*
X427300Y60476D01*
X427253Y60498D01*
X427211Y60528D01*
X427142Y60550D01*
X427077Y60580D01*
X427025Y60585D01*
X426975Y60601D01*
X426904Y60599D01*
X426833Y60607D01*
X426782Y60596D01*
X426730Y60594D01*
X426662Y60570D01*
X426592Y60555D01*
X426547Y60528D01*
X426499Y60510D01*
X426443Y60465D01*
X426381Y60428D01*
X426347Y60389D01*
X426307Y60356D01*
X426268Y60296D01*
X426221Y60241D01*
X426202Y60193D01*
X426174Y60149D01*
X426156Y60080D01*
X426129Y60013D01*
X426121Y59942D01*
X426113Y59911D01*
X426115Y59888D01*
X426111Y59847D01*
X426111Y54453D01*
X426122Y54383D01*
X426124Y54311D01*
X426142Y54262D01*
X426150Y54211D01*
X426184Y54147D01*
X426209Y54080D01*
X426241Y54039D01*
X426266Y53993D01*
X426318Y53944D01*
X426362Y53888D01*
X426406Y53860D01*
X426444Y53824D01*
X426509Y53794D01*
X426569Y53755D01*
X426620Y53742D01*
X426667Y53720D01*
X426738Y53712D01*
X426808Y53695D01*
X426860Y53699D01*
X426911Y53693D01*
X426982Y53708D01*
X427053Y53714D01*
X427101Y53734D01*
X427152Y53745D01*
X427213Y53782D01*
X427279Y53810D01*
X427335Y53855D01*
X427363Y53872D01*
X427378Y53889D01*
X427410Y53915D01*
X429602Y56107D01*
X433998Y56107D01*
X435271Y54834D01*
X435345Y54781D01*
X435415Y54721D01*
X435445Y54709D01*
X435471Y54690D01*
X435558Y54663D01*
X435643Y54629D01*
X435684Y54625D01*
X435706Y54618D01*
X435738Y54619D01*
X435809Y54611D01*
X468006Y54611D01*
X468096Y54625D01*
X468187Y54633D01*
X468217Y54645D01*
X468249Y54650D01*
X468330Y54693D01*
X468414Y54729D01*
X468446Y54755D01*
X468466Y54766D01*
X468489Y54789D01*
X468544Y54834D01*
X477070Y63360D01*
X477123Y63433D01*
X477183Y63503D01*
X477195Y63533D01*
X477214Y63559D01*
X477241Y63646D01*
X477275Y63731D01*
X477279Y63772D01*
X477286Y63794D01*
X477285Y63827D01*
X477293Y63898D01*
X477293Y65698D01*
X480402Y68807D01*
X484798Y68807D01*
X487907Y65698D01*
X487907Y61302D01*
X484798Y58193D01*
X482998Y58193D01*
X482908Y58179D01*
X482817Y58171D01*
X482787Y58159D01*
X482755Y58154D01*
X482674Y58111D01*
X482590Y58075D01*
X482558Y58049D01*
X482538Y58038D01*
X482515Y58015D01*
X482460Y57970D01*
X474237Y49748D01*
X474225Y49732D01*
X474210Y49719D01*
X474154Y49632D01*
X474093Y49548D01*
X474088Y49529D01*
X474077Y49512D01*
X474052Y49412D01*
X474021Y49313D01*
X474022Y49293D01*
X474017Y49274D01*
X474025Y49171D01*
X474027Y49067D01*
X474034Y49048D01*
X474036Y49029D01*
X474076Y48934D01*
X474112Y48836D01*
X474124Y48820D01*
X474132Y48802D01*
X474237Y48671D01*
X480442Y42467D01*
X480442Y39623D01*
X470662Y39623D01*
X470642Y39620D01*
X470623Y39622D01*
X470521Y39600D01*
X470419Y39583D01*
X470402Y39574D01*
X470382Y39570D01*
X470293Y39517D01*
X470202Y39468D01*
X470188Y39454D01*
X470171Y39444D01*
X470104Y39365D01*
X470033Y39290D01*
X470024Y39272D01*
X470011Y39257D01*
X469973Y39161D01*
X469929Y39067D01*
X469927Y39047D01*
X469919Y39029D01*
X469901Y38862D01*
X469901Y38099D01*
X469899Y38099D01*
X469899Y38862D01*
X469896Y38882D01*
X469898Y38901D01*
X469876Y39003D01*
X469859Y39105D01*
X469850Y39122D01*
X469846Y39142D01*
X469793Y39231D01*
X469744Y39322D01*
X469730Y39336D01*
X469720Y39353D01*
X469641Y39420D01*
X469566Y39491D01*
X469548Y39500D01*
X469533Y39513D01*
X469437Y39552D01*
X469343Y39595D01*
X469323Y39597D01*
X469305Y39605D01*
X469138Y39623D01*
X459358Y39623D01*
X459358Y42467D01*
X462582Y45690D01*
X462623Y45748D01*
X462673Y45800D01*
X462695Y45847D01*
X462725Y45889D01*
X462746Y45958D01*
X462776Y46023D01*
X462782Y46075D01*
X462797Y46125D01*
X462796Y46196D01*
X462803Y46267D01*
X462792Y46318D01*
X462791Y46370D01*
X462766Y46438D01*
X462751Y46508D01*
X462724Y46553D01*
X462707Y46601D01*
X462662Y46657D01*
X462625Y46719D01*
X462585Y46753D01*
X462553Y46793D01*
X462493Y46832D01*
X462438Y46879D01*
X462390Y46898D01*
X462346Y46926D01*
X462277Y46944D01*
X462210Y46971D01*
X462139Y46979D01*
X462107Y46987D01*
X462084Y46985D01*
X462043Y46989D01*
X452357Y46989D01*
X452286Y46978D01*
X452214Y46976D01*
X452165Y46958D01*
X452114Y46950D01*
X452051Y46916D01*
X451983Y46891D01*
X451943Y46859D01*
X451897Y46834D01*
X451847Y46782D01*
X451791Y46738D01*
X451763Y46694D01*
X451727Y46656D01*
X451697Y46591D01*
X451658Y46531D01*
X451646Y46480D01*
X451624Y46433D01*
X451616Y46362D01*
X451598Y46292D01*
X451602Y46240D01*
X451597Y46189D01*
X451612Y46118D01*
X451617Y46047D01*
X451638Y45999D01*
X451649Y45948D01*
X451686Y45887D01*
X451714Y45821D01*
X451759Y45765D01*
X451775Y45737D01*
X451793Y45722D01*
X451819Y45690D01*
X453437Y44071D01*
X455042Y40197D01*
X455042Y36003D01*
X453437Y32129D01*
X450471Y29163D01*
X446597Y27558D01*
X442403Y27558D01*
X438529Y29163D01*
X435563Y32129D01*
X433958Y36003D01*
X433958Y40197D01*
X435563Y44071D01*
X437181Y45690D01*
X437223Y45748D01*
X437273Y45800D01*
X437295Y45847D01*
X437325Y45889D01*
X437346Y45958D01*
X437376Y46023D01*
X437382Y46075D01*
X437397Y46125D01*
X437396Y46196D01*
X437403Y46267D01*
X437392Y46318D01*
X437391Y46370D01*
X437366Y46438D01*
X437351Y46508D01*
X437324Y46553D01*
X437307Y46601D01*
X437262Y46657D01*
X437225Y46719D01*
X437185Y46753D01*
X437153Y46793D01*
X437093Y46832D01*
X437038Y46879D01*
X436990Y46898D01*
X436946Y46926D01*
X436876Y46944D01*
X436810Y46971D01*
X436739Y46979D01*
X436707Y46987D01*
X436684Y46985D01*
X436643Y46989D01*
X435809Y46989D01*
X435719Y46975D01*
X435628Y46967D01*
X435599Y46955D01*
X435567Y46950D01*
X435486Y46907D01*
X435402Y46871D01*
X435370Y46845D01*
X435349Y46834D01*
X435327Y46811D01*
X435271Y46766D01*
X433998Y45493D01*
X429602Y45493D01*
X427410Y47685D01*
X427352Y47727D01*
X427300Y47776D01*
X427253Y47798D01*
X427211Y47828D01*
X427142Y47850D01*
X427077Y47880D01*
X427025Y47885D01*
X426975Y47901D01*
X426904Y47899D01*
X426833Y47907D01*
X426782Y47896D01*
X426730Y47894D01*
X426662Y47870D01*
X426592Y47855D01*
X426547Y47828D01*
X426499Y47810D01*
X426443Y47765D01*
X426381Y47728D01*
X426347Y47689D01*
X426307Y47656D01*
X426268Y47596D01*
X426221Y47541D01*
X426202Y47493D01*
X426174Y47449D01*
X426156Y47380D01*
X426129Y47313D01*
X426121Y47242D01*
X426113Y47211D01*
X426115Y47188D01*
X426111Y47147D01*
X426111Y24094D01*
X426125Y24004D01*
X426133Y23913D01*
X426145Y23883D01*
X426150Y23851D01*
X426193Y23770D01*
X426229Y23686D01*
X426255Y23654D01*
X426266Y23634D01*
X426289Y23611D01*
X426334Y23556D01*
X431886Y18004D01*
X431959Y17951D01*
X432029Y17891D01*
X432059Y17879D01*
X432085Y17860D01*
X432172Y17833D01*
X432257Y17799D01*
X432298Y17795D01*
X432320Y17788D01*
X432353Y17789D01*
X432424Y17781D01*
X543680Y17781D01*
X543770Y17795D01*
X543861Y17803D01*
X543891Y17815D01*
X543923Y17820D01*
X544004Y17863D01*
X544087Y17899D01*
X544120Y17925D01*
X544140Y17936D01*
X544162Y17959D01*
X544218Y18004D01*
X562896Y36682D01*
X562949Y36755D01*
X563009Y36825D01*
X563021Y36855D01*
X563040Y36881D01*
X563067Y36968D01*
X563101Y37053D01*
X563105Y37094D01*
X563112Y37116D01*
X563111Y37149D01*
X563119Y37220D01*
X563119Y121977D01*
X563108Y122047D01*
X563106Y122119D01*
X563088Y122168D01*
X563080Y122219D01*
X563046Y122283D01*
X563021Y122350D01*
X562989Y122391D01*
X562964Y122437D01*
X562912Y122486D01*
X562868Y122542D01*
X562824Y122570D01*
X562786Y122606D01*
X562721Y122636D01*
X562661Y122675D01*
X562610Y122688D01*
X562563Y122710D01*
X562492Y122718D01*
X562422Y122735D01*
X562370Y122731D01*
X562319Y122737D01*
X562248Y122722D01*
X562177Y122716D01*
X562129Y122696D01*
X562078Y122685D01*
X562017Y122648D01*
X561951Y122620D01*
X561895Y122575D01*
X561867Y122558D01*
X561852Y122541D01*
X561820Y122515D01*
X560998Y121693D01*
X556602Y121693D01*
X553493Y124802D01*
X553493Y126602D01*
X553479Y126692D01*
X553471Y126783D01*
X553459Y126813D01*
X553454Y126845D01*
X553411Y126926D01*
X553375Y127010D01*
X553349Y127042D01*
X553338Y127062D01*
X553315Y127085D01*
X553270Y127140D01*
X538162Y142249D01*
X538104Y142290D01*
X538052Y142340D01*
X538005Y142362D01*
X537962Y142392D01*
X537894Y142413D01*
X537829Y142443D01*
X537777Y142449D01*
X537727Y142465D01*
X537656Y142463D01*
X537584Y142471D01*
X537534Y142460D01*
X537481Y142458D01*
X537414Y142434D01*
X537344Y142418D01*
X537299Y142392D01*
X537250Y142374D01*
X537194Y142329D01*
X537133Y142292D01*
X537099Y142253D01*
X537058Y142220D01*
X537020Y142160D01*
X536973Y142105D01*
X536954Y142057D01*
X536925Y142013D01*
X536908Y141944D01*
X536881Y141877D01*
X536873Y141806D01*
X536865Y141775D01*
X536867Y141751D01*
X536863Y141710D01*
X536863Y105261D01*
X536877Y105171D01*
X536884Y105080D01*
X536897Y105051D01*
X536902Y105019D01*
X536945Y104938D01*
X536981Y104854D01*
X537007Y104822D01*
X537017Y104801D01*
X537041Y104779D01*
X537086Y104723D01*
X538359Y103450D01*
X538359Y99054D01*
X535250Y95945D01*
X530854Y95945D01*
X527745Y99054D01*
X527745Y103450D01*
X529018Y104723D01*
X529071Y104797D01*
X529131Y104866D01*
X529143Y104897D01*
X529162Y104923D01*
X529189Y105010D01*
X529223Y105095D01*
X529227Y105136D01*
X529234Y105158D01*
X529233Y105190D01*
X529241Y105261D01*
X529241Y166954D01*
X529226Y167045D01*
X529219Y167135D01*
X529207Y167165D01*
X529201Y167197D01*
X529159Y167278D01*
X529123Y167362D01*
X529097Y167394D01*
X529086Y167415D01*
X529063Y167437D01*
X529040Y167465D01*
X529038Y167469D01*
X529035Y167471D01*
X529018Y167493D01*
X525469Y171042D01*
X525468Y171043D01*
X523013Y173498D01*
X523013Y220582D01*
X522999Y220672D01*
X522991Y220763D01*
X522979Y220793D01*
X522974Y220825D01*
X522931Y220906D01*
X522895Y220990D01*
X522869Y221022D01*
X522858Y221042D01*
X522835Y221065D01*
X522790Y221120D01*
X514606Y229305D01*
X514548Y229346D01*
X514496Y229396D01*
X514449Y229418D01*
X514407Y229448D01*
X514338Y229469D01*
X514273Y229499D01*
X514221Y229505D01*
X514171Y229520D01*
X514100Y229519D01*
X514029Y229526D01*
X513978Y229515D01*
X513926Y229514D01*
X513858Y229489D01*
X513788Y229474D01*
X513743Y229448D01*
X513695Y229430D01*
X513639Y229385D01*
X513577Y229348D01*
X513543Y229308D01*
X513503Y229276D01*
X513464Y229216D01*
X513417Y229161D01*
X513398Y229113D01*
X513370Y229069D01*
X513352Y229000D01*
X513325Y228933D01*
X513317Y228862D01*
X513309Y228830D01*
X513311Y228807D01*
X513307Y228766D01*
X513307Y226402D01*
X512034Y225129D01*
X511981Y225055D01*
X511921Y224985D01*
X511909Y224955D01*
X511890Y224929D01*
X511863Y224842D01*
X511829Y224757D01*
X511825Y224716D01*
X511818Y224694D01*
X511819Y224662D01*
X511811Y224591D01*
X511811Y185184D01*
X511826Y185093D01*
X511833Y185003D01*
X511845Y184973D01*
X511850Y184941D01*
X511893Y184860D01*
X511929Y184776D01*
X511955Y184744D01*
X511966Y184724D01*
X511989Y184701D01*
X512034Y184645D01*
X514577Y182102D01*
X514577Y173498D01*
X508224Y167145D01*
X508171Y167071D01*
X508111Y167001D01*
X508099Y166971D01*
X508080Y166945D01*
X508053Y166858D01*
X508019Y166773D01*
X508015Y166732D01*
X508008Y166710D01*
X508009Y166678D01*
X508001Y166606D01*
X508001Y132279D01*
X508015Y132189D01*
X508023Y132098D01*
X508035Y132069D01*
X508040Y132037D01*
X508083Y131956D01*
X508119Y131872D01*
X508145Y131840D01*
X508156Y131819D01*
X508179Y131797D01*
X508224Y131741D01*
X509497Y130468D01*
X509497Y126072D01*
X506388Y122963D01*
X501992Y122963D01*
X498883Y126072D01*
X498883Y130468D01*
X500156Y131741D01*
X500209Y131815D01*
X500269Y131885D01*
X500281Y131915D01*
X500300Y131941D01*
X500327Y132028D01*
X500361Y132113D01*
X500365Y132154D01*
X500372Y132176D01*
X500371Y132208D01*
X500379Y132279D01*
X500379Y170079D01*
X501855Y171554D01*
X501866Y171570D01*
X501882Y171583D01*
X501938Y171670D01*
X501998Y171754D01*
X502004Y171773D01*
X502015Y171790D01*
X502040Y171890D01*
X502071Y171989D01*
X502070Y172009D01*
X502075Y172028D01*
X502067Y172131D01*
X502064Y172235D01*
X502057Y172253D01*
X502056Y172273D01*
X502015Y172368D01*
X501980Y172466D01*
X501967Y172481D01*
X501959Y172500D01*
X501855Y172631D01*
X500719Y173766D01*
X500645Y173819D01*
X500575Y173879D01*
X500545Y173891D01*
X500519Y173910D01*
X500432Y173937D01*
X500347Y173971D01*
X500306Y173975D01*
X500284Y173982D01*
X500252Y173981D01*
X500181Y173989D01*
X468829Y173989D01*
X468739Y173975D01*
X468648Y173967D01*
X468619Y173955D01*
X468587Y173950D01*
X468506Y173907D01*
X468422Y173871D01*
X468390Y173845D01*
X468369Y173834D01*
X468347Y173811D01*
X468291Y173766D01*
X467018Y172493D01*
X462622Y172493D01*
X459513Y175602D01*
X459513Y179998D01*
X462622Y183107D01*
X467018Y183107D01*
X468291Y181834D01*
X468365Y181781D01*
X468435Y181721D01*
X468465Y181709D01*
X468491Y181690D01*
X468578Y181663D01*
X468663Y181629D01*
X468704Y181625D01*
X468726Y181618D01*
X468758Y181619D01*
X468829Y181611D01*
X500181Y181611D01*
X500271Y181625D01*
X500362Y181633D01*
X500391Y181645D01*
X500423Y181650D01*
X500504Y181693D01*
X500588Y181729D01*
X500620Y181755D01*
X500641Y181766D01*
X500663Y181789D01*
X500719Y181834D01*
X501992Y183107D01*
X503428Y183107D01*
X503448Y183110D01*
X503467Y183108D01*
X503569Y183130D01*
X503671Y183146D01*
X503688Y183156D01*
X503708Y183160D01*
X503797Y183213D01*
X503888Y183262D01*
X503902Y183276D01*
X503919Y183286D01*
X503986Y183365D01*
X504058Y183440D01*
X504066Y183458D01*
X504079Y183473D01*
X504118Y183569D01*
X504161Y183663D01*
X504163Y183683D01*
X504171Y183701D01*
X504189Y183868D01*
X504189Y224591D01*
X504175Y224681D01*
X504167Y224772D01*
X504155Y224801D01*
X504150Y224833D01*
X504107Y224914D01*
X504071Y224998D01*
X504045Y225030D01*
X504034Y225051D01*
X504011Y225073D01*
X503966Y225129D01*
X502693Y226402D01*
X502693Y230798D01*
X505802Y233907D01*
X508166Y233907D01*
X508237Y233918D01*
X508309Y233920D01*
X508358Y233938D01*
X508409Y233946D01*
X508472Y233980D01*
X508540Y234005D01*
X508580Y234037D01*
X508626Y234062D01*
X508676Y234114D01*
X508732Y234158D01*
X508760Y234202D01*
X508796Y234240D01*
X508826Y234305D01*
X508865Y234365D01*
X508877Y234416D01*
X508899Y234463D01*
X508907Y234534D01*
X508925Y234604D01*
X508921Y234656D01*
X508926Y234707D01*
X508911Y234778D01*
X508906Y234849D01*
X508885Y234897D01*
X508874Y234948D01*
X508837Y235009D01*
X508809Y235075D01*
X508765Y235131D01*
X508748Y235159D01*
X508730Y235174D01*
X508705Y235206D01*
X508140Y235770D01*
X508066Y235824D01*
X507997Y235883D01*
X507967Y235895D01*
X507941Y235914D01*
X507854Y235941D01*
X507769Y235975D01*
X507728Y235979D01*
X507706Y235986D01*
X507673Y235985D01*
X507602Y235993D01*
X505802Y235993D01*
X502693Y239102D01*
X502693Y243498D01*
X505802Y246607D01*
X510198Y246607D01*
X513307Y243498D01*
X513307Y241698D01*
X513321Y241608D01*
X513329Y241517D01*
X513341Y241487D01*
X513346Y241455D01*
X513389Y241374D01*
X513425Y241290D01*
X513451Y241258D01*
X513462Y241238D01*
X513485Y241215D01*
X513530Y241160D01*
X528179Y226510D01*
X528290Y226400D01*
X528348Y226358D01*
X528400Y226308D01*
X528447Y226286D01*
X528489Y226256D01*
X528558Y226235D01*
X528623Y226205D01*
X528675Y226199D01*
X528724Y226184D01*
X528796Y226185D01*
X528867Y226178D01*
X528918Y226189D01*
X528970Y226190D01*
X529038Y226215D01*
X529108Y226230D01*
X529153Y226256D01*
X529201Y226274D01*
X529257Y226319D01*
X529319Y226356D01*
X529353Y226395D01*
X529393Y226428D01*
X529432Y226488D01*
X529479Y226543D01*
X529498Y226591D01*
X529526Y226635D01*
X529544Y226704D01*
X529571Y226771D01*
X529579Y226842D01*
X529587Y226873D01*
X529585Y226897D01*
X529589Y226938D01*
X529589Y262691D01*
X529575Y262781D01*
X529567Y262872D01*
X529555Y262901D01*
X529550Y262933D01*
X529507Y263014D01*
X529471Y263098D01*
X529445Y263130D01*
X529434Y263151D01*
X529411Y263173D01*
X529366Y263229D01*
X528093Y264502D01*
X528093Y268898D01*
X531202Y272007D01*
X535598Y272007D01*
X538707Y268898D01*
X538707Y264502D01*
X537434Y263229D01*
X537381Y263155D01*
X537321Y263085D01*
X537309Y263055D01*
X537290Y263029D01*
X537263Y262942D01*
X537229Y262857D01*
X537225Y262816D01*
X537218Y262794D01*
X537219Y262762D01*
X537211Y262691D01*
X537211Y177578D01*
X537225Y177488D01*
X537233Y177397D01*
X537245Y177368D01*
X537250Y177336D01*
X537293Y177255D01*
X537329Y177171D01*
X537355Y177139D01*
X537366Y177118D01*
X537389Y177096D01*
X537434Y177040D01*
X541943Y172531D01*
X541943Y149562D01*
X541957Y149472D01*
X541965Y149381D01*
X541977Y149351D01*
X541982Y149319D01*
X542025Y149238D01*
X542061Y149154D01*
X542087Y149122D01*
X542098Y149102D01*
X542121Y149079D01*
X542166Y149024D01*
X558660Y132530D01*
X558733Y132477D01*
X558803Y132417D01*
X558833Y132405D01*
X558859Y132386D01*
X558946Y132359D01*
X559031Y132325D01*
X559072Y132321D01*
X559094Y132314D01*
X559127Y132315D01*
X559198Y132307D01*
X560998Y132307D01*
X561820Y131485D01*
X561878Y131443D01*
X561930Y131394D01*
X561977Y131372D01*
X562019Y131342D01*
X562088Y131320D01*
X562153Y131290D01*
X562205Y131285D01*
X562255Y131269D01*
X562326Y131271D01*
X562397Y131263D01*
X562448Y131274D01*
X562500Y131276D01*
X562568Y131300D01*
X562638Y131315D01*
X562683Y131342D01*
X562731Y131360D01*
X562787Y131405D01*
X562849Y131442D01*
X562883Y131481D01*
X562923Y131514D01*
X562962Y131574D01*
X563009Y131629D01*
X563028Y131677D01*
X563056Y131721D01*
X563074Y131790D01*
X563101Y131857D01*
X563109Y131928D01*
X563117Y131959D01*
X563115Y131982D01*
X563119Y132023D01*
X563119Y174047D01*
X563108Y174117D01*
X563106Y174189D01*
X563088Y174238D01*
X563080Y174289D01*
X563046Y174353D01*
X563021Y174420D01*
X562989Y174461D01*
X562964Y174507D01*
X562912Y174556D01*
X562868Y174612D01*
X562824Y174640D01*
X562786Y174676D01*
X562721Y174706D01*
X562661Y174745D01*
X562610Y174758D01*
X562563Y174780D01*
X562492Y174788D01*
X562422Y174805D01*
X562370Y174801D01*
X562319Y174807D01*
X562248Y174792D01*
X562177Y174786D01*
X562129Y174766D01*
X562078Y174755D01*
X562017Y174718D01*
X561951Y174690D01*
X561895Y174645D01*
X561867Y174628D01*
X561852Y174611D01*
X561820Y174585D01*
X560998Y173763D01*
X556602Y173763D01*
X553493Y176872D01*
X553493Y181268D01*
X554766Y182541D01*
X554819Y182615D01*
X554879Y182685D01*
X554891Y182715D01*
X554910Y182741D01*
X554937Y182828D01*
X554971Y182913D01*
X554975Y182954D01*
X554982Y182976D01*
X554981Y183008D01*
X554989Y183079D01*
X554989Y302906D01*
X554975Y302996D01*
X554967Y303087D01*
X554955Y303117D01*
X554950Y303149D01*
X554907Y303230D01*
X554871Y303314D01*
X554845Y303346D01*
X554834Y303366D01*
X554811Y303389D01*
X554766Y303444D01*
X506644Y351566D01*
X506571Y351619D01*
X506501Y351679D01*
X506471Y351691D01*
X506445Y351710D01*
X506358Y351737D01*
X506273Y351771D01*
X506232Y351775D01*
X506210Y351782D01*
X506177Y351781D01*
X506106Y351789D01*
X392122Y351789D01*
X364489Y379422D01*
X364489Y407978D01*
X366944Y410434D01*
X370501Y413990D01*
X370542Y414048D01*
X370592Y414100D01*
X370614Y414147D01*
X370644Y414189D01*
X370665Y414258D01*
X370695Y414323D01*
X370701Y414375D01*
X370716Y414425D01*
X370715Y414496D01*
X370722Y414567D01*
X370711Y414618D01*
X370710Y414670D01*
X370685Y414738D01*
X370670Y414808D01*
X370644Y414853D01*
X370626Y414901D01*
X370581Y414957D01*
X370544Y415019D01*
X370504Y415053D01*
X370472Y415093D01*
X370412Y415132D01*
X370357Y415179D01*
X370309Y415198D01*
X370265Y415226D01*
X370196Y415244D01*
X370129Y415271D01*
X370058Y415279D01*
X370026Y415287D01*
X370003Y415285D01*
X369962Y415289D01*
X319394Y415289D01*
X319304Y415275D01*
X319213Y415267D01*
X319183Y415255D01*
X319151Y415250D01*
X319070Y415207D01*
X318986Y415171D01*
X318954Y415145D01*
X318934Y415134D01*
X318911Y415111D01*
X318856Y415066D01*
X293678Y389889D01*
X192394Y389889D01*
X192304Y389875D01*
X192213Y389867D01*
X192183Y389855D01*
X192151Y389850D01*
X192070Y389807D01*
X191986Y389771D01*
X191954Y389745D01*
X191934Y389734D01*
X191911Y389711D01*
X191856Y389666D01*
X166678Y364489D01*
X131009Y364489D01*
X130919Y364475D01*
X130828Y364467D01*
X130799Y364455D01*
X130767Y364450D01*
X130686Y364407D01*
X130602Y364371D01*
X130570Y364345D01*
X130549Y364334D01*
X130527Y364311D01*
X130471Y364266D01*
X129198Y362993D01*
X124802Y362993D01*
X121693Y366102D01*
X121693Y370498D01*
X124802Y373607D01*
X129198Y373607D01*
X130471Y372334D01*
X130545Y372281D01*
X130615Y372221D01*
X130645Y372209D01*
X130671Y372190D01*
X130758Y372163D01*
X130843Y372129D01*
X130884Y372125D01*
X130906Y372118D01*
X130938Y372119D01*
X131009Y372111D01*
X163206Y372111D01*
X163296Y372125D01*
X163387Y372133D01*
X163417Y372145D01*
X163449Y372150D01*
X163530Y372193D01*
X163614Y372229D01*
X163646Y372255D01*
X163666Y372266D01*
X163689Y372289D01*
X163744Y372334D01*
X188922Y397511D01*
X290206Y397511D01*
X290296Y397525D01*
X290387Y397533D01*
X290417Y397545D01*
X290449Y397550D01*
X290530Y397593D01*
X290614Y397629D01*
X290646Y397655D01*
X290666Y397666D01*
X290689Y397689D01*
X290744Y397734D01*
X315922Y422911D01*
X376991Y422911D01*
X377081Y422925D01*
X377172Y422933D01*
X377201Y422945D01*
X377233Y422950D01*
X377314Y422993D01*
X377398Y423029D01*
X377430Y423055D01*
X377451Y423066D01*
X377473Y423089D01*
X377529Y423134D01*
X378802Y424407D01*
X383198Y424407D01*
X386307Y421298D01*
X386307Y416902D01*
X383198Y413793D01*
X381398Y413793D01*
X381308Y413779D01*
X381217Y413771D01*
X381187Y413759D01*
X381155Y413754D01*
X381074Y413711D01*
X380990Y413675D01*
X380958Y413649D01*
X380938Y413638D01*
X380915Y413615D01*
X380860Y413570D01*
X372334Y405044D01*
X372281Y404971D01*
X372221Y404901D01*
X372209Y404871D01*
X372190Y404845D01*
X372163Y404758D01*
X372129Y404673D01*
X372125Y404632D01*
X372118Y404610D01*
X372119Y404577D01*
X372111Y404506D01*
X372111Y382894D01*
X372125Y382804D01*
X372133Y382713D01*
X372145Y382683D01*
X372150Y382651D01*
X372193Y382570D01*
X372229Y382486D01*
X372255Y382454D01*
X372266Y382434D01*
X372289Y382411D01*
X372334Y382356D01*
X395056Y359634D01*
X395129Y359581D01*
X395199Y359521D01*
X395229Y359509D01*
X395255Y359490D01*
X395342Y359463D01*
X395427Y359429D01*
X395468Y359425D01*
X395490Y359418D01*
X395523Y359419D01*
X395594Y359411D01*
X509578Y359411D01*
X560156Y308834D01*
X561820Y307169D01*
X561878Y307128D01*
X561930Y307078D01*
X561977Y307056D01*
X562019Y307026D01*
X562088Y307005D01*
X562153Y306975D01*
X562205Y306969D01*
X562255Y306954D01*
X562326Y306955D01*
X562397Y306948D01*
X562448Y306959D01*
X562500Y306960D01*
X562568Y306985D01*
X562638Y307000D01*
X562683Y307026D01*
X562731Y307044D01*
X562787Y307089D01*
X562849Y307126D01*
X562883Y307166D01*
X562923Y307198D01*
X562962Y307258D01*
X563009Y307313D01*
X563028Y307361D01*
X563056Y307405D01*
X563074Y307474D01*
X563101Y307541D01*
X563109Y307612D01*
X563117Y307644D01*
X563115Y307667D01*
X563119Y307708D01*
X563119Y597780D01*
X563105Y597870D01*
X563097Y597961D01*
X563085Y597991D01*
X563080Y598023D01*
X563037Y598104D01*
X563001Y598187D01*
X562975Y598220D01*
X562964Y598240D01*
X562941Y598262D01*
X562896Y598318D01*
X560093Y601121D01*
X560020Y601174D01*
X559950Y601234D01*
X559920Y601246D01*
X559894Y601265D01*
X559807Y601292D01*
X559722Y601326D01*
X559681Y601330D01*
X559659Y601337D01*
X559626Y601336D01*
X559555Y601344D01*
X275696Y601344D01*
X275605Y601330D01*
X275515Y601322D01*
X275485Y601310D01*
X275453Y601305D01*
X275372Y601262D01*
X275288Y601226D01*
X275256Y601200D01*
X275235Y601189D01*
X275213Y601166D01*
X275157Y601121D01*
X227755Y553719D01*
X225714Y553719D01*
X225600Y553700D01*
X225483Y553683D01*
X225478Y553681D01*
X225472Y553680D01*
X225369Y553625D01*
X225264Y553572D01*
X225260Y553567D01*
X225254Y553564D01*
X225174Y553480D01*
X225092Y553396D01*
X225088Y553390D01*
X225085Y553386D01*
X225077Y553369D01*
X225011Y553249D01*
X224837Y552829D01*
X221871Y549863D01*
X217997Y548258D01*
X213803Y548258D01*
X209929Y549863D01*
X206963Y552829D01*
X205358Y556703D01*
X205358Y560897D01*
X206963Y564771D01*
X209929Y567737D01*
X213803Y569342D01*
X217997Y569342D01*
X221871Y567737D01*
X224099Y565510D01*
X224115Y565498D01*
X224127Y565482D01*
X224214Y565426D01*
X224298Y565366D01*
X224317Y565360D01*
X224334Y565349D01*
X224435Y565324D01*
X224533Y565294D01*
X224553Y565294D01*
X224573Y565289D01*
X224676Y565297D01*
X224779Y565300D01*
X224798Y565307D01*
X224818Y565309D01*
X224913Y565349D01*
X225010Y565385D01*
X225026Y565397D01*
X225044Y565405D01*
X225175Y565510D01*
X267330Y607665D01*
X267372Y607723D01*
X267421Y607775D01*
X267443Y607822D01*
X267474Y607864D01*
X267495Y607933D01*
X267525Y607998D01*
X267531Y608050D01*
X267546Y608100D01*
X267544Y608171D01*
X267552Y608242D01*
X267541Y608293D01*
X267540Y608345D01*
X267515Y608413D01*
X267500Y608483D01*
X267473Y608527D01*
X267455Y608576D01*
X267410Y608632D01*
X267374Y608694D01*
X267334Y608728D01*
X267302Y608768D01*
X267241Y608807D01*
X267187Y608854D01*
X267138Y608873D01*
X267095Y608901D01*
X267025Y608919D01*
X266959Y608946D01*
X266887Y608954D01*
X266856Y608962D01*
X266833Y608960D01*
X266792Y608964D01*
X261176Y608964D01*
X253364Y616776D01*
X253364Y627824D01*
X261176Y635636D01*
X272224Y635636D01*
X280036Y627824D01*
X280036Y616776D01*
X276065Y612805D01*
X276023Y612747D01*
X275974Y612695D01*
X275952Y612648D01*
X275921Y612606D01*
X275900Y612537D01*
X275870Y612472D01*
X275864Y612420D01*
X275849Y612370D01*
X275851Y612299D01*
X275843Y612228D01*
X275854Y612177D01*
X275855Y612125D01*
X275880Y612057D01*
X275895Y611987D01*
X275922Y611942D01*
X275940Y611894D01*
X275985Y611838D01*
X276021Y611776D01*
X276061Y611742D01*
X276093Y611702D01*
X276154Y611663D01*
X276208Y611616D01*
X276257Y611597D01*
X276300Y611569D01*
X276370Y611551D01*
X276436Y611524D01*
X276508Y611516D01*
X276539Y611508D01*
X276562Y611510D01*
X276603Y611506D01*
X307597Y611506D01*
X307668Y611517D01*
X307739Y611519D01*
X307788Y611537D01*
X307840Y611545D01*
X307903Y611579D01*
X307970Y611604D01*
X308011Y611636D01*
X308057Y611661D01*
X308106Y611713D01*
X308162Y611757D01*
X308191Y611801D01*
X308226Y611839D01*
X308257Y611904D01*
X308295Y611964D01*
X308308Y612015D01*
X308330Y612062D01*
X308338Y612133D01*
X308355Y612203D01*
X308351Y612255D01*
X308357Y612306D01*
X308342Y612377D01*
X308336Y612448D01*
X308316Y612496D01*
X308305Y612547D01*
X308268Y612608D01*
X308240Y612674D01*
X308195Y612730D01*
X308179Y612758D01*
X308161Y612773D01*
X308135Y612805D01*
X304164Y616776D01*
X304164Y620777D01*
X316738Y620777D01*
X316758Y620780D01*
X316777Y620778D01*
X316879Y620800D01*
X316981Y620817D01*
X316998Y620826D01*
X317018Y620830D01*
X317107Y620883D01*
X317198Y620932D01*
X317212Y620946D01*
X317229Y620956D01*
X317296Y621035D01*
X317367Y621110D01*
X317376Y621128D01*
X317389Y621143D01*
X317427Y621239D01*
X317471Y621333D01*
X317473Y621353D01*
X317481Y621371D01*
X317499Y621538D01*
X317499Y622301D01*
X317501Y622301D01*
X317501Y621538D01*
X317504Y621518D01*
X317502Y621499D01*
X317524Y621397D01*
X317541Y621295D01*
X317550Y621278D01*
X317554Y621258D01*
X317607Y621169D01*
X317656Y621078D01*
X317670Y621064D01*
X317680Y621047D01*
X317759Y620980D01*
X317834Y620909D01*
X317852Y620900D01*
X317867Y620887D01*
X317963Y620848D01*
X318057Y620805D01*
X318077Y620803D01*
X318095Y620795D01*
X318262Y620777D01*
X330836Y620777D01*
X330836Y616776D01*
X326865Y612805D01*
X326823Y612747D01*
X326774Y612695D01*
X326752Y612648D01*
X326721Y612606D01*
X326700Y612537D01*
X326670Y612472D01*
X326664Y612420D01*
X326649Y612370D01*
X326651Y612299D01*
X326643Y612228D01*
X326654Y612177D01*
X326655Y612125D01*
X326680Y612057D01*
X326695Y611987D01*
X326722Y611942D01*
X326740Y611894D01*
X326785Y611838D01*
X326821Y611776D01*
X326861Y611742D01*
X326893Y611702D01*
X326954Y611663D01*
X327008Y611616D01*
X327057Y611597D01*
X327100Y611569D01*
X327170Y611551D01*
X327236Y611524D01*
X327308Y611516D01*
X327339Y611508D01*
X327362Y611510D01*
X327403Y611506D01*
X358397Y611506D01*
X358468Y611517D01*
X358539Y611519D01*
X358588Y611537D01*
X358640Y611545D01*
X358703Y611579D01*
X358770Y611604D01*
X358811Y611636D01*
X358857Y611661D01*
X358906Y611713D01*
X358962Y611757D01*
X358991Y611801D01*
X359026Y611839D01*
X359057Y611904D01*
X359095Y611964D01*
X359108Y612015D01*
X359130Y612062D01*
X359138Y612133D01*
X359155Y612203D01*
X359151Y612255D01*
X359157Y612306D01*
X359142Y612377D01*
X359136Y612448D01*
X359116Y612496D01*
X359105Y612547D01*
X359068Y612608D01*
X359040Y612674D01*
X358995Y612730D01*
X358979Y612758D01*
X358961Y612773D01*
X358935Y612805D01*
X354964Y616776D01*
X354964Y620777D01*
X367538Y620777D01*
X367558Y620780D01*
X367577Y620778D01*
X367679Y620800D01*
X367781Y620817D01*
X367798Y620826D01*
X367818Y620830D01*
X367907Y620883D01*
X367998Y620932D01*
X368012Y620946D01*
X368029Y620956D01*
X368096Y621035D01*
X368167Y621110D01*
X368176Y621128D01*
X368189Y621143D01*
X368227Y621239D01*
X368271Y621333D01*
X368273Y621353D01*
X368281Y621371D01*
X368299Y621538D01*
X368299Y622301D01*
X368301Y622301D01*
X368301Y621538D01*
X368304Y621518D01*
X368302Y621499D01*
X368324Y621397D01*
X368341Y621295D01*
X368350Y621278D01*
X368354Y621258D01*
X368407Y621169D01*
X368456Y621078D01*
X368470Y621064D01*
X368480Y621047D01*
X368559Y620980D01*
X368634Y620909D01*
X368652Y620900D01*
X368667Y620887D01*
X368763Y620848D01*
X368857Y620805D01*
X368877Y620803D01*
X368895Y620795D01*
X369062Y620777D01*
X381636Y620777D01*
X381636Y616776D01*
X377665Y612805D01*
X377623Y612747D01*
X377574Y612695D01*
X377552Y612648D01*
X377521Y612606D01*
X377500Y612537D01*
X377470Y612472D01*
X377464Y612420D01*
X377449Y612370D01*
X377451Y612299D01*
X377443Y612228D01*
X377454Y612177D01*
X377455Y612125D01*
X377480Y612057D01*
X377495Y611987D01*
X377522Y611942D01*
X377540Y611894D01*
X377585Y611838D01*
X377621Y611776D01*
X377661Y611742D01*
X377693Y611702D01*
X377754Y611663D01*
X377808Y611616D01*
X377857Y611597D01*
X377900Y611569D01*
X377970Y611551D01*
X378036Y611524D01*
X378108Y611516D01*
X378139Y611508D01*
X378162Y611510D01*
X378203Y611506D01*
X564080Y611506D01*
X569440Y606145D01*
X569498Y606104D01*
X569550Y606054D01*
X569597Y606032D01*
X569639Y606002D01*
X569708Y605981D01*
X569773Y605951D01*
X569825Y605945D01*
X569875Y605930D01*
X569946Y605931D01*
X570017Y605924D01*
X570068Y605935D01*
X570120Y605936D01*
X570188Y605961D01*
X570258Y605976D01*
X570303Y606003D01*
X570351Y606020D01*
X570407Y606065D01*
X570469Y606102D01*
X570503Y606142D01*
X570543Y606174D01*
X570582Y606234D01*
X570629Y606289D01*
X570648Y606337D01*
X570676Y606381D01*
X570694Y606450D01*
X570721Y606517D01*
X570729Y606588D01*
X570737Y606620D01*
X570735Y606643D01*
X570739Y606684D01*
X570739Y638200D01*
X570737Y638216D01*
X570738Y638231D01*
X570736Y638240D01*
X570737Y638260D01*
X570599Y640008D01*
X570598Y640014D01*
X570598Y640020D01*
X570564Y640184D01*
X569484Y643510D01*
X569467Y643542D01*
X569459Y643576D01*
X569376Y643722D01*
X567320Y646551D01*
X567294Y646577D01*
X567276Y646607D01*
X567151Y646720D01*
X564322Y648776D01*
X564290Y648792D01*
X564263Y648815D01*
X564110Y648884D01*
X560784Y649964D01*
X560778Y649965D01*
X560773Y649968D01*
X560761Y649970D01*
X560754Y649974D01*
X560729Y649976D01*
X560608Y649999D01*
X558860Y650137D01*
X558838Y650135D01*
X558800Y650139D01*
X549092Y650139D01*
X549021Y650128D01*
X548949Y650126D01*
X548900Y650108D01*
X548849Y650100D01*
X548786Y650066D01*
X548718Y650041D01*
X548678Y650009D01*
X548632Y649984D01*
X548582Y649933D01*
X548526Y649888D01*
X548498Y649844D01*
X548462Y649806D01*
X548432Y649741D01*
X548393Y649681D01*
X548380Y649630D01*
X548359Y649583D01*
X548351Y649512D01*
X548333Y649442D01*
X548337Y649390D01*
X548331Y649339D01*
X548347Y649268D01*
X548352Y649197D01*
X548373Y649149D01*
X548384Y649098D01*
X548421Y649037D01*
X548449Y648971D01*
X548493Y648915D01*
X548510Y648887D01*
X548528Y648872D01*
X548553Y648840D01*
X548641Y648752D01*
X548641Y621248D01*
X547152Y619759D01*
X519648Y619759D01*
X518159Y621248D01*
X518159Y648752D01*
X518247Y648840D01*
X518288Y648898D01*
X518338Y648950D01*
X518360Y648997D01*
X518390Y649039D01*
X518411Y649108D01*
X518441Y649173D01*
X518447Y649225D01*
X518463Y649275D01*
X518461Y649346D01*
X518469Y649417D01*
X518457Y649468D01*
X518456Y649520D01*
X518432Y649588D01*
X518416Y649658D01*
X518390Y649703D01*
X518372Y649751D01*
X518327Y649807D01*
X518290Y649869D01*
X518251Y649903D01*
X518218Y649943D01*
X518158Y649982D01*
X518103Y650029D01*
X518055Y650048D01*
X518011Y650076D01*
X517942Y650094D01*
X517875Y650121D01*
X517804Y650129D01*
X517773Y650137D01*
X517749Y650135D01*
X517708Y650139D01*
X489629Y650139D01*
X489562Y650128D01*
X489494Y650127D01*
X489441Y650109D01*
X489386Y650100D01*
X489326Y650068D01*
X489262Y650045D01*
X489218Y650011D01*
X489169Y649984D01*
X489122Y649935D01*
X489069Y649893D01*
X489038Y649847D01*
X488999Y649806D01*
X488971Y649744D01*
X488934Y649688D01*
X488919Y649634D01*
X488896Y649583D01*
X488888Y649516D01*
X488871Y649450D01*
X488875Y649394D01*
X488869Y649339D01*
X488883Y649272D01*
X488888Y649205D01*
X488909Y649153D01*
X488921Y649098D01*
X488956Y649040D01*
X488982Y648977D01*
X489018Y648935D01*
X489047Y648887D01*
X489099Y648843D01*
X489143Y648792D01*
X489209Y648749D01*
X489234Y648727D01*
X489254Y648719D01*
X489283Y648700D01*
X490588Y648035D01*
X492529Y646625D01*
X494225Y644929D01*
X495635Y642988D01*
X496724Y640850D01*
X497465Y638569D01*
X497789Y636523D01*
X483362Y636523D01*
X483342Y636520D01*
X483323Y636522D01*
X483221Y636500D01*
X483119Y636483D01*
X483102Y636474D01*
X483082Y636470D01*
X482993Y636417D01*
X482902Y636368D01*
X482888Y636354D01*
X482871Y636344D01*
X482804Y636265D01*
X482733Y636190D01*
X482724Y636172D01*
X482711Y636157D01*
X482673Y636061D01*
X482629Y635967D01*
X482627Y635947D01*
X482619Y635929D01*
X482601Y635762D01*
X482601Y634999D01*
X482599Y634999D01*
X482599Y635762D01*
X482596Y635782D01*
X482598Y635801D01*
X482576Y635903D01*
X482559Y636005D01*
X482550Y636022D01*
X482546Y636042D01*
X482493Y636131D01*
X482444Y636222D01*
X482430Y636236D01*
X482420Y636253D01*
X482341Y636320D01*
X482266Y636391D01*
X482248Y636400D01*
X482233Y636413D01*
X482137Y636452D01*
X482043Y636495D01*
X482023Y636497D01*
X482005Y636505D01*
X481838Y636523D01*
X467411Y636523D01*
X467735Y638569D01*
X468476Y640850D01*
X469565Y642988D01*
X470975Y644929D01*
X472671Y646625D01*
X474612Y648035D01*
X475917Y648700D01*
X475971Y648740D01*
X476031Y648772D01*
X476070Y648812D01*
X476115Y648845D01*
X476154Y648901D01*
X476201Y648950D01*
X476224Y649001D01*
X476256Y649047D01*
X476276Y649111D01*
X476304Y649173D01*
X476310Y649229D01*
X476326Y649282D01*
X476324Y649350D01*
X476331Y649417D01*
X476319Y649472D01*
X476317Y649528D01*
X476293Y649592D01*
X476279Y649658D01*
X476250Y649706D01*
X476231Y649758D01*
X476188Y649811D01*
X476153Y649869D01*
X476110Y649905D01*
X476075Y649949D01*
X476017Y649985D01*
X475966Y650029D01*
X475914Y650050D01*
X475867Y650080D01*
X475801Y650095D01*
X475738Y650121D01*
X475659Y650129D01*
X475627Y650137D01*
X475607Y650135D01*
X475571Y650139D01*
X438829Y650139D01*
X438762Y650128D01*
X438694Y650127D01*
X438641Y650109D01*
X438586Y650100D01*
X438526Y650068D01*
X438462Y650045D01*
X438418Y650011D01*
X438369Y649984D01*
X438322Y649935D01*
X438269Y649893D01*
X438238Y649847D01*
X438199Y649806D01*
X438171Y649744D01*
X438134Y649688D01*
X438119Y649634D01*
X438096Y649583D01*
X438088Y649516D01*
X438071Y649450D01*
X438075Y649394D01*
X438069Y649339D01*
X438083Y649272D01*
X438088Y649205D01*
X438109Y649153D01*
X438121Y649098D01*
X438156Y649040D01*
X438182Y648977D01*
X438218Y648935D01*
X438247Y648887D01*
X438299Y648843D01*
X438343Y648792D01*
X438409Y648749D01*
X438434Y648727D01*
X438454Y648719D01*
X438483Y648700D01*
X439788Y648035D01*
X441729Y646625D01*
X443425Y644929D01*
X444835Y642988D01*
X445924Y640850D01*
X446665Y638569D01*
X446989Y636523D01*
X432562Y636523D01*
X432542Y636520D01*
X432523Y636522D01*
X432421Y636500D01*
X432319Y636483D01*
X432302Y636474D01*
X432282Y636470D01*
X432193Y636417D01*
X432102Y636368D01*
X432088Y636354D01*
X432071Y636344D01*
X432004Y636265D01*
X431933Y636190D01*
X431924Y636172D01*
X431911Y636157D01*
X431873Y636061D01*
X431829Y635967D01*
X431827Y635947D01*
X431819Y635929D01*
X431801Y635762D01*
X431801Y634999D01*
X431799Y634999D01*
X431799Y635762D01*
X431796Y635782D01*
X431798Y635801D01*
X431776Y635903D01*
X431759Y636005D01*
X431750Y636022D01*
X431746Y636042D01*
X431693Y636131D01*
X431644Y636222D01*
X431630Y636236D01*
X431620Y636253D01*
X431541Y636320D01*
X431466Y636391D01*
X431448Y636400D01*
X431433Y636413D01*
X431337Y636452D01*
X431243Y636495D01*
X431223Y636497D01*
X431205Y636505D01*
X431038Y636523D01*
X416611Y636523D01*
X416935Y638569D01*
X417676Y640850D01*
X418765Y642988D01*
X420175Y644929D01*
X421871Y646625D01*
X423812Y648035D01*
X425117Y648700D01*
X425171Y648740D01*
X425231Y648772D01*
X425270Y648812D01*
X425315Y648845D01*
X425354Y648901D01*
X425401Y648950D01*
X425424Y649001D01*
X425456Y649047D01*
X425476Y649111D01*
X425504Y649173D01*
X425510Y649229D01*
X425526Y649282D01*
X425524Y649350D01*
X425531Y649417D01*
X425519Y649472D01*
X425517Y649528D01*
X425493Y649592D01*
X425479Y649658D01*
X425450Y649706D01*
X425431Y649758D01*
X425388Y649811D01*
X425353Y649869D01*
X425310Y649905D01*
X425275Y649949D01*
X425217Y649985D01*
X425166Y650029D01*
X425114Y650050D01*
X425067Y650080D01*
X425001Y650095D01*
X424938Y650121D01*
X424859Y650129D01*
X424827Y650137D01*
X424807Y650135D01*
X424771Y650139D01*
X25400Y650139D01*
X25382Y650136D01*
X25350Y650138D01*
X23460Y650014D01*
X23437Y650008D01*
X23313Y649989D01*
X19662Y649011D01*
X19648Y649005D01*
X19633Y649003D01*
X19479Y648935D01*
X16206Y647045D01*
X16194Y647035D01*
X16179Y647029D01*
X16048Y646924D01*
X13376Y644252D01*
X13366Y644239D01*
X13354Y644229D01*
X13255Y644094D01*
X11365Y640821D01*
X11359Y640806D01*
X11350Y640794D01*
X11289Y640638D01*
X10311Y636987D01*
X10308Y636963D01*
X10286Y636840D01*
X10162Y634950D01*
X10164Y634931D01*
X10161Y634900D01*
X10161Y511446D01*
X10172Y511375D01*
X10174Y511303D01*
X10192Y511254D01*
X10200Y511203D01*
X10234Y511140D01*
X10259Y511072D01*
X10291Y511032D01*
X10316Y510986D01*
X10368Y510936D01*
X10412Y510880D01*
X10456Y510852D01*
X10494Y510816D01*
X10559Y510786D01*
X10619Y510747D01*
X10670Y510735D01*
X10717Y510713D01*
X10788Y510705D01*
X10858Y510687D01*
X10910Y510691D01*
X10961Y510686D01*
X11032Y510701D01*
X11103Y510706D01*
X11151Y510727D01*
X11202Y510738D01*
X11263Y510775D01*
X11329Y510803D01*
X11385Y510847D01*
X11413Y510864D01*
X11428Y510882D01*
X11460Y510907D01*
X32570Y532018D01*
X32623Y532091D01*
X32683Y532161D01*
X32695Y532191D01*
X32714Y532217D01*
X32741Y532304D01*
X32775Y532389D01*
X32779Y532430D01*
X32786Y532452D01*
X32785Y532485D01*
X32793Y532556D01*
X32793Y533058D01*
X35902Y536167D01*
X40298Y536167D01*
X43407Y533058D01*
X43407Y528662D01*
X40298Y525553D01*
X37200Y525553D01*
X37110Y525539D01*
X37019Y525531D01*
X36989Y525519D01*
X36957Y525514D01*
X36876Y525471D01*
X36792Y525435D01*
X36760Y525409D01*
X36740Y525398D01*
X36717Y525375D01*
X36715Y525373D01*
X36713Y525372D01*
X36712Y525371D01*
X36662Y525330D01*
X17976Y506644D01*
X17923Y506571D01*
X17863Y506501D01*
X17851Y506471D01*
X17832Y506445D01*
X17805Y506358D01*
X17771Y506273D01*
X17767Y506232D01*
X17760Y506210D01*
X17761Y506177D01*
X17753Y506106D01*
X17753Y38752D01*
X17767Y38662D01*
X17775Y38571D01*
X17787Y38541D01*
X17792Y38509D01*
X17835Y38428D01*
X17871Y38344D01*
X17897Y38312D01*
X17908Y38292D01*
X17931Y38269D01*
X17976Y38214D01*
X39456Y16734D01*
X39529Y16681D01*
X39599Y16621D01*
X39629Y16609D01*
X39655Y16590D01*
X39742Y16563D01*
X39827Y16529D01*
X39868Y16525D01*
X39890Y16518D01*
X39923Y16519D01*
X39994Y16511D01*
X206052Y16511D01*
X206142Y16525D01*
X206233Y16533D01*
X206262Y16545D01*
X206294Y16550D01*
X206375Y16593D01*
X206459Y16629D01*
X206491Y16655D01*
X206512Y16666D01*
X206534Y16689D01*
X206590Y16734D01*
X233672Y43816D01*
X248928Y43816D01*
X250610Y42134D01*
X250684Y42081D01*
X250754Y42021D01*
X250784Y42009D01*
X250810Y41990D01*
X250897Y41963D01*
X250982Y41929D01*
X251023Y41925D01*
X251045Y41918D01*
X251077Y41919D01*
X251148Y41911D01*
X268278Y41911D01*
X272127Y38063D01*
X272143Y38051D01*
X272155Y38035D01*
X272242Y37979D01*
X272326Y37919D01*
X272345Y37913D01*
X272362Y37902D01*
X272462Y37877D01*
X272561Y37847D01*
X272581Y37847D01*
X272601Y37842D01*
X272704Y37850D01*
X272807Y37853D01*
X272826Y37860D01*
X272846Y37862D01*
X272941Y37902D01*
X273038Y37938D01*
X273054Y37950D01*
X273072Y37958D01*
X273203Y38063D01*
X273876Y38736D01*
X284924Y38736D01*
X292736Y30924D01*
X292736Y19876D01*
X284924Y12064D01*
X273876Y12064D01*
X266064Y19876D01*
X266064Y30924D01*
X266737Y31597D01*
X266749Y31613D01*
X266765Y31626D01*
X266821Y31713D01*
X266881Y31797D01*
X266887Y31816D01*
X266898Y31832D01*
X266923Y31933D01*
X266953Y32032D01*
X266953Y32052D01*
X266958Y32071D01*
X266950Y32174D01*
X266947Y32278D01*
X266940Y32296D01*
X266938Y32316D01*
X266898Y32411D01*
X266862Y32509D01*
X266850Y32524D01*
X266842Y32543D01*
X266737Y32673D01*
X265344Y34066D01*
X265270Y34119D01*
X265201Y34179D01*
X265171Y34191D01*
X265145Y34210D01*
X265058Y34237D01*
X264973Y34271D01*
X264932Y34275D01*
X264910Y34282D01*
X264877Y34281D01*
X264806Y34289D01*
X253108Y34289D01*
X253037Y34278D01*
X252966Y34276D01*
X252917Y34258D01*
X252865Y34250D01*
X252802Y34216D01*
X252735Y34191D01*
X252694Y34159D01*
X252648Y34134D01*
X252599Y34082D01*
X252543Y34038D01*
X252514Y33994D01*
X252479Y33956D01*
X252448Y33891D01*
X252410Y33831D01*
X252397Y33780D01*
X252375Y33733D01*
X252367Y33662D01*
X252350Y33592D01*
X252354Y33540D01*
X252348Y33489D01*
X252363Y33418D01*
X252369Y33347D01*
X252389Y33299D01*
X252400Y33248D01*
X252437Y33187D01*
X252465Y33121D01*
X252510Y33065D01*
X252526Y33037D01*
X252544Y33022D01*
X252570Y32990D01*
X254636Y30924D01*
X254636Y26923D01*
X242062Y26923D01*
X242042Y26920D01*
X242023Y26922D01*
X241921Y26900D01*
X241819Y26883D01*
X241802Y26874D01*
X241782Y26870D01*
X241693Y26817D01*
X241602Y26768D01*
X241588Y26754D01*
X241571Y26744D01*
X241504Y26665D01*
X241433Y26590D01*
X241424Y26572D01*
X241411Y26557D01*
X241373Y26461D01*
X241329Y26367D01*
X241327Y26347D01*
X241319Y26329D01*
X241301Y26162D01*
X241301Y25399D01*
X241299Y25399D01*
X241299Y26162D01*
X241297Y26176D01*
X241298Y26186D01*
X241297Y26192D01*
X241298Y26201D01*
X241276Y26303D01*
X241259Y26405D01*
X241250Y26422D01*
X241246Y26442D01*
X241193Y26531D01*
X241144Y26622D01*
X241130Y26636D01*
X241120Y26653D01*
X241041Y26720D01*
X240966Y26791D01*
X240948Y26800D01*
X240933Y26813D01*
X240837Y26852D01*
X240743Y26895D01*
X240723Y26897D01*
X240705Y26905D01*
X240538Y26923D01*
X227873Y26923D01*
X227783Y26908D01*
X227692Y26901D01*
X227662Y26889D01*
X227630Y26883D01*
X227550Y26841D01*
X227466Y26805D01*
X227434Y26779D01*
X227413Y26768D01*
X227400Y26754D01*
X227398Y26753D01*
X227388Y26742D01*
X227335Y26700D01*
X212095Y11460D01*
X212053Y11402D01*
X212004Y11350D01*
X211982Y11303D01*
X211951Y11261D01*
X211930Y11192D01*
X211900Y11127D01*
X211894Y11075D01*
X211879Y11025D01*
X211881Y10954D01*
X211873Y10883D01*
X211884Y10832D01*
X211885Y10780D01*
X211910Y10712D01*
X211925Y10642D01*
X211952Y10597D01*
X211970Y10549D01*
X212015Y10493D01*
X212051Y10431D01*
X212091Y10397D01*
X212123Y10357D01*
X212184Y10318D01*
X212238Y10271D01*
X212287Y10252D01*
X212330Y10224D01*
X212400Y10206D01*
X212466Y10179D01*
X212538Y10171D01*
X212569Y10163D01*
X212592Y10165D01*
X212633Y10161D01*
X399916Y10161D01*
X399987Y10172D01*
G37*
G36*
X419563Y17792D02*
X419563Y17792D01*
X419635Y17794D01*
X419684Y17812D01*
X419735Y17820D01*
X419798Y17854D01*
X419866Y17879D01*
X419906Y17911D01*
X419952Y17936D01*
X420002Y17988D01*
X420058Y18032D01*
X420086Y18076D01*
X420122Y18114D01*
X420152Y18179D01*
X420191Y18239D01*
X420203Y18290D01*
X420225Y18337D01*
X420233Y18408D01*
X420251Y18478D01*
X420247Y18530D01*
X420252Y18581D01*
X420237Y18652D01*
X420232Y18723D01*
X420211Y18771D01*
X420200Y18822D01*
X420163Y18883D01*
X420135Y18949D01*
X420091Y19005D01*
X420074Y19033D01*
X420056Y19048D01*
X420031Y19080D01*
X418489Y20622D01*
X418489Y192398D01*
X418486Y192418D01*
X418488Y192437D01*
X418466Y192539D01*
X418450Y192641D01*
X418440Y192658D01*
X418436Y192678D01*
X418383Y192767D01*
X418334Y192858D01*
X418320Y192872D01*
X418310Y192889D01*
X418231Y192956D01*
X418156Y193028D01*
X418138Y193036D01*
X418123Y193049D01*
X418027Y193088D01*
X417933Y193131D01*
X417913Y193133D01*
X417895Y193141D01*
X417728Y193159D01*
X414748Y193159D01*
X413259Y194648D01*
X413259Y211752D01*
X414748Y213241D01*
X430044Y213241D01*
X430115Y213252D01*
X430187Y213254D01*
X430236Y213272D01*
X430287Y213280D01*
X430350Y213314D01*
X430418Y213339D01*
X430458Y213371D01*
X430504Y213396D01*
X430554Y213448D01*
X430610Y213492D01*
X430638Y213536D01*
X430674Y213574D01*
X430704Y213639D01*
X430743Y213699D01*
X430755Y213750D01*
X430777Y213797D01*
X430785Y213868D01*
X430803Y213938D01*
X430799Y213990D01*
X430804Y214041D01*
X430789Y214112D01*
X430784Y214183D01*
X430763Y214231D01*
X430752Y214282D01*
X430715Y214343D01*
X430687Y214409D01*
X430642Y214465D01*
X430626Y214493D01*
X430608Y214508D01*
X430582Y214540D01*
X429188Y215934D01*
X427151Y217972D01*
X427140Y218041D01*
X427130Y218058D01*
X427126Y218078D01*
X427073Y218167D01*
X427024Y218258D01*
X427010Y218272D01*
X427000Y218289D01*
X426921Y218356D01*
X426846Y218428D01*
X426828Y218436D01*
X426813Y218449D01*
X426717Y218488D01*
X426623Y218531D01*
X426603Y218533D01*
X426585Y218541D01*
X426418Y218559D01*
X414748Y218559D01*
X413259Y220048D01*
X413259Y231936D01*
X413245Y232026D01*
X413237Y232117D01*
X413225Y232147D01*
X413220Y232179D01*
X413177Y232260D01*
X413141Y232344D01*
X413115Y232376D01*
X413104Y232396D01*
X413081Y232419D01*
X413036Y232474D01*
X411934Y233576D01*
X411861Y233629D01*
X411791Y233689D01*
X411761Y233701D01*
X411735Y233720D01*
X411648Y233747D01*
X411563Y233781D01*
X411522Y233785D01*
X411500Y233792D01*
X411467Y233791D01*
X411396Y233799D01*
X410539Y233799D01*
X403099Y241239D01*
X403099Y242096D01*
X403085Y242186D01*
X403077Y242277D01*
X403065Y242307D01*
X403060Y242339D01*
X403017Y242420D01*
X402981Y242504D01*
X402955Y242536D01*
X402944Y242556D01*
X402921Y242579D01*
X402876Y242634D01*
X401894Y243616D01*
X401821Y243669D01*
X401751Y243729D01*
X401721Y243741D01*
X401695Y243760D01*
X401608Y243787D01*
X401523Y243821D01*
X401482Y243825D01*
X401460Y243832D01*
X401427Y243831D01*
X401356Y243839D01*
X395698Y243839D01*
X395608Y243825D01*
X395517Y243817D01*
X395487Y243805D01*
X395455Y243800D01*
X395374Y243757D01*
X395290Y243721D01*
X395258Y243695D01*
X395238Y243684D01*
X395215Y243661D01*
X395159Y243616D01*
X393652Y242109D01*
X369548Y242109D01*
X368059Y243598D01*
X368059Y246270D01*
X368048Y246341D01*
X368046Y246413D01*
X368028Y246462D01*
X368020Y246513D01*
X367986Y246576D01*
X367961Y246644D01*
X367929Y246684D01*
X367904Y246731D01*
X367852Y246780D01*
X367808Y246836D01*
X367764Y246864D01*
X367726Y246900D01*
X367661Y246930D01*
X367601Y246969D01*
X367550Y246982D01*
X367503Y247004D01*
X367432Y247011D01*
X367362Y247029D01*
X367310Y247025D01*
X367259Y247031D01*
X367188Y247015D01*
X367117Y247010D01*
X367069Y246989D01*
X367018Y246978D01*
X366957Y246942D01*
X366891Y246913D01*
X366835Y246869D01*
X366807Y246852D01*
X366792Y246834D01*
X366760Y246809D01*
X359634Y239683D01*
X359581Y239609D01*
X359521Y239539D01*
X359509Y239509D01*
X359490Y239483D01*
X359463Y239396D01*
X359429Y239311D01*
X359425Y239270D01*
X359418Y239248D01*
X359419Y239216D01*
X359411Y239144D01*
X359411Y217794D01*
X359425Y217704D01*
X359433Y217613D01*
X359445Y217583D01*
X359450Y217551D01*
X359493Y217470D01*
X359529Y217386D01*
X359555Y217354D01*
X359566Y217334D01*
X359589Y217311D01*
X359634Y217256D01*
X363425Y213464D01*
X363499Y213411D01*
X363569Y213351D01*
X363599Y213339D01*
X363625Y213320D01*
X363712Y213293D01*
X363797Y213259D01*
X363838Y213255D01*
X363860Y213248D01*
X363892Y213249D01*
X363964Y213241D01*
X379052Y213241D01*
X380462Y211831D01*
X380478Y211820D01*
X380490Y211804D01*
X380578Y211748D01*
X380661Y211688D01*
X380680Y211682D01*
X380697Y211671D01*
X380798Y211646D01*
X380897Y211616D01*
X380916Y211616D01*
X380936Y211611D01*
X381039Y211619D01*
X381142Y211622D01*
X381161Y211629D01*
X381181Y211630D01*
X381276Y211671D01*
X381373Y211706D01*
X381389Y211719D01*
X381407Y211727D01*
X381538Y211831D01*
X382948Y213241D01*
X398052Y213241D01*
X399541Y211752D01*
X399541Y194648D01*
X398052Y193159D01*
X386382Y193159D01*
X386362Y193156D01*
X386343Y193158D01*
X386241Y193136D01*
X386139Y193120D01*
X386122Y193110D01*
X386102Y193106D01*
X386013Y193053D01*
X385922Y193004D01*
X385908Y192990D01*
X385891Y192980D01*
X385824Y192901D01*
X385752Y192826D01*
X385744Y192808D01*
X385731Y192793D01*
X385692Y192697D01*
X385649Y192603D01*
X385647Y192583D01*
X385639Y192565D01*
X385639Y192562D01*
X381157Y188079D01*
X330043Y188079D01*
X325551Y192572D01*
X325540Y192641D01*
X325530Y192658D01*
X325526Y192678D01*
X325473Y192767D01*
X325424Y192858D01*
X325410Y192872D01*
X325400Y192889D01*
X325321Y192956D01*
X325246Y193028D01*
X325228Y193036D01*
X325213Y193049D01*
X325117Y193088D01*
X325023Y193131D01*
X325003Y193133D01*
X324985Y193141D01*
X324818Y193159D01*
X313148Y193159D01*
X311659Y194648D01*
X311659Y211752D01*
X313148Y213241D01*
X324818Y213241D01*
X324838Y213244D01*
X324857Y213242D01*
X324959Y213264D01*
X325061Y213280D01*
X325078Y213290D01*
X325098Y213294D01*
X325187Y213347D01*
X325278Y213396D01*
X325292Y213410D01*
X325309Y213420D01*
X325376Y213499D01*
X325448Y213574D01*
X325456Y213592D01*
X325469Y213607D01*
X325508Y213703D01*
X325551Y213797D01*
X325553Y213817D01*
X325561Y213835D01*
X325561Y213838D01*
X325566Y213844D01*
X325619Y213918D01*
X325679Y213987D01*
X325691Y214017D01*
X325710Y214043D01*
X325737Y214130D01*
X325771Y214215D01*
X325775Y214256D01*
X325782Y214278D01*
X325781Y214311D01*
X325789Y214382D01*
X325789Y228648D01*
X325787Y228664D01*
X325788Y228679D01*
X325788Y228682D01*
X325788Y228687D01*
X325766Y228789D01*
X325750Y228891D01*
X325740Y228908D01*
X325736Y228928D01*
X325683Y229017D01*
X325634Y229108D01*
X325620Y229122D01*
X325610Y229139D01*
X325531Y229206D01*
X325456Y229278D01*
X325438Y229286D01*
X325423Y229299D01*
X325327Y229338D01*
X325233Y229381D01*
X325213Y229383D01*
X325195Y229391D01*
X325028Y229409D01*
X317548Y229409D01*
X316059Y230898D01*
X316059Y236268D01*
X316057Y236281D01*
X316058Y236291D01*
X316057Y236297D01*
X316058Y236307D01*
X316036Y236409D01*
X316020Y236511D01*
X316010Y236528D01*
X316006Y236548D01*
X315953Y236637D01*
X315904Y236728D01*
X315890Y236742D01*
X315880Y236759D01*
X315801Y236826D01*
X315726Y236898D01*
X315708Y236906D01*
X315693Y236919D01*
X315597Y236958D01*
X315503Y237001D01*
X315483Y237003D01*
X315465Y237011D01*
X315462Y237011D01*
X309910Y242562D01*
X309852Y242604D01*
X309800Y242654D01*
X309753Y242676D01*
X309711Y242706D01*
X309642Y242727D01*
X309577Y242757D01*
X309525Y242763D01*
X309475Y242778D01*
X309404Y242776D01*
X309333Y242784D01*
X309282Y242773D01*
X309230Y242772D01*
X309162Y242747D01*
X309092Y242732D01*
X309047Y242705D01*
X308999Y242688D01*
X308943Y242643D01*
X308881Y242606D01*
X308847Y242566D01*
X308807Y242534D01*
X308768Y242474D01*
X308721Y242419D01*
X308702Y242371D01*
X308674Y242327D01*
X308656Y242257D01*
X308629Y242191D01*
X308621Y242120D01*
X308613Y242088D01*
X308615Y242065D01*
X308611Y242024D01*
X308611Y222449D01*
X308625Y222359D01*
X308633Y222268D01*
X308645Y222239D01*
X308650Y222207D01*
X308693Y222126D01*
X308729Y222042D01*
X308755Y222010D01*
X308766Y221989D01*
X308789Y221967D01*
X308834Y221911D01*
X310107Y220638D01*
X310107Y216242D01*
X310104Y216239D01*
X310055Y216171D01*
X310012Y216126D01*
X310006Y216113D01*
X309991Y216095D01*
X309979Y216065D01*
X309960Y216039D01*
X309937Y215964D01*
X309909Y215903D01*
X309907Y215887D01*
X309899Y215867D01*
X309895Y215826D01*
X309888Y215804D01*
X309889Y215772D01*
X309881Y215701D01*
X309881Y192920D01*
X309895Y192830D01*
X309903Y192739D01*
X309915Y192709D01*
X309920Y192677D01*
X309963Y192596D01*
X309999Y192513D01*
X310025Y192480D01*
X310036Y192460D01*
X310059Y192438D01*
X310104Y192382D01*
X322581Y179905D01*
X322581Y155139D01*
X322595Y155049D01*
X322603Y154958D01*
X322615Y154929D01*
X322620Y154897D01*
X322663Y154816D01*
X322699Y154732D01*
X322725Y154700D01*
X322736Y154679D01*
X322759Y154657D01*
X322804Y154601D01*
X322807Y154598D01*
X322807Y154594D01*
X322821Y154504D01*
X322829Y154413D01*
X322841Y154383D01*
X322846Y154351D01*
X322889Y154270D01*
X322925Y154186D01*
X322951Y154154D01*
X322962Y154134D01*
X322985Y154111D01*
X323030Y154056D01*
X344782Y132304D01*
X347981Y129105D01*
X347981Y78620D01*
X347995Y78530D01*
X348003Y78439D01*
X348015Y78409D01*
X348020Y78377D01*
X348063Y78296D01*
X348099Y78213D01*
X348125Y78180D01*
X348136Y78160D01*
X348159Y78138D01*
X348204Y78082D01*
X408282Y18004D01*
X408355Y17951D01*
X408425Y17891D01*
X408455Y17879D01*
X408481Y17860D01*
X408568Y17833D01*
X408653Y17799D01*
X408694Y17795D01*
X408716Y17788D01*
X408749Y17789D01*
X408820Y17781D01*
X419492Y17781D01*
X419563Y17792D01*
G37*
%LPC*%
G36*
X61302Y155983D02*
X61302Y155983D01*
X58193Y159092D01*
X58193Y163488D01*
X58196Y163491D01*
X58249Y163565D01*
X58309Y163635D01*
X58321Y163665D01*
X58340Y163691D01*
X58367Y163778D01*
X58401Y163863D01*
X58405Y163904D01*
X58412Y163926D01*
X58411Y163958D01*
X58419Y164029D01*
X58419Y395805D01*
X83370Y420756D01*
X83423Y420829D01*
X83483Y420899D01*
X83495Y420929D01*
X83514Y420955D01*
X83541Y421042D01*
X83575Y421127D01*
X83579Y421168D01*
X83586Y421190D01*
X83585Y421223D01*
X83593Y421294D01*
X83593Y421298D01*
X86702Y424407D01*
X91098Y424407D01*
X91101Y424404D01*
X91175Y424351D01*
X91245Y424291D01*
X91275Y424279D01*
X91301Y424260D01*
X91388Y424233D01*
X91473Y424199D01*
X91514Y424195D01*
X91536Y424188D01*
X91568Y424189D01*
X91639Y424181D01*
X289680Y424181D01*
X289770Y424195D01*
X289861Y424203D01*
X289891Y424215D01*
X289923Y424220D01*
X290004Y424263D01*
X290088Y424299D01*
X290120Y424325D01*
X290140Y424336D01*
X290163Y424359D01*
X290218Y424404D01*
X324670Y458856D01*
X324723Y458929D01*
X324783Y458999D01*
X324795Y459029D01*
X324814Y459055D01*
X324841Y459142D01*
X324875Y459227D01*
X324879Y459268D01*
X324886Y459290D01*
X324885Y459323D01*
X324893Y459394D01*
X324893Y459398D01*
X328002Y462507D01*
X332398Y462507D01*
X335507Y459398D01*
X335507Y459394D01*
X335521Y459304D01*
X335529Y459213D01*
X335541Y459183D01*
X335546Y459151D01*
X335589Y459070D01*
X335625Y458986D01*
X335651Y458954D01*
X335662Y458934D01*
X335685Y458911D01*
X335730Y458856D01*
X344782Y449804D01*
X344855Y449751D01*
X344925Y449691D01*
X344955Y449679D01*
X344981Y449660D01*
X345068Y449633D01*
X345153Y449599D01*
X345194Y449595D01*
X345216Y449588D01*
X345249Y449589D01*
X345320Y449581D01*
X377305Y449581D01*
X427882Y399004D01*
X427956Y398951D01*
X428026Y398891D01*
X428056Y398879D01*
X428082Y398860D01*
X428169Y398833D01*
X428254Y398799D01*
X428295Y398795D01*
X428317Y398788D01*
X428349Y398789D01*
X428420Y398781D01*
X441761Y398781D01*
X441851Y398795D01*
X441942Y398803D01*
X441971Y398815D01*
X442003Y398820D01*
X442084Y398863D01*
X442168Y398899D01*
X442200Y398925D01*
X442221Y398936D01*
X442243Y398959D01*
X442299Y399004D01*
X442302Y399007D01*
X446698Y399007D01*
X449807Y395898D01*
X449807Y391502D01*
X446698Y388393D01*
X442302Y388393D01*
X442299Y388396D01*
X442225Y388449D01*
X442155Y388509D01*
X442125Y388521D01*
X442099Y388540D01*
X442012Y388567D01*
X441927Y388601D01*
X441886Y388605D01*
X441864Y388612D01*
X441832Y388611D01*
X441761Y388619D01*
X423896Y388619D01*
X373319Y439196D01*
X373245Y439249D01*
X373176Y439309D01*
X373146Y439321D01*
X373119Y439340D01*
X373032Y439367D01*
X372948Y439401D01*
X372907Y439405D01*
X372884Y439412D01*
X372852Y439411D01*
X372781Y439419D01*
X340795Y439419D01*
X330738Y449476D01*
X330722Y449488D01*
X330710Y449504D01*
X330622Y449560D01*
X330539Y449620D01*
X330520Y449626D01*
X330503Y449637D01*
X330402Y449662D01*
X330303Y449692D01*
X330284Y449692D01*
X330264Y449697D01*
X330161Y449689D01*
X330058Y449686D01*
X330039Y449679D01*
X330019Y449678D01*
X329924Y449637D01*
X329827Y449602D01*
X329811Y449589D01*
X329793Y449581D01*
X329662Y449476D01*
X297404Y417218D01*
X294205Y414019D01*
X91639Y414019D01*
X91549Y414005D01*
X91458Y413997D01*
X91429Y413985D01*
X91397Y413980D01*
X91316Y413937D01*
X91232Y413901D01*
X91200Y413875D01*
X91179Y413864D01*
X91157Y413841D01*
X91101Y413796D01*
X91098Y413793D01*
X91094Y413793D01*
X91004Y413779D01*
X90913Y413771D01*
X90883Y413759D01*
X90851Y413754D01*
X90770Y413711D01*
X90687Y413675D01*
X90654Y413649D01*
X90634Y413638D01*
X90612Y413615D01*
X90556Y413570D01*
X68804Y391818D01*
X68751Y391745D01*
X68691Y391675D01*
X68679Y391645D01*
X68660Y391619D01*
X68633Y391532D01*
X68599Y391447D01*
X68595Y391406D01*
X68588Y391384D01*
X68589Y391351D01*
X68581Y391280D01*
X68581Y164029D01*
X68595Y163939D01*
X68603Y163848D01*
X68615Y163819D01*
X68620Y163787D01*
X68663Y163706D01*
X68699Y163622D01*
X68725Y163590D01*
X68736Y163569D01*
X68759Y163547D01*
X68804Y163491D01*
X68807Y163488D01*
X68807Y159092D01*
X65698Y155983D01*
X61302Y155983D01*
G37*
%LPD*%
%LPC*%
G36*
X36266Y198225D02*
X36266Y198225D01*
X33157Y201334D01*
X33157Y203134D01*
X33143Y203224D01*
X33135Y203315D01*
X33123Y203345D01*
X33118Y203377D01*
X33075Y203458D01*
X33039Y203542D01*
X33013Y203574D01*
X33002Y203594D01*
X32979Y203617D01*
X32934Y203673D01*
X21589Y215018D01*
X21589Y496878D01*
X61922Y537211D01*
X148391Y537211D01*
X148481Y537225D01*
X148572Y537233D01*
X148601Y537245D01*
X148633Y537250D01*
X148714Y537293D01*
X148798Y537329D01*
X148830Y537355D01*
X148851Y537366D01*
X148873Y537389D01*
X148929Y537434D01*
X150202Y538707D01*
X154598Y538707D01*
X157707Y535598D01*
X157707Y531202D01*
X154598Y528093D01*
X150202Y528093D01*
X148929Y529366D01*
X148855Y529419D01*
X148785Y529479D01*
X148755Y529491D01*
X148729Y529510D01*
X148642Y529537D01*
X148557Y529571D01*
X148516Y529575D01*
X148494Y529582D01*
X148462Y529581D01*
X148391Y529589D01*
X65394Y529589D01*
X65304Y529575D01*
X65213Y529567D01*
X65183Y529555D01*
X65151Y529550D01*
X65070Y529507D01*
X64986Y529471D01*
X64954Y529445D01*
X64934Y529434D01*
X64911Y529411D01*
X64856Y529366D01*
X29434Y493944D01*
X29381Y493871D01*
X29321Y493801D01*
X29309Y493771D01*
X29290Y493745D01*
X29263Y493658D01*
X29229Y493573D01*
X29225Y493532D01*
X29218Y493510D01*
X29219Y493477D01*
X29211Y493406D01*
X29211Y218490D01*
X29225Y218400D01*
X29233Y218309D01*
X29245Y218279D01*
X29250Y218247D01*
X29293Y218167D01*
X29329Y218083D01*
X29355Y218051D01*
X29366Y218030D01*
X29389Y218008D01*
X29434Y217952D01*
X38324Y209062D01*
X38397Y209009D01*
X38467Y208949D01*
X38497Y208937D01*
X38523Y208918D01*
X38610Y208892D01*
X38695Y208857D01*
X38736Y208853D01*
X38758Y208846D01*
X38791Y208847D01*
X38862Y208839D01*
X40662Y208839D01*
X43771Y205730D01*
X43771Y201334D01*
X40662Y198225D01*
X36266Y198225D01*
G37*
%LPD*%
%LPC*%
G36*
X505802Y312193D02*
X505802Y312193D01*
X502693Y315302D01*
X502693Y317102D01*
X502679Y317192D01*
X502671Y317283D01*
X502659Y317313D01*
X502654Y317345D01*
X502611Y317426D01*
X502575Y317510D01*
X502549Y317542D01*
X502538Y317562D01*
X502515Y317585D01*
X502470Y317640D01*
X481245Y338866D01*
X481171Y338919D01*
X481101Y338979D01*
X481071Y338991D01*
X481045Y339010D01*
X480958Y339037D01*
X480873Y339071D01*
X480832Y339075D01*
X480810Y339082D01*
X480778Y339081D01*
X480706Y339089D01*
X131009Y339089D01*
X130919Y339075D01*
X130828Y339067D01*
X130799Y339055D01*
X130767Y339050D01*
X130686Y339007D01*
X130602Y338971D01*
X130570Y338945D01*
X130549Y338934D01*
X130527Y338911D01*
X130471Y338866D01*
X129198Y337593D01*
X124802Y337593D01*
X121693Y340702D01*
X121693Y345098D01*
X124802Y348207D01*
X129198Y348207D01*
X130471Y346934D01*
X130545Y346881D01*
X130615Y346821D01*
X130645Y346809D01*
X130671Y346790D01*
X130758Y346763D01*
X130843Y346729D01*
X130884Y346725D01*
X130906Y346718D01*
X130938Y346719D01*
X131009Y346711D01*
X484178Y346711D01*
X486634Y344256D01*
X486634Y344255D01*
X507860Y323030D01*
X507933Y322977D01*
X508003Y322917D01*
X508033Y322905D01*
X508059Y322886D01*
X508146Y322859D01*
X508231Y322825D01*
X508272Y322821D01*
X508294Y322814D01*
X508327Y322815D01*
X508398Y322807D01*
X510198Y322807D01*
X513307Y319698D01*
X513307Y315302D01*
X510198Y312193D01*
X505802Y312193D01*
G37*
%LPD*%
%LPC*%
G36*
X226402Y426493D02*
X226402Y426493D01*
X223293Y429602D01*
X223293Y433998D01*
X224566Y435271D01*
X224619Y435345D01*
X224679Y435415D01*
X224691Y435445D01*
X224710Y435471D01*
X224737Y435558D01*
X224771Y435643D01*
X224775Y435684D01*
X224782Y435706D01*
X224781Y435738D01*
X224789Y435809D01*
X224789Y493406D01*
X224775Y493496D01*
X224767Y493587D01*
X224755Y493617D01*
X224750Y493649D01*
X224707Y493730D01*
X224671Y493814D01*
X224645Y493846D01*
X224634Y493866D01*
X224611Y493889D01*
X224566Y493944D01*
X163744Y554766D01*
X163671Y554819D01*
X163601Y554879D01*
X163571Y554891D01*
X163545Y554910D01*
X163458Y554937D01*
X163373Y554971D01*
X163332Y554975D01*
X163310Y554982D01*
X163277Y554981D01*
X163206Y554989D01*
X74622Y554989D01*
X59014Y570597D01*
X58920Y570665D01*
X58825Y570735D01*
X58819Y570737D01*
X58814Y570741D01*
X58703Y570775D01*
X58591Y570811D01*
X58585Y570811D01*
X58579Y570813D01*
X58462Y570810D01*
X58345Y570809D01*
X58338Y570807D01*
X58333Y570807D01*
X58315Y570800D01*
X58184Y570762D01*
X53832Y568959D01*
X47768Y568959D01*
X42167Y571280D01*
X37880Y575567D01*
X35559Y581168D01*
X35559Y587232D01*
X37880Y592833D01*
X42167Y597120D01*
X47768Y599441D01*
X53832Y599441D01*
X59433Y597120D01*
X63720Y592833D01*
X66041Y587232D01*
X66041Y581168D01*
X64238Y576816D01*
X64228Y576773D01*
X64211Y576736D01*
X64203Y576672D01*
X64183Y576589D01*
X64183Y576583D01*
X64182Y576576D01*
X64187Y576522D01*
X64183Y576491D01*
X64194Y576443D01*
X64202Y576344D01*
X64204Y576338D01*
X64205Y576332D01*
X64231Y576273D01*
X64236Y576251D01*
X64255Y576219D01*
X64298Y576117D01*
X64303Y576111D01*
X64305Y576107D01*
X64317Y576093D01*
X64403Y575986D01*
X77556Y562834D01*
X77629Y562781D01*
X77699Y562721D01*
X77729Y562709D01*
X77755Y562690D01*
X77842Y562663D01*
X77927Y562629D01*
X77968Y562625D01*
X77990Y562618D01*
X78023Y562619D01*
X78094Y562611D01*
X166678Y562611D01*
X232411Y496878D01*
X232411Y435809D01*
X232425Y435719D01*
X232433Y435628D01*
X232445Y435599D01*
X232450Y435567D01*
X232493Y435486D01*
X232529Y435402D01*
X232555Y435370D01*
X232566Y435349D01*
X232589Y435327D01*
X232634Y435271D01*
X233907Y433998D01*
X233907Y429602D01*
X230798Y426493D01*
X226402Y426493D01*
G37*
%LPD*%
%LPC*%
G36*
X391502Y515393D02*
X391502Y515393D01*
X388393Y518502D01*
X388393Y522898D01*
X391502Y526007D01*
X395898Y526007D01*
X397171Y524734D01*
X397245Y524681D01*
X397315Y524621D01*
X397345Y524609D01*
X397371Y524590D01*
X397458Y524563D01*
X397543Y524529D01*
X397584Y524525D01*
X397606Y524518D01*
X397638Y524519D01*
X397709Y524511D01*
X523553Y524511D01*
X523643Y524525D01*
X523734Y524533D01*
X523764Y524545D01*
X523796Y524550D01*
X523877Y524593D01*
X523961Y524629D01*
X523993Y524655D01*
X524013Y524666D01*
X524036Y524689D01*
X524092Y524734D01*
X529366Y530008D01*
X529419Y530082D01*
X529479Y530152D01*
X529491Y530182D01*
X529510Y530208D01*
X529537Y530295D01*
X529571Y530380D01*
X529575Y530421D01*
X529582Y530443D01*
X529581Y530475D01*
X529589Y530547D01*
X529589Y568198D01*
X529586Y568218D01*
X529588Y568237D01*
X529566Y568339D01*
X529550Y568441D01*
X529540Y568458D01*
X529536Y568478D01*
X529483Y568567D01*
X529434Y568658D01*
X529420Y568672D01*
X529410Y568689D01*
X529331Y568756D01*
X529256Y568828D01*
X529238Y568836D01*
X529223Y568849D01*
X529127Y568888D01*
X529033Y568931D01*
X529013Y568933D01*
X528995Y568941D01*
X528828Y568959D01*
X519648Y568959D01*
X518159Y570448D01*
X518159Y597952D01*
X519648Y599441D01*
X547152Y599441D01*
X548641Y597952D01*
X548641Y570448D01*
X547152Y568959D01*
X537972Y568959D01*
X537952Y568956D01*
X537933Y568958D01*
X537831Y568936D01*
X537729Y568920D01*
X537712Y568910D01*
X537692Y568906D01*
X537603Y568853D01*
X537512Y568804D01*
X537498Y568790D01*
X537481Y568780D01*
X537414Y568701D01*
X537342Y568626D01*
X537334Y568608D01*
X537321Y568593D01*
X537282Y568497D01*
X537239Y568403D01*
X537237Y568383D01*
X537229Y568365D01*
X537211Y568198D01*
X537211Y527074D01*
X527026Y516889D01*
X397709Y516889D01*
X397619Y516875D01*
X397528Y516867D01*
X397499Y516855D01*
X397467Y516850D01*
X397386Y516807D01*
X397302Y516771D01*
X397270Y516745D01*
X397249Y516734D01*
X397227Y516711D01*
X397171Y516666D01*
X395898Y515393D01*
X391502Y515393D01*
G37*
%LPD*%
%LPC*%
G36*
X35902Y223293D02*
X35902Y223293D01*
X32793Y226402D01*
X32793Y230798D01*
X34066Y232071D01*
X34119Y232145D01*
X34179Y232215D01*
X34191Y232245D01*
X34210Y232271D01*
X34237Y232358D01*
X34271Y232443D01*
X34275Y232484D01*
X34282Y232506D01*
X34281Y232538D01*
X34289Y232609D01*
X34289Y440491D01*
X34275Y440581D01*
X34267Y440672D01*
X34255Y440701D01*
X34250Y440733D01*
X34207Y440814D01*
X34171Y440898D01*
X34145Y440930D01*
X34134Y440951D01*
X34111Y440973D01*
X34066Y441029D01*
X32793Y442302D01*
X32793Y446698D01*
X35902Y449807D01*
X40298Y449807D01*
X43407Y446698D01*
X43407Y442302D01*
X42134Y441029D01*
X42081Y440955D01*
X42021Y440885D01*
X42009Y440855D01*
X41990Y440829D01*
X41963Y440742D01*
X41929Y440657D01*
X41925Y440616D01*
X41918Y440594D01*
X41919Y440562D01*
X41911Y440491D01*
X41911Y232609D01*
X41925Y232519D01*
X41933Y232428D01*
X41945Y232399D01*
X41950Y232367D01*
X41993Y232286D01*
X42029Y232202D01*
X42055Y232170D01*
X42066Y232149D01*
X42089Y232127D01*
X42134Y232071D01*
X43407Y230798D01*
X43407Y226402D01*
X40298Y223293D01*
X35902Y223293D01*
G37*
%LPD*%
%LPC*%
G36*
X417478Y475679D02*
X417478Y475679D01*
X415989Y477168D01*
X415989Y513432D01*
X417478Y514921D01*
X453742Y514921D01*
X455231Y513432D01*
X455231Y477168D01*
X453742Y475679D01*
X417478Y475679D01*
G37*
%LPD*%
%LPC*%
G36*
X525687Y475679D02*
X525687Y475679D01*
X518476Y478666D01*
X512956Y484186D01*
X509969Y491397D01*
X509969Y499203D01*
X512956Y506414D01*
X518476Y511934D01*
X525687Y514921D01*
X533493Y514921D01*
X540704Y511934D01*
X546224Y506414D01*
X549211Y499203D01*
X549211Y491397D01*
X546224Y484186D01*
X540704Y478666D01*
X533493Y475679D01*
X525687Y475679D01*
G37*
%LPD*%
%LPC*%
G36*
X201103Y27558D02*
X201103Y27558D01*
X197229Y29163D01*
X194263Y32129D01*
X192658Y36003D01*
X192658Y40197D01*
X194263Y44071D01*
X197229Y47037D01*
X198919Y47737D01*
X199019Y47799D01*
X199119Y47859D01*
X199123Y47863D01*
X199128Y47867D01*
X199203Y47956D01*
X199279Y48046D01*
X199281Y48051D01*
X199285Y48056D01*
X199327Y48164D01*
X199371Y48274D01*
X199372Y48281D01*
X199373Y48286D01*
X199374Y48304D01*
X199389Y48440D01*
X199389Y65078D01*
X261170Y126860D01*
X261213Y126919D01*
X261257Y126965D01*
X261265Y126982D01*
X261283Y127003D01*
X261295Y127033D01*
X261314Y127059D01*
X261340Y127143D01*
X261361Y127188D01*
X261362Y127199D01*
X261375Y127231D01*
X261379Y127272D01*
X261386Y127294D01*
X261385Y127327D01*
X261393Y127398D01*
X261393Y129198D01*
X264502Y132307D01*
X268898Y132307D01*
X272007Y129198D01*
X272007Y124802D01*
X268898Y121693D01*
X267098Y121693D01*
X267008Y121679D01*
X266917Y121671D01*
X266887Y121659D01*
X266855Y121654D01*
X266774Y121611D01*
X266690Y121575D01*
X266658Y121549D01*
X266638Y121538D01*
X266615Y121515D01*
X266560Y121470D01*
X207234Y62144D01*
X207181Y62071D01*
X207121Y62001D01*
X207109Y61971D01*
X207090Y61945D01*
X207063Y61858D01*
X207029Y61773D01*
X207025Y61732D01*
X207018Y61710D01*
X207019Y61677D01*
X207011Y61606D01*
X207011Y48440D01*
X207030Y48326D01*
X207047Y48210D01*
X207049Y48204D01*
X207050Y48198D01*
X207105Y48095D01*
X207158Y47990D01*
X207163Y47986D01*
X207166Y47980D01*
X207250Y47901D01*
X207334Y47818D01*
X207340Y47814D01*
X207344Y47811D01*
X207361Y47803D01*
X207481Y47737D01*
X209171Y47037D01*
X212137Y44071D01*
X213742Y40197D01*
X213742Y36003D01*
X212137Y32129D01*
X209171Y29163D01*
X205297Y27558D01*
X201103Y27558D01*
G37*
%LPD*%
%LPC*%
G36*
X455002Y413793D02*
X455002Y413793D01*
X451893Y416902D01*
X451893Y418702D01*
X451879Y418792D01*
X451871Y418883D01*
X451859Y418913D01*
X451854Y418945D01*
X451811Y419026D01*
X451775Y419110D01*
X451749Y419142D01*
X451738Y419162D01*
X451715Y419185D01*
X451670Y419240D01*
X442255Y428655D01*
X442182Y428708D01*
X442112Y428768D01*
X442082Y428780D01*
X442056Y428799D01*
X441969Y428826D01*
X441884Y428860D01*
X441843Y428864D01*
X441821Y428871D01*
X441788Y428870D01*
X441717Y428878D01*
X438029Y428878D01*
X434061Y432846D01*
X433987Y432899D01*
X433918Y432959D01*
X433888Y432971D01*
X433861Y432990D01*
X433774Y433017D01*
X433690Y433051D01*
X433649Y433055D01*
X433626Y433062D01*
X433594Y433061D01*
X433523Y433069D01*
X411679Y433069D01*
X411589Y433055D01*
X411498Y433047D01*
X411469Y433035D01*
X411437Y433030D01*
X411356Y432987D01*
X411272Y432951D01*
X411240Y432925D01*
X411219Y432914D01*
X411197Y432891D01*
X411141Y432846D01*
X409868Y431573D01*
X405472Y431573D01*
X402363Y434682D01*
X402363Y439078D01*
X405472Y442187D01*
X409868Y442187D01*
X411141Y440914D01*
X411215Y440861D01*
X411285Y440801D01*
X411315Y440789D01*
X411341Y440770D01*
X411428Y440743D01*
X411513Y440709D01*
X411554Y440705D01*
X411576Y440698D01*
X411608Y440699D01*
X411679Y440691D01*
X433528Y440691D01*
X433574Y440698D01*
X433619Y440696D01*
X433694Y440718D01*
X433771Y440730D01*
X433812Y440752D01*
X433856Y440765D01*
X433920Y440809D01*
X433988Y440846D01*
X434020Y440879D01*
X434058Y440905D01*
X434104Y440967D01*
X434158Y441024D01*
X434177Y441066D01*
X434204Y441102D01*
X434229Y441176D01*
X434261Y441247D01*
X434266Y441293D01*
X434281Y441336D01*
X434280Y441414D01*
X434288Y441491D01*
X434279Y441536D01*
X434278Y441582D01*
X434240Y441714D01*
X434236Y441732D01*
X434234Y441736D01*
X434232Y441743D01*
X433958Y442403D01*
X433958Y446597D01*
X435563Y450471D01*
X438529Y453437D01*
X442403Y455042D01*
X446597Y455042D01*
X450471Y453437D01*
X453437Y450471D01*
X455042Y446597D01*
X455042Y442403D01*
X453437Y438529D01*
X450471Y435563D01*
X448451Y434726D01*
X448412Y434702D01*
X448369Y434686D01*
X448308Y434638D01*
X448242Y434597D01*
X448213Y434561D01*
X448177Y434533D01*
X448135Y434467D01*
X448085Y434407D01*
X448069Y434364D01*
X448044Y434326D01*
X448025Y434250D01*
X447997Y434178D01*
X447995Y434132D01*
X447984Y434087D01*
X447990Y434010D01*
X447987Y433932D01*
X448000Y433888D01*
X448003Y433842D01*
X448034Y433771D01*
X448055Y433696D01*
X448082Y433658D01*
X448100Y433616D01*
X448185Y433509D01*
X448196Y433494D01*
X448200Y433491D01*
X448204Y433485D01*
X457060Y424630D01*
X457133Y424577D01*
X457203Y424517D01*
X457233Y424505D01*
X457259Y424486D01*
X457346Y424459D01*
X457431Y424425D01*
X457472Y424421D01*
X457494Y424414D01*
X457527Y424415D01*
X457598Y424407D01*
X459398Y424407D01*
X462507Y421298D01*
X462507Y416902D01*
X459398Y413793D01*
X455002Y413793D01*
G37*
%LPD*%
%LPC*%
G36*
X239102Y121693D02*
X239102Y121693D01*
X237829Y122966D01*
X237755Y123019D01*
X237685Y123079D01*
X237655Y123091D01*
X237629Y123110D01*
X237542Y123137D01*
X237457Y123171D01*
X237416Y123175D01*
X237394Y123182D01*
X237362Y123181D01*
X237291Y123189D01*
X224482Y123189D01*
X171590Y176080D01*
X171517Y176133D01*
X171447Y176193D01*
X171417Y176205D01*
X171391Y176224D01*
X171304Y176251D01*
X171219Y176285D01*
X171178Y176289D01*
X171156Y176296D01*
X171123Y176295D01*
X171052Y176303D01*
X169252Y176303D01*
X166143Y179412D01*
X166143Y183808D01*
X169252Y186917D01*
X173648Y186917D01*
X176757Y183808D01*
X176757Y182008D01*
X176771Y181918D01*
X176779Y181827D01*
X176791Y181797D01*
X176796Y181765D01*
X176839Y181684D01*
X176875Y181600D01*
X176901Y181568D01*
X176912Y181548D01*
X176935Y181525D01*
X176980Y181470D01*
X227416Y131034D01*
X227489Y130981D01*
X227559Y130921D01*
X227589Y130909D01*
X227615Y130890D01*
X227702Y130863D01*
X227787Y130829D01*
X227828Y130825D01*
X227850Y130818D01*
X227883Y130819D01*
X227954Y130811D01*
X237291Y130811D01*
X237381Y130825D01*
X237472Y130833D01*
X237501Y130845D01*
X237533Y130850D01*
X237614Y130893D01*
X237698Y130929D01*
X237730Y130955D01*
X237751Y130966D01*
X237773Y130989D01*
X237829Y131034D01*
X239102Y132307D01*
X243498Y132307D01*
X246607Y129198D01*
X246607Y124802D01*
X243498Y121693D01*
X239102Y121693D01*
G37*
%LPD*%
%LPC*%
G36*
X35902Y172493D02*
X35902Y172493D01*
X32793Y175602D01*
X32793Y179998D01*
X35902Y183107D01*
X37702Y183107D01*
X37792Y183121D01*
X37883Y183129D01*
X37913Y183141D01*
X37945Y183146D01*
X38026Y183189D01*
X38110Y183225D01*
X38142Y183251D01*
X38162Y183262D01*
X38185Y183285D01*
X38241Y183330D01*
X45496Y190586D01*
X45549Y190659D01*
X45609Y190729D01*
X45621Y190759D01*
X45640Y190785D01*
X45667Y190872D01*
X45701Y190957D01*
X45705Y190998D01*
X45712Y191020D01*
X45711Y191053D01*
X45719Y191124D01*
X45719Y257611D01*
X45705Y257701D01*
X45697Y257792D01*
X45685Y257821D01*
X45680Y257853D01*
X45637Y257934D01*
X45601Y258018D01*
X45575Y258050D01*
X45564Y258071D01*
X45541Y258093D01*
X45496Y258149D01*
X44223Y259422D01*
X44223Y263818D01*
X47332Y266927D01*
X51728Y266927D01*
X54837Y263818D01*
X54837Y259422D01*
X53564Y258149D01*
X53511Y258075D01*
X53451Y258005D01*
X53439Y257975D01*
X53420Y257949D01*
X53393Y257862D01*
X53359Y257777D01*
X53355Y257736D01*
X53348Y257714D01*
X53349Y257682D01*
X53341Y257611D01*
X53341Y187652D01*
X43630Y177941D01*
X43577Y177867D01*
X43517Y177797D01*
X43505Y177767D01*
X43486Y177741D01*
X43459Y177654D01*
X43425Y177569D01*
X43421Y177528D01*
X43414Y177506D01*
X43415Y177474D01*
X43407Y177402D01*
X43407Y175602D01*
X40298Y172493D01*
X35902Y172493D01*
G37*
%LPD*%
%LPC*%
G36*
X238268Y353059D02*
X238268Y353059D01*
X232667Y355380D01*
X228380Y359667D01*
X226059Y365268D01*
X226059Y371332D01*
X228380Y376933D01*
X232667Y381220D01*
X238268Y383541D01*
X244332Y383541D01*
X249933Y381220D01*
X254220Y376933D01*
X256541Y371332D01*
X256541Y365268D01*
X254220Y359667D01*
X249933Y355380D01*
X244332Y353059D01*
X238268Y353059D01*
G37*
%LPD*%
%LPC*%
G36*
X98568Y568959D02*
X98568Y568959D01*
X92967Y571280D01*
X88680Y575567D01*
X86359Y581168D01*
X86359Y587232D01*
X88680Y592833D01*
X92967Y597120D01*
X98568Y599441D01*
X104632Y599441D01*
X110233Y597120D01*
X114520Y592833D01*
X116841Y587232D01*
X116841Y581168D01*
X114520Y575567D01*
X110233Y571280D01*
X104632Y568959D01*
X98568Y568959D01*
G37*
%LPD*%
%LPC*%
G36*
X289068Y353059D02*
X289068Y353059D01*
X283467Y355380D01*
X279180Y359667D01*
X276859Y365268D01*
X276859Y371332D01*
X279180Y376933D01*
X283467Y381220D01*
X289068Y383541D01*
X295132Y383541D01*
X300733Y381220D01*
X305020Y376933D01*
X307341Y371332D01*
X307341Y365268D01*
X305020Y359667D01*
X300733Y355380D01*
X295132Y353059D01*
X289068Y353059D01*
G37*
%LPD*%
%LPC*%
G36*
X350076Y12064D02*
X350076Y12064D01*
X342264Y19876D01*
X342264Y30924D01*
X350076Y38736D01*
X361124Y38736D01*
X368936Y30924D01*
X368936Y19876D01*
X361124Y12064D01*
X350076Y12064D01*
G37*
%LPD*%
%LPC*%
G36*
X78958Y483869D02*
X78958Y483869D01*
X77469Y485358D01*
X77469Y505242D01*
X78958Y506731D01*
X98842Y506731D01*
X100331Y505242D01*
X100331Y485358D01*
X98842Y483869D01*
X78958Y483869D01*
G37*
%LPD*%
%LPC*%
G36*
X155282Y291873D02*
X155282Y291873D01*
X152173Y294982D01*
X152173Y296782D01*
X152159Y296872D01*
X152151Y296963D01*
X152139Y296993D01*
X152134Y297025D01*
X152091Y297106D01*
X152055Y297190D01*
X152029Y297222D01*
X152018Y297242D01*
X151995Y297265D01*
X151950Y297320D01*
X124600Y324670D01*
X124527Y324723D01*
X124457Y324783D01*
X124427Y324795D01*
X124401Y324814D01*
X124314Y324841D01*
X124229Y324875D01*
X124188Y324879D01*
X124166Y324886D01*
X124133Y324885D01*
X124062Y324893D01*
X123532Y324893D01*
X120423Y328002D01*
X120423Y332398D01*
X123532Y335507D01*
X127928Y335507D01*
X131037Y332398D01*
X131037Y329328D01*
X131051Y329238D01*
X131059Y329147D01*
X131071Y329117D01*
X131076Y329085D01*
X131119Y329004D01*
X131155Y328920D01*
X131181Y328888D01*
X131192Y328868D01*
X131215Y328845D01*
X131260Y328790D01*
X157340Y302710D01*
X157413Y302657D01*
X157483Y302597D01*
X157513Y302585D01*
X157539Y302566D01*
X157626Y302539D01*
X157711Y302505D01*
X157752Y302501D01*
X157774Y302494D01*
X157807Y302495D01*
X157878Y302487D01*
X159678Y302487D01*
X162787Y299378D01*
X162787Y294982D01*
X159678Y291873D01*
X155282Y291873D01*
G37*
%LPD*%
%LPC*%
G36*
X112026Y483869D02*
X112026Y483869D01*
X107825Y485610D01*
X104610Y488825D01*
X102869Y493026D01*
X102869Y497574D01*
X104610Y501775D01*
X107825Y504990D01*
X112026Y506731D01*
X116574Y506731D01*
X120775Y504990D01*
X123990Y501775D01*
X125731Y497574D01*
X125731Y493026D01*
X123990Y488825D01*
X120775Y485610D01*
X116574Y483869D01*
X112026Y483869D01*
G37*
%LPD*%
%LPC*%
G36*
X366203Y548258D02*
X366203Y548258D01*
X362329Y549863D01*
X359363Y552829D01*
X357758Y556703D01*
X357758Y560897D01*
X359363Y564771D01*
X362329Y567737D01*
X366203Y569342D01*
X370397Y569342D01*
X374271Y567737D01*
X377237Y564771D01*
X378842Y560897D01*
X378842Y556703D01*
X377237Y552829D01*
X374271Y549863D01*
X370397Y548258D01*
X366203Y548258D01*
G37*
%LPD*%
%LPC*%
G36*
X251903Y306958D02*
X251903Y306958D01*
X248029Y308563D01*
X245063Y311529D01*
X243458Y315403D01*
X243458Y319597D01*
X245063Y323471D01*
X248029Y326437D01*
X251903Y328042D01*
X256097Y328042D01*
X259971Y326437D01*
X262937Y323471D01*
X264542Y319597D01*
X264542Y315403D01*
X262937Y311529D01*
X259971Y308563D01*
X256097Y306958D01*
X251903Y306958D01*
G37*
%LPD*%
%LPC*%
G36*
X105853Y433958D02*
X105853Y433958D01*
X101979Y435563D01*
X99013Y438529D01*
X97408Y442403D01*
X97408Y446597D01*
X99013Y450471D01*
X101979Y453437D01*
X105853Y455042D01*
X110047Y455042D01*
X113921Y453437D01*
X116887Y450471D01*
X118492Y446597D01*
X118492Y442403D01*
X116887Y438529D01*
X113921Y435563D01*
X110047Y433958D01*
X105853Y433958D01*
G37*
%LPD*%
%LPC*%
G36*
X107123Y28828D02*
X107123Y28828D01*
X103249Y30433D01*
X100283Y33399D01*
X98678Y37273D01*
X98678Y41467D01*
X100283Y45341D01*
X103249Y48307D01*
X107123Y49912D01*
X111317Y49912D01*
X115191Y48307D01*
X118157Y45341D01*
X119762Y41467D01*
X119762Y37273D01*
X118157Y33399D01*
X115191Y30433D01*
X111317Y28828D01*
X107123Y28828D01*
G37*
%LPD*%
%LPC*%
G36*
X484123Y496823D02*
X484123Y496823D01*
X484123Y514889D01*
X486436Y514585D01*
X488920Y513919D01*
X491297Y512935D01*
X493524Y511649D01*
X495565Y510083D01*
X497383Y508265D01*
X498949Y506224D01*
X500235Y503997D01*
X501219Y501620D01*
X501885Y499136D01*
X502189Y496823D01*
X484123Y496823D01*
G37*
%LPD*%
%LPC*%
G36*
X484123Y493777D02*
X484123Y493777D01*
X502189Y493777D01*
X501885Y491464D01*
X501219Y488980D01*
X500235Y486603D01*
X498949Y484376D01*
X497383Y482335D01*
X495565Y480517D01*
X493524Y478951D01*
X491297Y477665D01*
X488920Y476681D01*
X486436Y476015D01*
X484123Y475711D01*
X484123Y493777D01*
G37*
%LPD*%
%LPC*%
G36*
X463011Y496823D02*
X463011Y496823D01*
X463315Y499136D01*
X463981Y501620D01*
X464965Y503997D01*
X466251Y506224D01*
X467817Y508265D01*
X469635Y510083D01*
X471676Y511649D01*
X473903Y512935D01*
X476280Y513919D01*
X478764Y514585D01*
X481077Y514889D01*
X481077Y496823D01*
X463011Y496823D01*
G37*
%LPD*%
%LPC*%
G36*
X478764Y476015D02*
X478764Y476015D01*
X476280Y476681D01*
X473903Y477665D01*
X471676Y478951D01*
X469635Y480517D01*
X467817Y482335D01*
X466251Y484376D01*
X464965Y486603D01*
X463981Y488980D01*
X463315Y491464D01*
X463011Y493777D01*
X481077Y493777D01*
X481077Y475711D01*
X478764Y476015D01*
G37*
%LPD*%
%LPC*%
G36*
X344423Y369823D02*
X344423Y369823D01*
X344423Y383541D01*
X355934Y383541D01*
X356581Y383368D01*
X357160Y383033D01*
X357633Y382560D01*
X357968Y381981D01*
X358141Y381334D01*
X358141Y369823D01*
X344423Y369823D01*
G37*
%LPD*%
%LPC*%
G36*
X153923Y585723D02*
X153923Y585723D01*
X153923Y599441D01*
X165434Y599441D01*
X166081Y599268D01*
X166660Y598933D01*
X167133Y598460D01*
X167468Y597881D01*
X167641Y597234D01*
X167641Y585723D01*
X153923Y585723D01*
G37*
%LPD*%
%LPC*%
G36*
X137159Y585723D02*
X137159Y585723D01*
X137159Y597234D01*
X137332Y597881D01*
X137667Y598460D01*
X138140Y598933D01*
X138719Y599268D01*
X139366Y599441D01*
X150877Y599441D01*
X150877Y585723D01*
X137159Y585723D01*
G37*
%LPD*%
%LPC*%
G36*
X344423Y353059D02*
X344423Y353059D01*
X344423Y366777D01*
X358141Y366777D01*
X358141Y355266D01*
X357968Y354619D01*
X357633Y354040D01*
X357160Y353567D01*
X356581Y353232D01*
X355934Y353059D01*
X344423Y353059D01*
G37*
%LPD*%
%LPC*%
G36*
X153923Y568959D02*
X153923Y568959D01*
X153923Y582677D01*
X167641Y582677D01*
X167641Y571166D01*
X167468Y570519D01*
X167133Y569940D01*
X166660Y569467D01*
X166081Y569132D01*
X165434Y568959D01*
X153923Y568959D01*
G37*
%LPD*%
%LPC*%
G36*
X327659Y369823D02*
X327659Y369823D01*
X327659Y381334D01*
X327832Y381981D01*
X328167Y382560D01*
X328640Y383033D01*
X329219Y383368D01*
X329866Y383541D01*
X341377Y383541D01*
X341377Y369823D01*
X327659Y369823D01*
G37*
%LPD*%
%LPC*%
G36*
X139366Y568959D02*
X139366Y568959D01*
X138719Y569132D01*
X138140Y569467D01*
X137667Y569940D01*
X137332Y570519D01*
X137159Y571166D01*
X137159Y582677D01*
X150877Y582677D01*
X150877Y568959D01*
X139366Y568959D01*
G37*
%LPD*%
%LPC*%
G36*
X329866Y353059D02*
X329866Y353059D01*
X329219Y353232D01*
X328640Y353567D01*
X328167Y354040D01*
X327832Y354619D01*
X327659Y355266D01*
X327659Y366777D01*
X341377Y366777D01*
X341377Y353059D01*
X329866Y353059D01*
G37*
%LPD*%
%LPC*%
G36*
X484123Y585723D02*
X484123Y585723D01*
X484123Y599389D01*
X486169Y599065D01*
X488450Y598324D01*
X490588Y597235D01*
X492529Y595825D01*
X494225Y594129D01*
X495635Y592188D01*
X496724Y590050D01*
X497465Y587769D01*
X497789Y585723D01*
X484123Y585723D01*
G37*
%LPD*%
%LPC*%
G36*
X433323Y585723D02*
X433323Y585723D01*
X433323Y599389D01*
X435369Y599065D01*
X437650Y598324D01*
X439788Y597235D01*
X441729Y595825D01*
X443425Y594129D01*
X444835Y592188D01*
X445924Y590050D01*
X446665Y587769D01*
X446989Y585723D01*
X433323Y585723D01*
G37*
%LPD*%
%LPC*%
G36*
X484123Y633477D02*
X484123Y633477D01*
X497789Y633477D01*
X497465Y631431D01*
X496724Y629150D01*
X495635Y627012D01*
X494225Y625071D01*
X492529Y623375D01*
X490588Y621965D01*
X488450Y620876D01*
X486169Y620135D01*
X484123Y619811D01*
X484123Y633477D01*
G37*
%LPD*%
%LPC*%
G36*
X484123Y582677D02*
X484123Y582677D01*
X497789Y582677D01*
X497465Y580631D01*
X496724Y578350D01*
X495635Y576212D01*
X494225Y574271D01*
X492529Y572575D01*
X490588Y571165D01*
X488450Y570076D01*
X486169Y569335D01*
X484123Y569011D01*
X484123Y582677D01*
G37*
%LPD*%
%LPC*%
G36*
X433323Y582677D02*
X433323Y582677D01*
X446989Y582677D01*
X446665Y580631D01*
X445924Y578350D01*
X444835Y576212D01*
X443425Y574271D01*
X441729Y572575D01*
X439788Y571165D01*
X437650Y570076D01*
X435369Y569335D01*
X433323Y569011D01*
X433323Y582677D01*
G37*
%LPD*%
%LPC*%
G36*
X433323Y633477D02*
X433323Y633477D01*
X446989Y633477D01*
X446665Y631431D01*
X445924Y629150D01*
X444835Y627012D01*
X443425Y625071D01*
X441729Y623375D01*
X439788Y621965D01*
X437650Y620876D01*
X435369Y620135D01*
X433323Y619811D01*
X433323Y633477D01*
G37*
%LPD*%
%LPC*%
G36*
X467411Y585723D02*
X467411Y585723D01*
X467735Y587769D01*
X468476Y590050D01*
X469565Y592188D01*
X470975Y594129D01*
X472671Y595825D01*
X474612Y597235D01*
X476750Y598324D01*
X479031Y599065D01*
X481077Y599389D01*
X481077Y585723D01*
X467411Y585723D01*
G37*
%LPD*%
%LPC*%
G36*
X416611Y585723D02*
X416611Y585723D01*
X416935Y587769D01*
X417676Y590050D01*
X418765Y592188D01*
X420175Y594129D01*
X421871Y595825D01*
X423812Y597235D01*
X425950Y598324D01*
X428231Y599065D01*
X430277Y599389D01*
X430277Y585723D01*
X416611Y585723D01*
G37*
%LPD*%
%LPC*%
G36*
X428231Y569335D02*
X428231Y569335D01*
X425950Y570076D01*
X423812Y571165D01*
X421871Y572575D01*
X420175Y574271D01*
X418765Y576212D01*
X417676Y578350D01*
X416935Y580631D01*
X416611Y582677D01*
X430277Y582677D01*
X430277Y569011D01*
X428231Y569335D01*
G37*
%LPD*%
%LPC*%
G36*
X479031Y620135D02*
X479031Y620135D01*
X476750Y620876D01*
X474612Y621965D01*
X472671Y623375D01*
X470975Y625071D01*
X469565Y627012D01*
X468476Y629150D01*
X467735Y631431D01*
X467411Y633477D01*
X481077Y633477D01*
X481077Y619811D01*
X479031Y620135D01*
G37*
%LPD*%
%LPC*%
G36*
X428231Y620135D02*
X428231Y620135D01*
X425950Y620876D01*
X423812Y621965D01*
X421871Y623375D01*
X420175Y625071D01*
X418765Y627012D01*
X417676Y629150D01*
X416935Y631431D01*
X416611Y633477D01*
X430277Y633477D01*
X430277Y619811D01*
X428231Y620135D01*
G37*
%LPD*%
%LPC*%
G36*
X479031Y569335D02*
X479031Y569335D01*
X476750Y570076D01*
X474612Y571165D01*
X472671Y572575D01*
X470975Y574271D01*
X469565Y576212D01*
X468476Y578350D01*
X467735Y580631D01*
X467411Y582677D01*
X481077Y582677D01*
X481077Y569011D01*
X479031Y569335D01*
G37*
%LPD*%
%LPC*%
G36*
X319023Y623823D02*
X319023Y623823D01*
X319023Y635636D01*
X323024Y635636D01*
X330836Y627824D01*
X330836Y623823D01*
X319023Y623823D01*
G37*
%LPD*%
%LPC*%
G36*
X217423Y623823D02*
X217423Y623823D01*
X217423Y635636D01*
X221424Y635636D01*
X229236Y627824D01*
X229236Y623823D01*
X217423Y623823D01*
G37*
%LPD*%
%LPC*%
G36*
X369823Y623823D02*
X369823Y623823D01*
X369823Y635636D01*
X373824Y635636D01*
X381636Y627824D01*
X381636Y623823D01*
X369823Y623823D01*
G37*
%LPD*%
%LPC*%
G36*
X217423Y608964D02*
X217423Y608964D01*
X217423Y620777D01*
X229236Y620777D01*
X229236Y616776D01*
X221424Y608964D01*
X217423Y608964D01*
G37*
%LPD*%
%LPC*%
G36*
X354964Y623823D02*
X354964Y623823D01*
X354964Y627824D01*
X362776Y635636D01*
X366777Y635636D01*
X366777Y623823D01*
X354964Y623823D01*
G37*
%LPD*%
%LPC*%
G36*
X202564Y623823D02*
X202564Y623823D01*
X202564Y627824D01*
X210376Y635636D01*
X214377Y635636D01*
X214377Y623823D01*
X202564Y623823D01*
G37*
%LPD*%
%LPC*%
G36*
X304164Y623823D02*
X304164Y623823D01*
X304164Y627824D01*
X311976Y635636D01*
X315977Y635636D01*
X315977Y623823D01*
X304164Y623823D01*
G37*
%LPD*%
%LPC*%
G36*
X242823Y12064D02*
X242823Y12064D01*
X242823Y23877D01*
X254636Y23877D01*
X254636Y19876D01*
X246824Y12064D01*
X242823Y12064D01*
G37*
%LPD*%
%LPC*%
G36*
X235776Y12064D02*
X235776Y12064D01*
X227964Y19876D01*
X227964Y23877D01*
X239777Y23877D01*
X239777Y12064D01*
X235776Y12064D01*
G37*
%LPD*%
%LPC*%
G36*
X210376Y608964D02*
X210376Y608964D01*
X202564Y616776D01*
X202564Y620777D01*
X214377Y620777D01*
X214377Y608964D01*
X210376Y608964D01*
G37*
%LPD*%
%LPC*%
G36*
X493623Y255523D02*
X493623Y255523D01*
X493623Y264041D01*
X498934Y264041D01*
X499581Y263868D01*
X500160Y263533D01*
X500633Y263060D01*
X500968Y262481D01*
X501141Y261834D01*
X501141Y255523D01*
X493623Y255523D01*
G37*
%LPD*%
%LPC*%
G36*
X493623Y230123D02*
X493623Y230123D01*
X493623Y238641D01*
X498934Y238641D01*
X499581Y238468D01*
X500160Y238133D01*
X500633Y237660D01*
X500968Y237081D01*
X501141Y236434D01*
X501141Y230123D01*
X493623Y230123D01*
G37*
%LPD*%
%LPC*%
G36*
X277723Y204723D02*
X277723Y204723D01*
X277723Y213241D01*
X283034Y213241D01*
X283681Y213068D01*
X284260Y212733D01*
X284733Y212260D01*
X285068Y211681D01*
X285241Y211034D01*
X285241Y204723D01*
X277723Y204723D01*
G37*
%LPD*%
%LPC*%
G36*
X493623Y218559D02*
X493623Y218559D01*
X493623Y227077D01*
X501141Y227077D01*
X501141Y220766D01*
X500968Y220119D01*
X500633Y219540D01*
X500160Y219067D01*
X499581Y218732D01*
X498934Y218559D01*
X493623Y218559D01*
G37*
%LPD*%
%LPC*%
G36*
X493623Y243959D02*
X493623Y243959D01*
X493623Y252477D01*
X501141Y252477D01*
X501141Y246166D01*
X500968Y245519D01*
X500633Y244940D01*
X500160Y244467D01*
X499581Y244132D01*
X498934Y243959D01*
X493623Y243959D01*
G37*
%LPD*%
%LPC*%
G36*
X83059Y255523D02*
X83059Y255523D01*
X83059Y261834D01*
X83232Y262481D01*
X83567Y263060D01*
X84040Y263533D01*
X84619Y263868D01*
X85266Y264041D01*
X90577Y264041D01*
X90577Y255523D01*
X83059Y255523D01*
G37*
%LPD*%
%LPC*%
G36*
X85266Y243959D02*
X85266Y243959D01*
X84619Y244132D01*
X84040Y244467D01*
X83567Y244940D01*
X83232Y245519D01*
X83059Y246166D01*
X83059Y252477D01*
X90577Y252477D01*
X90577Y243959D01*
X85266Y243959D01*
G37*
%LPD*%
%LPC*%
G36*
X471423Y446023D02*
X471423Y446023D01*
X471423Y455042D01*
X474267Y455042D01*
X480442Y448867D01*
X480442Y446023D01*
X471423Y446023D01*
G37*
%LPD*%
%LPC*%
G36*
X369823Y585723D02*
X369823Y585723D01*
X369823Y594742D01*
X372667Y594742D01*
X378842Y588567D01*
X378842Y585723D01*
X369823Y585723D01*
G37*
%LPD*%
%LPC*%
G36*
X217423Y585723D02*
X217423Y585723D01*
X217423Y594742D01*
X220267Y594742D01*
X226442Y588567D01*
X226442Y585723D01*
X217423Y585723D01*
G37*
%LPD*%
%LPC*%
G36*
X134873Y446023D02*
X134873Y446023D01*
X134873Y455042D01*
X137717Y455042D01*
X143892Y448867D01*
X143892Y446023D01*
X134873Y446023D01*
G37*
%LPD*%
%LPC*%
G36*
X136143Y40893D02*
X136143Y40893D01*
X136143Y49912D01*
X138987Y49912D01*
X145162Y43737D01*
X145162Y40893D01*
X136143Y40893D01*
G37*
%LPD*%
%LPC*%
G36*
X179323Y39623D02*
X179323Y39623D01*
X179323Y48642D01*
X182167Y48642D01*
X188342Y42467D01*
X188342Y39623D01*
X179323Y39623D01*
G37*
%LPD*%
%LPC*%
G36*
X280923Y319023D02*
X280923Y319023D01*
X280923Y328042D01*
X283767Y328042D01*
X289942Y321867D01*
X289942Y319023D01*
X280923Y319023D01*
G37*
%LPD*%
%LPC*%
G36*
X344423Y319023D02*
X344423Y319023D01*
X344423Y328042D01*
X347267Y328042D01*
X353442Y321867D01*
X353442Y319023D01*
X344423Y319023D01*
G37*
%LPD*%
%LPC*%
G36*
X122808Y446023D02*
X122808Y446023D01*
X122808Y448867D01*
X128983Y455042D01*
X131827Y455042D01*
X131827Y446023D01*
X122808Y446023D01*
G37*
%LPD*%
%LPC*%
G36*
X217423Y573658D02*
X217423Y573658D01*
X217423Y582677D01*
X226442Y582677D01*
X226442Y579833D01*
X220267Y573658D01*
X217423Y573658D01*
G37*
%LPD*%
%LPC*%
G36*
X124078Y40893D02*
X124078Y40893D01*
X124078Y43737D01*
X130253Y49912D01*
X133097Y49912D01*
X133097Y40893D01*
X124078Y40893D01*
G37*
%LPD*%
%LPC*%
G36*
X167258Y39623D02*
X167258Y39623D01*
X167258Y42467D01*
X173433Y48642D01*
X176277Y48642D01*
X176277Y39623D01*
X167258Y39623D01*
G37*
%LPD*%
%LPC*%
G36*
X268858Y319023D02*
X268858Y319023D01*
X268858Y321867D01*
X275033Y328042D01*
X277877Y328042D01*
X277877Y319023D01*
X268858Y319023D01*
G37*
%LPD*%
%LPC*%
G36*
X369823Y573658D02*
X369823Y573658D01*
X369823Y582677D01*
X378842Y582677D01*
X378842Y579833D01*
X372667Y573658D01*
X369823Y573658D01*
G37*
%LPD*%
%LPC*%
G36*
X459358Y446023D02*
X459358Y446023D01*
X459358Y448867D01*
X465533Y455042D01*
X468377Y455042D01*
X468377Y446023D01*
X459358Y446023D01*
G37*
%LPD*%
%LPC*%
G36*
X357758Y585723D02*
X357758Y585723D01*
X357758Y588567D01*
X363933Y594742D01*
X366777Y594742D01*
X366777Y585723D01*
X357758Y585723D01*
G37*
%LPD*%
%LPC*%
G36*
X205358Y585723D02*
X205358Y585723D01*
X205358Y588567D01*
X211533Y594742D01*
X214377Y594742D01*
X214377Y585723D01*
X205358Y585723D01*
G37*
%LPD*%
%LPC*%
G36*
X136143Y28828D02*
X136143Y28828D01*
X136143Y37847D01*
X145162Y37847D01*
X145162Y35003D01*
X138987Y28828D01*
X136143Y28828D01*
G37*
%LPD*%
%LPC*%
G36*
X134873Y433958D02*
X134873Y433958D01*
X134873Y442977D01*
X143892Y442977D01*
X143892Y440133D01*
X137717Y433958D01*
X134873Y433958D01*
G37*
%LPD*%
%LPC*%
G36*
X471423Y433958D02*
X471423Y433958D01*
X471423Y442977D01*
X480442Y442977D01*
X480442Y440133D01*
X474267Y433958D01*
X471423Y433958D01*
G37*
%LPD*%
%LPC*%
G36*
X179323Y27558D02*
X179323Y27558D01*
X179323Y36577D01*
X188342Y36577D01*
X188342Y33733D01*
X182167Y27558D01*
X179323Y27558D01*
G37*
%LPD*%
%LPC*%
G36*
X344423Y306958D02*
X344423Y306958D01*
X344423Y315977D01*
X353442Y315977D01*
X353442Y313133D01*
X347267Y306958D01*
X344423Y306958D01*
G37*
%LPD*%
%LPC*%
G36*
X471423Y27558D02*
X471423Y27558D01*
X471423Y36577D01*
X480442Y36577D01*
X480442Y33733D01*
X474267Y27558D01*
X471423Y27558D01*
G37*
%LPD*%
%LPC*%
G36*
X280923Y306958D02*
X280923Y306958D01*
X280923Y315977D01*
X289942Y315977D01*
X289942Y313133D01*
X283767Y306958D01*
X280923Y306958D01*
G37*
%LPD*%
%LPC*%
G36*
X363933Y573658D02*
X363933Y573658D01*
X357758Y579833D01*
X357758Y582677D01*
X366777Y582677D01*
X366777Y573658D01*
X363933Y573658D01*
G37*
%LPD*%
%LPC*%
G36*
X275033Y306958D02*
X275033Y306958D01*
X268858Y313133D01*
X268858Y315977D01*
X277877Y315977D01*
X277877Y306958D01*
X275033Y306958D01*
G37*
%LPD*%
%LPC*%
G36*
X211533Y573658D02*
X211533Y573658D01*
X205358Y579833D01*
X205358Y582677D01*
X214377Y582677D01*
X214377Y573658D01*
X211533Y573658D01*
G37*
%LPD*%
%LPC*%
G36*
X465533Y433958D02*
X465533Y433958D01*
X459358Y440133D01*
X459358Y442977D01*
X468377Y442977D01*
X468377Y433958D01*
X465533Y433958D01*
G37*
%LPD*%
%LPC*%
G36*
X130253Y28828D02*
X130253Y28828D01*
X124078Y35003D01*
X124078Y37847D01*
X133097Y37847D01*
X133097Y28828D01*
X130253Y28828D01*
G37*
%LPD*%
%LPC*%
G36*
X465533Y27558D02*
X465533Y27558D01*
X459358Y33733D01*
X459358Y36577D01*
X468377Y36577D01*
X468377Y27558D01*
X465533Y27558D01*
G37*
%LPD*%
%LPC*%
G36*
X173433Y27558D02*
X173433Y27558D01*
X167258Y33733D01*
X167258Y36577D01*
X176277Y36577D01*
X176277Y27558D01*
X173433Y27558D01*
G37*
%LPD*%
%LPC*%
G36*
X128983Y433958D02*
X128983Y433958D01*
X122808Y440133D01*
X122808Y442977D01*
X131827Y442977D01*
X131827Y433958D01*
X128983Y433958D01*
G37*
%LPD*%
%LPC*%
G36*
X383099Y236449D02*
X383099Y236449D01*
X383099Y240491D01*
X392934Y240491D01*
X393581Y240318D01*
X394160Y239983D01*
X394633Y239510D01*
X394968Y238931D01*
X395141Y238284D01*
X395141Y236449D01*
X383099Y236449D01*
G37*
%LPD*%
%LPC*%
G36*
X368059Y236449D02*
X368059Y236449D01*
X368059Y238284D01*
X368232Y238931D01*
X368567Y239510D01*
X369040Y239983D01*
X369619Y240318D01*
X370266Y240491D01*
X380101Y240491D01*
X380101Y236449D01*
X368059Y236449D01*
G37*
%LPD*%
%LPC*%
G36*
X268799Y233451D02*
X268799Y233451D01*
X280841Y233451D01*
X280841Y231616D01*
X280668Y230969D01*
X280333Y230390D01*
X279860Y229917D01*
X279281Y229582D01*
X278634Y229409D01*
X268799Y229409D01*
X268799Y233451D01*
G37*
%LPD*%
%LPC*%
G36*
X383099Y233451D02*
X383099Y233451D01*
X395141Y233451D01*
X395141Y231616D01*
X394968Y230969D01*
X394633Y230390D01*
X394160Y229917D01*
X393581Y229582D01*
X392934Y229409D01*
X383099Y229409D01*
X383099Y233451D01*
G37*
%LPD*%
%LPC*%
G36*
X370266Y229409D02*
X370266Y229409D01*
X369619Y229582D01*
X369040Y229917D01*
X368567Y230390D01*
X368232Y230969D01*
X368059Y231616D01*
X368059Y233451D01*
X380101Y233451D01*
X380101Y229409D01*
X370266Y229409D01*
G37*
%LPD*%
%LPC*%
G36*
X279399Y317499D02*
X279399Y317499D01*
X279399Y317501D01*
X279401Y317501D01*
X279401Y317499D01*
X279399Y317499D01*
G37*
%LPD*%
%LPC*%
G36*
X215899Y584199D02*
X215899Y584199D01*
X215899Y584201D01*
X215901Y584201D01*
X215901Y584199D01*
X215899Y584199D01*
G37*
%LPD*%
%LPC*%
G36*
X368299Y584199D02*
X368299Y584199D01*
X368299Y584201D01*
X368301Y584201D01*
X368301Y584199D01*
X368299Y584199D01*
G37*
%LPD*%
%LPC*%
G36*
X482599Y584199D02*
X482599Y584199D01*
X482599Y584201D01*
X482601Y584201D01*
X482601Y584199D01*
X482599Y584199D01*
G37*
%LPD*%
%LPC*%
G36*
X431799Y584199D02*
X431799Y584199D01*
X431799Y584201D01*
X431801Y584201D01*
X431801Y584199D01*
X431799Y584199D01*
G37*
%LPD*%
%LPC*%
G36*
X215899Y622299D02*
X215899Y622299D01*
X215899Y622301D01*
X215901Y622301D01*
X215901Y622299D01*
X215899Y622299D01*
G37*
%LPD*%
%LPC*%
G36*
X133349Y444499D02*
X133349Y444499D01*
X133349Y444501D01*
X133351Y444501D01*
X133351Y444499D01*
X133349Y444499D01*
G37*
%LPD*%
%LPC*%
G36*
X469899Y444499D02*
X469899Y444499D01*
X469899Y444501D01*
X469901Y444501D01*
X469901Y444499D01*
X469899Y444499D01*
G37*
%LPD*%
%LPC*%
G36*
X152399Y584199D02*
X152399Y584199D01*
X152399Y584201D01*
X152401Y584201D01*
X152401Y584199D01*
X152399Y584199D01*
G37*
%LPD*%
%LPC*%
G36*
X342899Y368299D02*
X342899Y368299D01*
X342899Y368301D01*
X342901Y368301D01*
X342901Y368299D01*
X342899Y368299D01*
G37*
%LPD*%
%LPC*%
G36*
X482599Y495299D02*
X482599Y495299D01*
X482599Y495301D01*
X482601Y495301D01*
X482601Y495299D01*
X482599Y495299D01*
G37*
%LPD*%
%LPC*%
G36*
X177799Y38099D02*
X177799Y38099D01*
X177799Y38101D01*
X177801Y38101D01*
X177801Y38099D01*
X177799Y38099D01*
G37*
%LPD*%
%LPC*%
G36*
X134619Y39369D02*
X134619Y39369D01*
X134619Y39371D01*
X134621Y39371D01*
X134621Y39369D01*
X134619Y39369D01*
G37*
%LPD*%
D10*
X266700Y622300D03*
D11*
X133350Y444500D03*
D12*
X107950Y444500D03*
D11*
X469900Y444500D03*
D12*
X444500Y444500D03*
D11*
X469900Y38100D03*
D12*
X444500Y38100D03*
D13*
X215900Y584200D03*
D12*
X215900Y558800D03*
D14*
X177800Y38100D03*
D12*
X203200Y38100D03*
D15*
X174600Y279400D03*
X155600Y279400D03*
D11*
X279400Y317500D03*
D12*
X254000Y317500D03*
D15*
X111100Y279400D03*
X92100Y279400D03*
X422300Y254000D03*
X441300Y254000D03*
D11*
X342900Y317500D03*
D12*
X317500Y317500D03*
D15*
X473100Y279400D03*
X492100Y279400D03*
D11*
X134620Y39370D03*
D12*
X109220Y39370D03*
D16*
X152400Y584200D03*
D17*
X101600Y584200D03*
X50800Y584200D03*
D10*
X317500Y622300D03*
X241300Y25400D03*
X215900Y622300D03*
X368300Y622300D03*
D18*
X267300Y260350D03*
X215300Y260350D03*
X267300Y273050D03*
X267300Y247650D03*
X267300Y234950D03*
X215300Y273050D03*
X215300Y247650D03*
X215300Y234950D03*
X381600Y260350D03*
X329600Y260350D03*
X381600Y273050D03*
X381600Y247650D03*
X381600Y234950D03*
X329600Y273050D03*
X329600Y247650D03*
X329600Y234950D03*
D10*
X317500Y25400D03*
D16*
X342900Y368300D03*
D17*
X292100Y368300D03*
X241300Y368300D03*
D19*
X435610Y495300D03*
D20*
X482600Y495300D03*
X529590Y495300D03*
D10*
X355600Y25400D03*
D15*
X225400Y203200D03*
X206400Y203200D03*
X276200Y203200D03*
X257200Y203200D03*
X257200Y292100D03*
X276200Y292100D03*
X174600Y254000D03*
X155600Y254000D03*
X174600Y228600D03*
X155600Y228600D03*
X155600Y203200D03*
X174600Y203200D03*
X111100Y254000D03*
X92100Y254000D03*
X441300Y203200D03*
X422300Y203200D03*
X492100Y228600D03*
X473100Y228600D03*
X441300Y228600D03*
X422300Y228600D03*
X390500Y203200D03*
X371500Y203200D03*
X320700Y203200D03*
X339700Y203200D03*
X441300Y279400D03*
X422300Y279400D03*
X473100Y254000D03*
X492100Y254000D03*
D16*
X533400Y584200D03*
D17*
X482600Y584200D03*
X431800Y584200D03*
D16*
X533400Y635000D03*
D17*
X482600Y635000D03*
X431800Y635000D03*
D21*
X114300Y495300D03*
D22*
X88900Y495300D03*
D10*
X279400Y25400D03*
D13*
X368300Y584200D03*
D12*
X368300Y558800D03*
D23*
X266700Y127000D03*
D24*
X203200Y63500D01*
X203200Y38100D01*
D23*
X171450Y181610D03*
D24*
X226060Y127000D01*
X241300Y127000D01*
D23*
X241300Y127000D03*
X294640Y248920D03*
D24*
X285750Y57150D02*
X317500Y25400D01*
X285750Y180340D02*
X287020Y181610D01*
X285750Y180340D02*
X285750Y57150D01*
X294640Y228600D02*
X294640Y248920D01*
D23*
X294640Y228600D03*
X287020Y181610D03*
X266700Y152400D03*
X381000Y393700D03*
X330200Y520700D03*
X241300Y76200D03*
X127000Y259186D03*
X63500Y419100D03*
X177800Y457200D03*
X406356Y228556D03*
X66988Y139700D03*
X152400Y508000D03*
X391956Y49056D03*
X330200Y457200D03*
X444500Y393700D03*
D25*
X330200Y457200D02*
X292100Y419100D01*
X88900Y419100D01*
D23*
X88900Y419100D03*
D25*
X342900Y444500D02*
X375201Y444500D01*
X342900Y444500D02*
X330200Y457200D01*
X426001Y393700D02*
X444500Y393700D01*
X426001Y393700D02*
X375201Y444500D01*
X63500Y393700D02*
X63500Y161290D01*
D23*
X63500Y161290D03*
D25*
X63500Y393700D02*
X88900Y419100D01*
D24*
X107950Y330200D02*
X107950Y295250D01*
D23*
X107950Y330200D03*
D24*
X100790Y288090D02*
X92100Y279400D01*
X100790Y288090D02*
X100790Y288478D01*
X103022Y290710D01*
X103410Y290710D01*
X107950Y295250D01*
D25*
X546100Y12700D02*
X568200Y34800D01*
X568200Y600200D02*
X561975Y606425D01*
X431800Y12700D02*
X406400Y12700D01*
X431800Y12700D02*
X546100Y12700D01*
X568200Y34800D02*
X568200Y600200D01*
D23*
X304800Y218440D03*
D25*
X225651Y558800D02*
X215900Y558800D01*
D23*
X317500Y152400D03*
D24*
X245336Y263074D02*
X235360Y273050D01*
X215300Y273050D01*
X217322Y214510D02*
X227210Y214510D01*
X217322Y214510D02*
X215090Y212278D01*
X215090Y211890D01*
X206400Y203200D01*
X227210Y214510D02*
X245336Y232636D01*
X245336Y263074D01*
X215090Y194510D02*
X215090Y194122D01*
X215090Y194510D02*
X206400Y203200D01*
X215090Y194122D02*
X218712Y190500D01*
X304800Y190500D01*
D25*
X317500Y152400D02*
X342900Y127000D01*
X342900Y76200D01*
X406400Y12700D01*
X317500Y152400D02*
X317500Y177800D01*
D24*
X304800Y218440D02*
X304800Y245878D01*
X304630Y246048D01*
X312608Y329311D02*
X322392Y329311D01*
X329311Y322392D01*
X304630Y321333D02*
X304630Y246048D01*
X304630Y321333D02*
X312608Y329311D01*
X329311Y273339D02*
X329600Y273050D01*
X329311Y273339D02*
X329311Y322392D01*
D25*
X304800Y190500D02*
X317500Y177800D01*
X304800Y190500D02*
X304800Y218440D01*
D24*
X422300Y203200D02*
X422300Y22200D01*
X431800Y12700D01*
D25*
X561975Y606425D02*
X273276Y606425D01*
X225651Y558800D01*
D23*
X381000Y419100D03*
D24*
X317500Y419100D01*
X292100Y393700D02*
X190500Y393700D01*
X165100Y368300D01*
X127000Y368300D01*
D23*
X127000Y368300D03*
D24*
X292100Y393700D02*
X317500Y419100D01*
X368300Y406400D02*
X381000Y419100D01*
X368300Y406400D02*
X368300Y381000D01*
X393700Y355600D02*
X508000Y355600D01*
X558800Y304800D01*
X558800Y179070D01*
D23*
X558800Y179070D03*
D24*
X393700Y355600D02*
X368300Y381000D01*
D23*
X38100Y177800D03*
X49530Y261620D03*
D24*
X49530Y189230D01*
X38100Y177800D01*
D23*
X508000Y317500D03*
D24*
X482600Y342900D01*
D23*
X127000Y342900D03*
D24*
X482600Y342900D01*
D23*
X533400Y266700D03*
X558800Y127000D03*
D24*
X538132Y147668D02*
X538132Y170953D01*
X538132Y147668D02*
X558800Y127000D01*
X538132Y170953D02*
X533400Y175685D01*
X533400Y266700D01*
X444500Y327000D02*
X444500Y330200D01*
D23*
X444500Y330200D03*
D24*
X483410Y288090D02*
X492100Y279400D01*
X483410Y288090D02*
X483410Y288478D01*
X481178Y290710D01*
X480790Y290710D01*
X444500Y327000D01*
D23*
X457200Y419100D03*
X407670Y436880D03*
D24*
X443611Y432689D02*
X457200Y419100D01*
X443611Y432689D02*
X439608Y432689D01*
X435417Y436880D01*
X407670Y436880D01*
D23*
X504190Y177800D03*
D24*
X464820Y177800D01*
D23*
X464820Y177800D03*
X431800Y50800D03*
D24*
X469900Y50800D01*
X482600Y63500D01*
D23*
X482600Y63500D03*
X431800Y63500D03*
D24*
X444500Y63500D01*
X469900Y88900D01*
D23*
X469900Y88900D03*
X533052Y101252D03*
X508000Y241300D03*
D24*
X533052Y168848D02*
X533052Y101252D01*
X533052Y168848D02*
X526824Y175076D01*
X526824Y222476D02*
X508000Y241300D01*
X526824Y222476D02*
X526824Y175076D01*
D23*
X504190Y128270D03*
X508000Y228600D03*
D24*
X504190Y168500D02*
X504190Y128270D01*
X504190Y168500D02*
X510766Y175076D01*
X510766Y180524D01*
X508000Y183290D01*
X508000Y228600D01*
D23*
X152400Y533400D03*
D24*
X63500Y533400D01*
X25400Y495300D01*
D23*
X38464Y203532D03*
D24*
X25400Y216596D01*
X25400Y495300D01*
D23*
X292326Y126894D03*
D24*
X303756Y138324D02*
X303756Y173764D01*
X303756Y138324D02*
X292326Y126894D01*
X303756Y173764D02*
X298793Y178727D01*
D23*
X298793Y178727D03*
X317500Y44450D03*
D24*
X318770Y45720D01*
X318770Y127000D01*
D23*
X318770Y127000D03*
D24*
X267300Y245100D02*
X267300Y247650D01*
X254722Y241760D02*
X252490Y239528D01*
X254722Y241760D02*
X263960Y241760D01*
X267300Y245100D01*
X252490Y207910D02*
X257200Y203200D01*
X252490Y207910D02*
X252490Y239528D01*
X279878Y253540D02*
X282110Y255772D01*
X279878Y253540D02*
X273190Y253540D01*
X267300Y247650D01*
X276200Y283538D02*
X276200Y292100D01*
X276200Y283538D02*
X282110Y277628D01*
X282110Y255772D01*
X257200Y203200D02*
X225400Y203200D01*
X164290Y288478D02*
X166522Y290710D01*
X164290Y288090D02*
X155600Y279400D01*
X164290Y288090D02*
X164290Y288478D01*
X145290Y263078D02*
X145290Y244922D01*
X155600Y234612D02*
X155600Y228600D01*
X155600Y273388D02*
X155600Y279400D01*
X145290Y244922D02*
X155600Y234612D01*
X145290Y263078D02*
X155600Y273388D01*
X255810Y290710D02*
X257200Y292100D01*
X255810Y290710D02*
X166522Y290710D01*
X257200Y292100D02*
X257200Y283150D01*
X267300Y273050D01*
X202262Y279400D02*
X174600Y279400D01*
X202262Y279400D02*
X202722Y279860D01*
X260350Y260350D02*
X267300Y260350D01*
X240840Y279860D02*
X202722Y279860D01*
X240840Y279860D02*
X260350Y260350D01*
X174600Y273000D02*
X174600Y279400D01*
X164290Y262690D02*
X155600Y254000D01*
X164290Y262690D02*
X164290Y263078D01*
X166522Y265310D01*
X166910Y265310D01*
X174600Y273000D01*
X232110Y251760D02*
X233680Y250190D01*
D23*
X233680Y250190D03*
D24*
X221190Y240840D02*
X215300Y234950D01*
X221190Y240840D02*
X227878Y240840D01*
X230110Y243072D01*
X230110Y249760D01*
X232110Y251760D01*
X174600Y254000D02*
X174600Y228600D01*
X193650Y234950D02*
X174600Y254000D01*
X193650Y234950D02*
X215300Y234950D01*
X215300Y243900D02*
X215300Y247650D01*
X215300Y260350D01*
X199540Y228140D02*
X174600Y203200D01*
X199540Y228140D02*
X227878Y228140D01*
X230006Y256840D02*
X236330Y256840D01*
X240256Y252914D01*
X240256Y240518D01*
X227878Y228140D01*
X217066Y243900D02*
X215300Y243900D01*
X217066Y243900D02*
X230006Y256840D01*
X111100Y254000D02*
X111100Y279400D01*
X136500Y203200D02*
X155600Y203200D01*
X136500Y203200D02*
X111100Y228600D01*
X111100Y254000D01*
X381600Y247650D02*
X403250Y247650D01*
X413290Y237610D02*
X422300Y228600D01*
X413290Y237610D02*
X412118Y237610D01*
X406910Y242818D02*
X406910Y243990D01*
X403250Y247650D01*
X406910Y242818D02*
X412118Y237610D01*
X441300Y209600D02*
X441300Y203200D01*
X430990Y219910D02*
X422300Y228600D01*
X430990Y219910D02*
X430990Y219522D01*
X433222Y217290D01*
X433610Y217290D01*
X441300Y209600D01*
X441300Y203200D02*
X466700Y228600D01*
X473100Y228600D01*
X409262Y273050D02*
X381600Y273050D01*
X342900Y206400D02*
X339700Y203200D01*
X342900Y228862D02*
X344410Y230372D01*
X342900Y228862D02*
X342900Y206400D01*
X369134Y273050D02*
X381600Y273050D01*
X369134Y273050D02*
X344410Y248326D01*
X344410Y230372D01*
X432610Y262690D02*
X441300Y254000D01*
X432610Y262690D02*
X432610Y263078D01*
X414222Y268090D02*
X409262Y273050D01*
X427598Y268090D02*
X432610Y263078D01*
X427598Y268090D02*
X414222Y268090D01*
X441300Y254000D02*
X441300Y228600D01*
X381600Y260350D02*
X381000Y260350D01*
X371500Y203200D02*
X368300Y203200D01*
X355600Y215900D01*
X369022Y254460D02*
X375110Y254460D01*
X381000Y260350D01*
X369022Y254460D02*
X355600Y241038D01*
X355600Y215900D01*
X415950Y260350D02*
X422300Y254000D01*
X415950Y260350D02*
X381600Y260350D01*
X329600Y234950D02*
X323710Y240840D01*
X317022Y240840D01*
X317500Y287522D02*
X317500Y317500D01*
X317500Y287522D02*
X309710Y279732D01*
X309710Y248152D02*
X317022Y240840D01*
X309710Y248152D02*
X309710Y279732D01*
X329600Y234950D02*
X329600Y212488D01*
X329390Y212278D01*
X329390Y211890D01*
X320700Y203200D01*
X329390Y194122D02*
X331622Y191890D01*
X379578Y191890D02*
X381810Y194122D01*
X329390Y194510D02*
X320700Y203200D01*
X329390Y194510D02*
X329390Y194122D01*
X381810Y194122D02*
X381810Y194510D01*
X390500Y203200D01*
X379578Y191890D02*
X331622Y191890D01*
X329600Y247650D02*
X329600Y260350D01*
X335490Y266240D01*
X342178Y266240D01*
X342638Y266700D01*
X342900Y266700D01*
X368760Y292560D01*
X381000Y292560D02*
X384524Y292560D01*
X381000Y292560D02*
X368760Y292560D01*
X409140Y292560D02*
X422300Y279400D01*
X409140Y292560D02*
X384524Y292560D01*
X473100Y279400D02*
X473100Y254000D01*
X473100Y279400D02*
X441300Y279400D01*
D23*
X38100Y444500D03*
X38100Y228600D03*
D24*
X38100Y444500D01*
D23*
X125730Y330200D03*
D24*
X125730Y328930D01*
X157480Y297180D01*
D23*
X157480Y297180D03*
X228600Y431800D03*
D24*
X165100Y558800D02*
X76200Y558800D01*
X50800Y584200D01*
X228600Y495300D02*
X228600Y431800D01*
X228600Y495300D02*
X165100Y558800D01*
D23*
X393700Y520700D03*
D24*
X525447Y520700D02*
X533400Y528653D01*
X525447Y520700D02*
X393700Y520700D01*
X533400Y528653D02*
X533400Y584200D01*
X13942Y508000D02*
X13942Y36858D01*
X38100Y12700D01*
X235250Y40005D02*
X247350Y40005D01*
X207945Y12700D02*
X38100Y12700D01*
X247350Y40005D02*
X249255Y38100D01*
X266700Y38100D01*
X235250Y40005D02*
X207945Y12700D01*
X266700Y38100D02*
X279400Y25400D01*
D23*
X38100Y530860D03*
D24*
X36802Y530860D01*
X13942Y508000D01*
M02*
