G04 EAGLE Gerber RS-274X export*
G75*
%MOMM*%
%FSLAX34Y34*%
%LPD*%
%INVias*%
%IPPOS*%
%AMOC8*
5,1,8,0,0,1.08239X$1,22.5*%
G01*
%ADD10C,0.756400*%


D10*
X266700Y127000D03*
X171450Y181610D03*
X241300Y127000D03*
X294640Y248920D03*
X294640Y228600D03*
X287020Y181610D03*
X266700Y152400D03*
X381000Y393700D03*
X330200Y520700D03*
X241300Y76200D03*
X127000Y259186D03*
X63500Y419100D03*
X177800Y457200D03*
X406356Y228556D03*
X66988Y139700D03*
X152400Y508000D03*
X391956Y49056D03*
X330200Y457200D03*
X444500Y393700D03*
X88900Y419100D03*
X63500Y161290D03*
X107950Y330200D03*
X304800Y218440D03*
X317500Y152400D03*
X381000Y419100D03*
X127000Y368300D03*
X558800Y179070D03*
X38100Y177800D03*
X49530Y261620D03*
X508000Y317500D03*
X127000Y342900D03*
X533400Y266700D03*
X558800Y127000D03*
X444500Y330200D03*
X457200Y419100D03*
X407670Y436880D03*
X504190Y177800D03*
X464820Y177800D03*
X431800Y50800D03*
X482600Y63500D03*
X431800Y63500D03*
X469900Y88900D03*
X533052Y101252D03*
X508000Y241300D03*
X504190Y128270D03*
X508000Y228600D03*
X152400Y533400D03*
X38464Y203532D03*
X292326Y126894D03*
X298793Y178727D03*
X317500Y44450D03*
X318770Y127000D03*
X233680Y250190D03*
X38100Y444500D03*
X38100Y228600D03*
X125730Y330200D03*
X157480Y297180D03*
X228600Y431800D03*
X393700Y520700D03*
X38100Y530860D03*
M02*
