G04 EAGLE Gerber RS-274X export*
G75*
%MOMM*%
%FSLAX34Y34*%
%LPD*%
%IN*%
%IPPOS*%
%AMOC8*
5,1,8,0,0,1.08239X$1,22.5*%
G01*
%ADD10C,0.254000*%


D10*
X0Y38100D02*
X145Y34779D01*
X579Y31484D01*
X1298Y28239D01*
X2298Y25069D01*
X3570Y21998D01*
X5104Y19050D01*
X6890Y16247D01*
X8914Y13610D01*
X11159Y11159D01*
X13610Y8914D01*
X16247Y6890D01*
X19050Y5104D01*
X21998Y3570D01*
X25069Y2298D01*
X28239Y1298D01*
X31484Y579D01*
X34779Y145D01*
X38100Y0D01*
X546100Y0D01*
X549133Y132D01*
X552143Y529D01*
X555107Y1186D01*
X558002Y2099D01*
X560807Y3261D01*
X563500Y4662D01*
X566060Y6294D01*
X568469Y8142D01*
X570707Y10193D01*
X572758Y12431D01*
X574607Y14840D01*
X576238Y17400D01*
X577640Y20093D01*
X578801Y22898D01*
X579714Y25793D01*
X580371Y28757D01*
X580768Y31767D01*
X580900Y34800D01*
X580900Y638200D01*
X580816Y640126D01*
X580564Y642038D01*
X580147Y643920D01*
X579567Y645759D01*
X578829Y647540D01*
X577939Y649250D01*
X576903Y650876D01*
X575730Y652406D01*
X574427Y653827D01*
X573006Y655130D01*
X571476Y656303D01*
X569850Y657339D01*
X568140Y658229D01*
X566359Y658967D01*
X564520Y659547D01*
X562638Y659964D01*
X560726Y660216D01*
X558800Y660300D01*
X25400Y660300D01*
X23186Y660203D01*
X20989Y659914D01*
X18826Y659435D01*
X16713Y658768D01*
X14666Y657920D01*
X12700Y656897D01*
X10831Y655706D01*
X9073Y654358D01*
X7440Y652861D01*
X5942Y651227D01*
X4594Y649469D01*
X3403Y647600D01*
X2380Y645635D01*
X1532Y643587D01*
X865Y641474D01*
X386Y639311D01*
X97Y637114D01*
X0Y634900D01*
X0Y38100D01*
M02*
