G04 EAGLE Gerber RS-274X export*
G75*
%MOMM*%
%FSLAX34Y34*%
%LPD*%
%INSoldermask Bottom*%
%IPPOS*%
%AMOC8*
5,1,8,0,0,1.08239X$1,22.5*%
G01*
%ADD10P,2.556822X8X22.500000*%
%ADD11P,1.951982X8X22.500000*%
%ADD12C,1.803400*%
%ADD13P,1.951982X8X112.500000*%
%ADD14P,1.951982X8X202.500000*%
%ADD15R,1.503200X1.703200*%
%ADD16R,2.743200X2.743200*%
%ADD17C,2.743200*%
%ADD18R,2.403200X0.803200*%
%ADD19R,3.619200X3.619200*%
%ADD20C,3.619200*%
%ADD21C,1.981200*%
%ADD22R,1.981200X1.981200*%


D10*
X266700Y622300D03*
D11*
X133350Y444500D03*
D12*
X107950Y444500D03*
D11*
X469900Y444500D03*
D12*
X444500Y444500D03*
D11*
X469900Y38100D03*
D12*
X444500Y38100D03*
D13*
X215900Y584200D03*
D12*
X215900Y558800D03*
D14*
X177800Y38100D03*
D12*
X203200Y38100D03*
D15*
X174600Y279400D03*
X155600Y279400D03*
D11*
X279400Y317500D03*
D12*
X254000Y317500D03*
D15*
X111100Y279400D03*
X92100Y279400D03*
X422300Y254000D03*
X441300Y254000D03*
D11*
X342900Y317500D03*
D12*
X317500Y317500D03*
D15*
X473100Y279400D03*
X492100Y279400D03*
D11*
X134620Y39370D03*
D12*
X109220Y39370D03*
D16*
X152400Y584200D03*
D17*
X101600Y584200D03*
X50800Y584200D03*
D10*
X317500Y622300D03*
X241300Y25400D03*
X215900Y622300D03*
X368300Y622300D03*
D18*
X267300Y260350D03*
X215300Y260350D03*
X267300Y273050D03*
X267300Y247650D03*
X267300Y234950D03*
X215300Y273050D03*
X215300Y247650D03*
X215300Y234950D03*
X381600Y260350D03*
X329600Y260350D03*
X381600Y273050D03*
X381600Y247650D03*
X381600Y234950D03*
X329600Y273050D03*
X329600Y247650D03*
X329600Y234950D03*
D10*
X317500Y25400D03*
D16*
X342900Y368300D03*
D17*
X292100Y368300D03*
X241300Y368300D03*
D19*
X435610Y495300D03*
D20*
X482600Y495300D03*
X529590Y495300D03*
D10*
X355600Y25400D03*
D15*
X225400Y203200D03*
X206400Y203200D03*
X276200Y203200D03*
X257200Y203200D03*
X257200Y292100D03*
X276200Y292100D03*
X174600Y254000D03*
X155600Y254000D03*
X174600Y228600D03*
X155600Y228600D03*
X155600Y203200D03*
X174600Y203200D03*
X111100Y254000D03*
X92100Y254000D03*
X441300Y203200D03*
X422300Y203200D03*
X492100Y228600D03*
X473100Y228600D03*
X441300Y228600D03*
X422300Y228600D03*
X390500Y203200D03*
X371500Y203200D03*
X320700Y203200D03*
X339700Y203200D03*
X441300Y279400D03*
X422300Y279400D03*
X473100Y254000D03*
X492100Y254000D03*
D16*
X533400Y584200D03*
D17*
X482600Y584200D03*
X431800Y584200D03*
D16*
X533400Y635000D03*
D17*
X482600Y635000D03*
X431800Y635000D03*
D21*
X114300Y495300D03*
D22*
X88900Y495300D03*
D10*
X279400Y25400D03*
D13*
X368300Y584200D03*
D12*
X368300Y558800D03*
M02*
