G04 EAGLE Gerber RS-274X export*
G75*
%MOMM*%
%FSLAX34Y34*%
%LPD*%
%INSolderpaste Bottom*%
%IPPOS*%
%AMOC8*
5,1,8,0,0,1.08239X$1,22.5*%
G01*
%ADD10R,1.300000X1.500000*%
%ADD11R,2.200000X0.600000*%


D10*
X174600Y279400D03*
X155600Y279400D03*
X111100Y279400D03*
X92100Y279400D03*
X422300Y254000D03*
X441300Y254000D03*
X473100Y279400D03*
X492100Y279400D03*
D11*
X267300Y260350D03*
X215300Y260350D03*
X267300Y273050D03*
X267300Y247650D03*
X267300Y234950D03*
X215300Y273050D03*
X215300Y247650D03*
X215300Y234950D03*
X381600Y260350D03*
X329600Y260350D03*
X381600Y273050D03*
X381600Y247650D03*
X381600Y234950D03*
X329600Y273050D03*
X329600Y247650D03*
X329600Y234950D03*
D10*
X225400Y203200D03*
X206400Y203200D03*
X276200Y203200D03*
X257200Y203200D03*
X257200Y292100D03*
X276200Y292100D03*
X174600Y254000D03*
X155600Y254000D03*
X174600Y228600D03*
X155600Y228600D03*
X155600Y203200D03*
X174600Y203200D03*
X111100Y254000D03*
X92100Y254000D03*
X441300Y203200D03*
X422300Y203200D03*
X492100Y228600D03*
X473100Y228600D03*
X441300Y228600D03*
X422300Y228600D03*
X390500Y203200D03*
X371500Y203200D03*
X320700Y203200D03*
X339700Y203200D03*
X441300Y279400D03*
X422300Y279400D03*
X473100Y254000D03*
X492100Y254000D03*
M02*
