G04 EAGLE Gerber RS-274X export*
G75*
%MOMM*%
%FSLAX34Y34*%
%LPD*%
%INSoldermask Top*%
%IPPOS*%
%AMOC8*
5,1,8,0,0,1.08239X$1,22.5*%
G01*
%ADD10P,2.556822X8X22.500000*%
%ADD11R,1.503200X1.703200*%
%ADD12P,1.951982X8X22.500000*%
%ADD13C,1.803400*%
%ADD14P,1.951982X8X112.500000*%
%ADD15P,1.951982X8X202.500000*%
%ADD16R,1.403200X0.953200*%
%ADD17R,2.743200X2.743200*%
%ADD18C,2.743200*%
%ADD19R,2.235200X0.863600*%
%ADD20R,2.403200X0.803200*%
%ADD21R,1.503200X2.353200*%
%ADD22R,5.703200X5.903200*%
%ADD23R,3.619200X3.619200*%
%ADD24C,3.619200*%
%ADD25C,1.981200*%
%ADD26R,1.981200X1.981200*%


D10*
X266700Y622300D03*
D11*
X308000Y266700D03*
X327000Y266700D03*
X212700Y114300D03*
X193700Y114300D03*
X193700Y190500D03*
X212700Y190500D03*
X28600Y457200D03*
X47600Y457200D03*
X212700Y457200D03*
X193700Y457200D03*
X47600Y406400D03*
X28600Y406400D03*
X47600Y330200D03*
X28600Y330200D03*
X47600Y355600D03*
X28600Y355600D03*
D12*
X133350Y444500D03*
D13*
X107950Y444500D03*
D11*
X193700Y406400D03*
X212700Y406400D03*
X212700Y304800D03*
X193700Y304800D03*
X98400Y241300D03*
X79400Y241300D03*
X212700Y330200D03*
X193700Y330200D03*
X390500Y457200D03*
X371500Y457200D03*
X542900Y457200D03*
X523900Y457200D03*
X390500Y381000D03*
X371500Y381000D03*
D12*
X469900Y444500D03*
D13*
X444500Y444500D03*
D11*
X390500Y355600D03*
X371500Y355600D03*
X390500Y330200D03*
X371500Y330200D03*
X523900Y406400D03*
X542900Y406400D03*
X422300Y279400D03*
X441300Y279400D03*
X542900Y330200D03*
X523900Y330200D03*
X193700Y241300D03*
X212700Y241300D03*
X390500Y215900D03*
X371500Y215900D03*
X390500Y190500D03*
X371500Y190500D03*
D12*
X469900Y38100D03*
D13*
X444500Y38100D03*
D11*
X390500Y139700D03*
X371500Y139700D03*
X390500Y114300D03*
X371500Y114300D03*
X492100Y215900D03*
X473100Y215900D03*
X390500Y88900D03*
X371500Y88900D03*
X542900Y88900D03*
X523900Y88900D03*
X542900Y114300D03*
X523900Y114300D03*
X390500Y241300D03*
X371500Y241300D03*
X47600Y165100D03*
X28600Y165100D03*
X371500Y304800D03*
X390500Y304800D03*
X92100Y546100D03*
X111100Y546100D03*
X212700Y279400D03*
X193700Y279400D03*
X308000Y88900D03*
X327000Y88900D03*
D14*
X215900Y584200D03*
D13*
X215900Y558800D03*
D15*
X177800Y38100D03*
D13*
X203200Y38100D03*
D12*
X279400Y317500D03*
D13*
X254000Y317500D03*
D11*
X47600Y88900D03*
X28600Y88900D03*
D12*
X342900Y317500D03*
D13*
X317500Y317500D03*
D11*
X47600Y114300D03*
X28600Y114300D03*
D12*
X134620Y39370D03*
D13*
X109220Y39370D03*
D11*
X212700Y165100D03*
X193700Y165100D03*
X212700Y88900D03*
X193700Y88900D03*
D16*
X275100Y584200D03*
X309100Y584200D03*
D17*
X152400Y584200D03*
D18*
X101600Y584200D03*
X50800Y584200D03*
D10*
X317500Y622300D03*
X241300Y25400D03*
X215900Y622300D03*
X368300Y622300D03*
D19*
X89916Y171450D03*
X89916Y158750D03*
X89916Y146050D03*
X89916Y133350D03*
X89916Y120650D03*
X89916Y107950D03*
X89916Y95250D03*
X89916Y82550D03*
X151384Y82550D03*
X151384Y95250D03*
X151384Y107950D03*
X151384Y120650D03*
X151384Y133350D03*
X151384Y146050D03*
X151384Y158750D03*
X151384Y171450D03*
X89916Y400050D03*
X89916Y387350D03*
X89916Y374650D03*
X89916Y361950D03*
X89916Y349250D03*
X89916Y336550D03*
X89916Y323850D03*
X89916Y311150D03*
X151384Y311150D03*
X151384Y323850D03*
X151384Y336550D03*
X151384Y349250D03*
X151384Y361950D03*
X151384Y374650D03*
X151384Y387350D03*
X151384Y400050D03*
X426466Y400050D03*
X426466Y387350D03*
X426466Y374650D03*
X426466Y361950D03*
X426466Y349250D03*
X426466Y336550D03*
X426466Y323850D03*
X426466Y311150D03*
X487934Y311150D03*
X487934Y323850D03*
X487934Y336550D03*
X487934Y349250D03*
X487934Y361950D03*
X487934Y374650D03*
X487934Y387350D03*
X487934Y400050D03*
X426466Y171450D03*
X426466Y158750D03*
X426466Y146050D03*
X426466Y133350D03*
X426466Y120650D03*
X426466Y107950D03*
X426466Y95250D03*
X426466Y82550D03*
X487934Y82550D03*
X487934Y95250D03*
X487934Y107950D03*
X487934Y120650D03*
X487934Y133350D03*
X487934Y146050D03*
X487934Y158750D03*
X487934Y171450D03*
D20*
X266100Y196850D03*
X318100Y196850D03*
X266100Y209550D03*
X266100Y184150D03*
X266100Y171450D03*
X318100Y209550D03*
X318100Y184150D03*
X318100Y171450D03*
D21*
X269250Y452800D03*
D22*
X292100Y519450D03*
D21*
X314950Y452800D03*
D10*
X317500Y25400D03*
D17*
X342900Y368300D03*
D18*
X292100Y368300D03*
X241300Y368300D03*
D23*
X435610Y495300D03*
D24*
X482600Y495300D03*
X529590Y495300D03*
D10*
X355600Y25400D03*
D11*
X257200Y266700D03*
X276200Y266700D03*
X28600Y139700D03*
X47600Y139700D03*
X47600Y304800D03*
X28600Y304800D03*
X28600Y215900D03*
X47600Y215900D03*
X212700Y215900D03*
X193700Y215900D03*
X28600Y190500D03*
X47600Y190500D03*
X28600Y431800D03*
X47600Y431800D03*
X212700Y431800D03*
X193700Y431800D03*
X212700Y381000D03*
X193700Y381000D03*
X28600Y381000D03*
X47600Y381000D03*
X28600Y279400D03*
X47600Y279400D03*
X327000Y241300D03*
X308000Y241300D03*
X193700Y355600D03*
X212700Y355600D03*
X136550Y279400D03*
X155550Y279400D03*
X98400Y279400D03*
X79400Y279400D03*
X371500Y431800D03*
X390500Y431800D03*
X371500Y406400D03*
X390500Y406400D03*
X542900Y431800D03*
X523900Y431800D03*
X542900Y381000D03*
X523900Y381000D03*
X371500Y482600D03*
X390500Y482600D03*
X523900Y355600D03*
X542900Y355600D03*
X523900Y304800D03*
X542900Y304800D03*
X276200Y241300D03*
X257200Y241300D03*
X542900Y165100D03*
X523900Y165100D03*
X542900Y190500D03*
X523900Y190500D03*
X542900Y215900D03*
X523900Y215900D03*
X422300Y215900D03*
X441300Y215900D03*
X371500Y165100D03*
X390500Y165100D03*
X441300Y241300D03*
X422300Y241300D03*
X473100Y241300D03*
X492100Y241300D03*
X523900Y279400D03*
X542900Y279400D03*
X473100Y279400D03*
X492100Y279400D03*
X542900Y241300D03*
X523900Y241300D03*
X193700Y139700D03*
X212700Y139700D03*
X371500Y279400D03*
X390500Y279400D03*
X282600Y406400D03*
X301600Y406400D03*
X161900Y546100D03*
X142900Y546100D03*
X236880Y406400D03*
X255880Y406400D03*
X327000Y114300D03*
X308000Y114300D03*
X276200Y114300D03*
X257200Y114300D03*
X276200Y88900D03*
X257200Y88900D03*
X308000Y63500D03*
X327000Y63500D03*
X276200Y63500D03*
X257200Y63500D03*
X136550Y241300D03*
X155550Y241300D03*
X327000Y139700D03*
X308000Y139700D03*
X276200Y139700D03*
X257200Y139700D03*
X98400Y215900D03*
X79400Y215900D03*
X142900Y520700D03*
X161900Y520700D03*
X328320Y406400D03*
X347320Y406400D03*
X28600Y241300D03*
X47600Y241300D03*
X155550Y215900D03*
X136550Y215900D03*
D17*
X533400Y584200D03*
D18*
X482600Y584200D03*
X431800Y584200D03*
D17*
X533400Y635000D03*
D18*
X482600Y635000D03*
X431800Y635000D03*
D25*
X114300Y495300D03*
D26*
X88900Y495300D03*
D11*
X60300Y546100D03*
X41300Y546100D03*
D10*
X279400Y25400D03*
D14*
X368300Y584200D03*
D13*
X368300Y558800D03*
D11*
X542900Y139700D03*
X523900Y139700D03*
M02*
