M48
;GenerationSoftware,Autodesk,EAGLE,9.3.2*%
;CreationDate,2020-11-12T00:25:10Z*%
FMAT,2
ICI,OFF
METRIC,TZ,000.000
T6C0.350
T5C0.813
T4C0.900
T3C1.016
T2C1.400
T1C2.400
%
G90
M71
T1
X52959Y49530
X48260Y49530
X43561Y49530
T2
X10160Y58420
X24130Y36830
X34290Y36830
X29210Y36830
X15240Y58420
X43180Y63500
X5080Y58420
X48260Y63500
X53340Y63500
X43180Y58420
X48260Y58420
X53340Y58420
T3
X21590Y62230
X26670Y62230
X36830Y62230
X31750Y2540
X35560Y2540
X27940Y2540
X31750Y62230
X24130Y2540
T4
X11430Y49530
X8890Y49530
T5
X46990Y44450
X13335Y44450
X10795Y44450
X46990Y3810
X44450Y3810
X31750Y31750
X34290Y31750
X25400Y31750
X13462Y3937
X27940Y31750
X20320Y3810
X17780Y3810
X21590Y55880
X21590Y58420
X44450Y44450
X10922Y3937
X36830Y58420
X36830Y55880
T6
X50800Y24130
X50419Y12827
X50800Y22860
X15240Y53340
X3846Y20353
X29233Y12689
X29879Y17873
X31750Y4445
X17780Y45720
X23368Y25019
X3810Y44450
X3810Y22860
X12573Y33020
X15748Y29718
X22860Y43180
X39370Y52070
X3810Y53086
X26670Y12700
X17145Y18161
X24130Y12700
X31877Y12700
X29464Y24892
X29464Y22860
X28702Y18161
X26670Y15240
X38100Y39370
X33020Y52070
X24130Y7620
X12700Y25919
X6350Y41910
X40636Y22856
X6699Y13970
X15240Y50800
X39196Y4906
X33020Y45720
X44450Y39370
X8890Y41910
X6350Y16129
X10795Y33020
X30480Y21844
X31750Y15240
X38100Y41910
X12700Y36830
X55880Y17907
X3810Y17780
X4953Y26162
X50800Y31750
X48260Y6350
X12700Y34290
X53340Y26670
X55880Y12700
X44450Y33020
X45720Y41910
X40767Y43688
X50419Y17780
X46482Y17780
X43180Y5080
X43180Y6350
X46990Y8890
X53305Y10125
M30